ISO-10303-21;
HEADER;
/* Generated by software containing ST-Developer
 * from STEP Tools, Inc. (www.steptools.com) 
 */
/* OPTION: using custom renumber hook */

FILE_DESCRIPTION(
/* description */ ('STEP AP242 Edition 2',
'CAx-IF Rec.Pracs.---Representation and Presentation of Product Manufa
cturing Information (PMI)---4.0---2014-10-13',
'CAx-IF Rec.Pracs.---3D Tessellated Geometry---0.4---2014-09-14','2;1',
'CAx-IF Rec.Pracs.---User Defined Attributes---1.5---2016-08-15'),
/* implementation_level */ '2;1');

FILE_NAME(
/* name */ 'Part Studio 1 - Part 1',
/* time_stamp */ '2026-10-07T00:29:57Z',
/* author */ (''),
/* organization */ (''),
/* preprocessor_version */ 'ST-DEVELOPER v20',
/* originating_system */ 'ONSHAPE BY PTC INC, 1.221',
/* authorisation */ '  ');

FILE_SCHEMA (('AP242_MANAGED_MODEL_BASED_3D_ENGINEERING_MIM_LF { 1 0 10303 442 3 1 4 }'));
ENDSEC;

DATA;
#10=SHAPE_REPRESENTATION_RELATIONSHIP('','',#733,#11);
#11=ADVANCED_BREP_SHAPE_REPRESENTATION('',(#731),#1263);
#12=SPHERICAL_SURFACE('',#795,0.002);
#13=SPHERICAL_SURFACE('',#801,0.002);
#14=SPHERICAL_SURFACE('',#807,0.002);
#15=SPHERICAL_SURFACE('',#811,0.002);
#16=B_SPLINE_CURVE_WITH_KNOTS('',3,(#1194,#1195,#1196,#1197,#1198),
 .UNSPECIFIED.,.F.,.F.,(4,1,4),(0.,0.00118316061051222,0.00236632122102444),
 .UNSPECIFIED.);
#17=B_SPLINE_CURVE_WITH_KNOTS('',3,(#1199,#1200,#1201,#1202,#1203),
 .UNSPECIFIED.,.F.,.F.,(4,1,4),(0.,0.00118316061051222,0.00236632122102443),
 .UNSPECIFIED.);
#18=B_SPLINE_CURVE_WITH_KNOTS('',3,(#1205,#1206,#1207,#1208,#1209),
 .UNSPECIFIED.,.F.,.F.,(4,1,4),(0.,0.00118316061051222,0.00236632122102444),
 .UNSPECIFIED.);
#19=B_SPLINE_CURVE_WITH_KNOTS('',3,(#1210,#1211,#1212,#1213,#1214),
 .UNSPECIFIED.,.F.,.F.,(4,1,4),(0.,0.00118316061051222,0.00236632122102443),
 .UNSPECIFIED.);
#20=B_SPLINE_CURVE_WITH_KNOTS('',3,(#1216,#1217,#1218,#1219,#1220),
 .UNSPECIFIED.,.F.,.F.,(4,1,4),(0.,0.00118316061051222,0.00236632122102443),
 .UNSPECIFIED.);
#21=B_SPLINE_CURVE_WITH_KNOTS('',3,(#1221,#1222,#1223,#1224,#1225),
 .UNSPECIFIED.,.F.,.F.,(4,1,4),(0.,0.00118316061051222,0.00236632122102443),
 .UNSPECIFIED.);
#22=B_SPLINE_CURVE_WITH_KNOTS('',3,(#1227,#1228,#1229,#1230,#1231),
 .UNSPECIFIED.,.F.,.F.,(4,1,4),(0.,0.00118316061051222,0.00236632122102443),
 .UNSPECIFIED.);
#23=B_SPLINE_CURVE_WITH_KNOTS('',3,(#1232,#1233,#1234,#1235,#1236),
 .UNSPECIFIED.,.F.,.F.,(4,1,4),(0.,0.00118316061051222,0.00236632122102443),
 .UNSPECIFIED.);
#24=CYLINDRICAL_SURFACE('',#765,0.0017);
#25=CYLINDRICAL_SURFACE('',#767,0.0017);
#26=CYLINDRICAL_SURFACE('',#769,0.0017);
#27=CYLINDRICAL_SURFACE('',#772,0.0017);
#28=CYLINDRICAL_SURFACE('',#785,0.0023);
#29=CYLINDRICAL_SURFACE('',#786,0.0023);
#30=CYLINDRICAL_SURFACE('',#787,0.0023);
#31=CYLINDRICAL_SURFACE('',#788,0.0023);
#32=CYLINDRICAL_SURFACE('',#790,0.002);
#33=CYLINDRICAL_SURFACE('',#793,0.002);
#34=CYLINDRICAL_SURFACE('',#797,0.002);
#35=CYLINDRICAL_SURFACE('',#799,0.002);
#36=CYLINDRICAL_SURFACE('',#803,0.002);
#37=CYLINDRICAL_SURFACE('',#805,0.002);
#38=CYLINDRICAL_SURFACE('',#809,0.002);
#39=CYLINDRICAL_SURFACE('',#813,0.002);
#40=CIRCLE('',#736,0.0023);
#41=CIRCLE('',#738,0.0023);
#42=CIRCLE('',#739,0.0023);
#43=CIRCLE('',#740,0.0023);
#44=CIRCLE('',#741,0.0023);
#45=CIRCLE('',#743,0.0023);
#46=CIRCLE('',#745,0.0023);
#47=CIRCLE('',#747,0.0017);
#48=CIRCLE('',#748,0.0023);
#49=CIRCLE('',#750,0.0017);
#50=CIRCLE('',#751,0.0023);
#51=CIRCLE('',#753,0.0017);
#52=CIRCLE('',#754,0.0023);
#53=CIRCLE('',#756,0.0017);
#54=CIRCLE('',#757,0.0023);
#55=CIRCLE('',#766,0.0017);
#56=CIRCLE('',#768,0.0017);
#57=CIRCLE('',#770,0.0017);
#58=CIRCLE('',#773,0.0017);
#59=CIRCLE('',#775,0.002);
#60=CIRCLE('',#776,0.002);
#61=CIRCLE('',#777,0.002);
#62=CIRCLE('',#778,0.002);
#63=CIRCLE('',#784,0.0023);
#64=CIRCLE('',#791,0.002);
#65=CIRCLE('',#792,0.002);
#66=CIRCLE('',#794,0.002);
#67=CIRCLE('',#796,0.002);
#68=CIRCLE('',#798,0.002);
#69=CIRCLE('',#800,0.002);
#70=CIRCLE('',#802,0.002);
#71=CIRCLE('',#804,0.002);
#72=CIRCLE('',#806,0.002);
#73=CIRCLE('',#808,0.002);
#74=CIRCLE('',#810,0.002);
#75=CIRCLE('',#812,0.002);
#76=ORIENTED_EDGE('',*,*,#268,.T.);
#77=ORIENTED_EDGE('',*,*,#269,.T.);
#78=ORIENTED_EDGE('',*,*,#270,.T.);
#79=ORIENTED_EDGE('',*,*,#271,.T.);
#80=ORIENTED_EDGE('',*,*,#272,.T.);
#81=ORIENTED_EDGE('',*,*,#273,.T.);
#82=ORIENTED_EDGE('',*,*,#274,.T.);
#83=ORIENTED_EDGE('',*,*,#275,.T.);
#84=ORIENTED_EDGE('',*,*,#276,.T.);
#85=ORIENTED_EDGE('',*,*,#277,.T.);
#86=ORIENTED_EDGE('',*,*,#278,.T.);
#87=ORIENTED_EDGE('',*,*,#279,.T.);
#88=ORIENTED_EDGE('',*,*,#280,.T.);
#89=ORIENTED_EDGE('',*,*,#281,.T.);
#90=ORIENTED_EDGE('',*,*,#282,.T.);
#91=ORIENTED_EDGE('',*,*,#283,.T.);
#92=ORIENTED_EDGE('',*,*,#284,.T.);
#93=ORIENTED_EDGE('',*,*,#285,.T.);
#94=ORIENTED_EDGE('',*,*,#286,.F.);
#95=ORIENTED_EDGE('',*,*,#287,.T.);
#96=ORIENTED_EDGE('',*,*,#288,.F.);
#97=ORIENTED_EDGE('',*,*,#289,.T.);
#98=ORIENTED_EDGE('',*,*,#290,.F.);
#99=ORIENTED_EDGE('',*,*,#291,.T.);
#100=ORIENTED_EDGE('',*,*,#292,.F.);
#101=ORIENTED_EDGE('',*,*,#293,.T.);
#102=ORIENTED_EDGE('',*,*,#294,.F.);
#103=ORIENTED_EDGE('',*,*,#295,.F.);
#104=ORIENTED_EDGE('',*,*,#296,.T.);
#105=ORIENTED_EDGE('',*,*,#297,.F.);
#106=ORIENTED_EDGE('',*,*,#298,.F.);
#107=ORIENTED_EDGE('',*,*,#299,.T.);
#108=ORIENTED_EDGE('',*,*,#300,.T.);
#109=ORIENTED_EDGE('',*,*,#301,.T.);
#110=ORIENTED_EDGE('',*,*,#302,.T.);
#111=ORIENTED_EDGE('',*,*,#303,.T.);
#112=ORIENTED_EDGE('',*,*,#304,.T.);
#113=ORIENTED_EDGE('',*,*,#305,.T.);
#114=ORIENTED_EDGE('',*,*,#306,.T.);
#115=ORIENTED_EDGE('',*,*,#307,.F.);
#116=ORIENTED_EDGE('',*,*,#308,.F.);
#117=ORIENTED_EDGE('',*,*,#309,.T.);
#118=ORIENTED_EDGE('',*,*,#310,.T.);
#119=ORIENTED_EDGE('',*,*,#311,.T.);
#120=ORIENTED_EDGE('',*,*,#312,.T.);
#121=ORIENTED_EDGE('',*,*,#313,.F.);
#122=ORIENTED_EDGE('',*,*,#314,.T.);
#123=ORIENTED_EDGE('',*,*,#315,.T.);
#124=ORIENTED_EDGE('',*,*,#316,.T.);
#125=ORIENTED_EDGE('',*,*,#317,.F.);
#126=ORIENTED_EDGE('',*,*,#318,.T.);
#127=ORIENTED_EDGE('',*,*,#319,.T.);
#128=ORIENTED_EDGE('',*,*,#320,.T.);
#129=ORIENTED_EDGE('',*,*,#321,.F.);
#130=ORIENTED_EDGE('',*,*,#296,.F.);
#131=ORIENTED_EDGE('',*,*,#322,.T.);
#132=ORIENTED_EDGE('',*,*,#323,.T.);
#133=ORIENTED_EDGE('',*,*,#324,.T.);
#134=ORIENTED_EDGE('',*,*,#325,.F.);
#135=ORIENTED_EDGE('',*,*,#326,.F.);
#136=ORIENTED_EDGE('',*,*,#294,.T.);
#137=ORIENTED_EDGE('',*,*,#327,.T.);
#138=ORIENTED_EDGE('',*,*,#287,.F.);
#139=ORIENTED_EDGE('',*,*,#328,.T.);
#140=ORIENTED_EDGE('',*,*,#289,.F.);
#141=ORIENTED_EDGE('',*,*,#329,.T.);
#142=ORIENTED_EDGE('',*,*,#291,.F.);
#143=ORIENTED_EDGE('',*,*,#330,.F.);
#144=ORIENTED_EDGE('',*,*,#323,.F.);
#145=ORIENTED_EDGE('',*,*,#331,.T.);
#146=ORIENTED_EDGE('',*,*,#325,.T.);
#147=ORIENTED_EDGE('',*,*,#332,.T.);
#148=ORIENTED_EDGE('',*,*,#285,.F.);
#149=ORIENTED_EDGE('',*,*,#322,.F.);
#150=ORIENTED_EDGE('',*,*,#295,.T.);
#151=ORIENTED_EDGE('',*,*,#326,.T.);
#152=ORIENTED_EDGE('',*,*,#331,.F.);
#153=ORIENTED_EDGE('',*,*,#311,.F.);
#154=ORIENTED_EDGE('',*,*,#333,.T.);
#155=ORIENTED_EDGE('',*,*,#313,.T.);
#156=ORIENTED_EDGE('',*,*,#334,.T.);
#157=ORIENTED_EDGE('',*,*,#317,.T.);
#158=ORIENTED_EDGE('',*,*,#335,.T.);
#159=ORIENTED_EDGE('',*,*,#303,.F.);
#160=ORIENTED_EDGE('',*,*,#336,.T.);
#161=ORIENTED_EDGE('',*,*,#329,.F.);
#162=ORIENTED_EDGE('',*,*,#328,.F.);
#163=ORIENTED_EDGE('',*,*,#327,.F.);
#164=ORIENTED_EDGE('',*,*,#332,.F.);
#165=ORIENTED_EDGE('',*,*,#297,.T.);
#166=ORIENTED_EDGE('',*,*,#337,.F.);
#167=ORIENTED_EDGE('',*,*,#306,.F.);
#168=ORIENTED_EDGE('',*,*,#338,.T.);
#169=ORIENTED_EDGE('',*,*,#339,.F.);
#170=ORIENTED_EDGE('',*,*,#307,.T.);
#171=ORIENTED_EDGE('',*,*,#337,.T.);
#172=ORIENTED_EDGE('',*,*,#300,.F.);
#173=ORIENTED_EDGE('',*,*,#340,.F.);
#174=ORIENTED_EDGE('',*,*,#308,.T.);
#175=ORIENTED_EDGE('',*,*,#339,.T.);
#176=ORIENTED_EDGE('',*,*,#299,.F.);
#177=ORIENTED_EDGE('',*,*,#298,.T.);
#178=ORIENTED_EDGE('',*,*,#338,.F.);
#179=ORIENTED_EDGE('',*,*,#305,.F.);
#180=ORIENTED_EDGE('',*,*,#340,.T.);
#181=ORIENTED_EDGE('',*,*,#341,.T.);
#182=ORIENTED_EDGE('',*,*,#342,.T.);
#183=ORIENTED_EDGE('',*,*,#343,.T.);
#184=ORIENTED_EDGE('',*,*,#292,.T.);
#185=ORIENTED_EDGE('',*,*,#270,.F.);
#186=ORIENTED_EDGE('',*,*,#344,.T.);
#187=ORIENTED_EDGE('',*,*,#271,.F.);
#188=ORIENTED_EDGE('',*,*,#345,.T.);
#189=ORIENTED_EDGE('',*,*,#286,.T.);
#190=ORIENTED_EDGE('',*,*,#343,.F.);
#191=ORIENTED_EDGE('',*,*,#346,.T.);
#192=ORIENTED_EDGE('',*,*,#275,.F.);
#193=ORIENTED_EDGE('',*,*,#347,.T.);
#194=ORIENTED_EDGE('',*,*,#288,.T.);
#195=ORIENTED_EDGE('',*,*,#284,.F.);
#196=ORIENTED_EDGE('',*,*,#348,.T.);
#197=ORIENTED_EDGE('',*,*,#277,.F.);
#198=ORIENTED_EDGE('',*,*,#349,.T.);
#199=ORIENTED_EDGE('',*,*,#290,.T.);
#200=ORIENTED_EDGE('',*,*,#273,.F.);
#201=ORIENTED_EDGE('',*,*,#350,.T.);
#202=ORIENTED_EDGE('',*,*,#279,.F.);
#203=ORIENTED_EDGE('',*,*,#351,.T.);
#204=ORIENTED_EDGE('',*,*,#293,.F.);
#205=ORIENTED_EDGE('',*,*,#321,.T.);
#206=ORIENTED_EDGE('',*,*,#330,.T.);
#207=ORIENTED_EDGE('',*,*,#324,.F.);
#208=ORIENTED_EDGE('',*,*,#315,.F.);
#209=ORIENTED_EDGE('',*,*,#352,.T.);
#210=ORIENTED_EDGE('',*,*,#268,.F.);
#211=ORIENTED_EDGE('',*,*,#345,.F.);
#212=ORIENTED_EDGE('',*,*,#278,.F.);
#213=ORIENTED_EDGE('',*,*,#348,.F.);
#214=ORIENTED_EDGE('',*,*,#283,.F.);
#215=ORIENTED_EDGE('',*,*,#353,.F.);
#216=ORIENTED_EDGE('',*,*,#334,.F.);
#217=ORIENTED_EDGE('',*,*,#316,.F.);
#218=ORIENTED_EDGE('',*,*,#354,.F.);
#219=ORIENTED_EDGE('',*,*,#318,.F.);
#220=ORIENTED_EDGE('',*,*,#354,.T.);
#221=ORIENTED_EDGE('',*,*,#353,.T.);
#222=ORIENTED_EDGE('',*,*,#355,.F.);
#223=ORIENTED_EDGE('',*,*,#346,.F.);
#224=ORIENTED_EDGE('',*,*,#342,.F.);
#225=ORIENTED_EDGE('',*,*,#356,.F.);
#226=ORIENTED_EDGE('',*,*,#319,.F.);
#227=ORIENTED_EDGE('',*,*,#355,.T.);
#228=ORIENTED_EDGE('',*,*,#282,.F.);
#229=ORIENTED_EDGE('',*,*,#349,.F.);
#230=ORIENTED_EDGE('',*,*,#276,.F.);
#231=ORIENTED_EDGE('',*,*,#335,.F.);
#232=ORIENTED_EDGE('',*,*,#320,.F.);
#233=ORIENTED_EDGE('',*,*,#357,.F.);
#234=ORIENTED_EDGE('',*,*,#304,.F.);
#235=ORIENTED_EDGE('',*,*,#357,.T.);
#236=ORIENTED_EDGE('',*,*,#356,.T.);
#237=ORIENTED_EDGE('',*,*,#358,.F.);
#238=ORIENTED_EDGE('',*,*,#281,.F.);
#239=ORIENTED_EDGE('',*,*,#359,.T.);
#240=ORIENTED_EDGE('',*,*,#301,.F.);
#241=ORIENTED_EDGE('',*,*,#358,.T.);
#242=ORIENTED_EDGE('',*,*,#341,.F.);
#243=ORIENTED_EDGE('',*,*,#347,.F.);
#244=ORIENTED_EDGE('',*,*,#274,.F.);
#245=ORIENTED_EDGE('',*,*,#351,.F.);
#246=ORIENTED_EDGE('',*,*,#302,.F.);
#247=ORIENTED_EDGE('',*,*,#360,.T.);
#248=ORIENTED_EDGE('',*,*,#312,.F.);
#249=ORIENTED_EDGE('',*,*,#336,.F.);
#250=ORIENTED_EDGE('',*,*,#360,.F.);
#251=ORIENTED_EDGE('',*,*,#359,.F.);
#252=ORIENTED_EDGE('',*,*,#361,.F.);
#253=ORIENTED_EDGE('',*,*,#344,.F.);
#254=ORIENTED_EDGE('',*,*,#269,.F.);
#255=ORIENTED_EDGE('',*,*,#362,.F.);
#256=ORIENTED_EDGE('',*,*,#309,.F.);
#257=ORIENTED_EDGE('',*,*,#361,.T.);
#258=ORIENTED_EDGE('',*,*,#280,.F.);
#259=ORIENTED_EDGE('',*,*,#350,.F.);
#260=ORIENTED_EDGE('',*,*,#272,.F.);
#261=ORIENTED_EDGE('',*,*,#362,.T.);
#262=ORIENTED_EDGE('',*,*,#352,.F.);
#263=ORIENTED_EDGE('',*,*,#363,.F.);
#264=ORIENTED_EDGE('',*,*,#333,.F.);
#265=ORIENTED_EDGE('',*,*,#310,.F.);
#266=ORIENTED_EDGE('',*,*,#363,.T.);
#267=ORIENTED_EDGE('',*,*,#314,.F.);
#268=EDGE_CURVE('',#364,#365,#428,.F.);
#269=EDGE_CURVE('',#365,#366,#429,.T.);
#270=EDGE_CURVE('',#366,#364,#40,.T.);
#271=EDGE_CURVE('',#367,#368,#41,.T.);
#272=EDGE_CURVE('',#368,#369,#430,.T.);
#273=EDGE_CURVE('',#369,#370,#42,.T.);
#274=EDGE_CURVE('',#370,#371,#431,.T.);
#275=EDGE_CURVE('',#371,#372,#43,.T.);
#276=EDGE_CURVE('',#372,#373,#432,.F.);
#277=EDGE_CURVE('',#373,#374,#44,.T.);
#278=EDGE_CURVE('',#374,#367,#433,.F.);
#279=EDGE_CURVE('',#375,#376,#45,.T.);
#280=EDGE_CURVE('',#376,#377,#434,.T.);
#281=EDGE_CURVE('',#377,#375,#435,.T.);
#282=EDGE_CURVE('',#378,#379,#436,.F.);
#283=EDGE_CURVE('',#379,#380,#437,.F.);
#284=EDGE_CURVE('',#380,#378,#46,.T.);
#285=EDGE_CURVE('',#381,#381,#47,.T.);
#286=EDGE_CURVE('',#382,#382,#48,.T.);
#287=EDGE_CURVE('',#383,#383,#49,.T.);
#288=EDGE_CURVE('',#384,#384,#50,.T.);
#289=EDGE_CURVE('',#385,#385,#51,.T.);
#290=EDGE_CURVE('',#386,#386,#52,.T.);
#291=EDGE_CURVE('',#387,#387,#53,.T.);
#292=EDGE_CURVE('',#388,#388,#54,.T.);
#293=EDGE_CURVE('',#389,#390,#438,.T.);
#294=EDGE_CURVE('',#391,#390,#439,.T.);
#295=EDGE_CURVE('',#392,#391,#440,.T.);
#296=EDGE_CURVE('',#392,#389,#441,.T.);
#297=EDGE_CURVE('',#393,#394,#442,.T.);
#298=EDGE_CURVE('',#395,#393,#443,.T.);
#299=EDGE_CURVE('',#395,#396,#444,.T.);
#300=EDGE_CURVE('',#396,#394,#445,.T.);
#301=EDGE_CURVE('',#397,#398,#446,.F.);
#302=EDGE_CURVE('',#398,#399,#447,.F.);
#303=EDGE_CURVE('',#399,#400,#448,.T.);
#304=EDGE_CURVE('',#400,#397,#449,.T.);
#305=EDGE_CURVE('',#401,#402,#450,.T.);
#306=EDGE_CURVE('',#402,#403,#451,.T.);
#307=EDGE_CURVE('',#404,#403,#452,.T.);
#308=EDGE_CURVE('',#401,#404,#453,.T.);
#309=EDGE_CURVE('',#405,#406,#454,.F.);
#310=EDGE_CURVE('',#406,#407,#455,.F.);
#311=EDGE_CURVE('',#407,#408,#456,.T.);
#312=EDGE_CURVE('',#408,#405,#457,.T.);
#313=EDGE_CURVE('',#409,#410,#458,.T.);
#314=EDGE_CURVE('',#409,#411,#459,.T.);
#315=EDGE_CURVE('',#411,#412,#460,.T.);
#316=EDGE_CURVE('',#412,#410,#461,.F.);
#317=EDGE_CURVE('',#413,#414,#462,.T.);
#318=EDGE_CURVE('',#413,#415,#463,.T.);
#319=EDGE_CURVE('',#415,#416,#464,.T.);
#320=EDGE_CURVE('',#416,#414,#465,.F.);
#321=EDGE_CURVE('',#389,#417,#466,.T.);
#322=EDGE_CURVE('',#392,#418,#467,.T.);
#323=EDGE_CURVE('',#418,#417,#468,.T.);
#324=EDGE_CURVE('',#390,#419,#469,.T.);
#325=EDGE_CURVE('',#420,#419,#470,.T.);
#326=EDGE_CURVE('',#391,#420,#471,.T.);
#327=EDGE_CURVE('',#421,#421,#55,.T.);
#328=EDGE_CURVE('',#422,#422,#56,.T.);
#329=EDGE_CURVE('',#423,#423,#57,.T.);
#330=EDGE_CURVE('',#417,#419,#472,.T.);
#331=EDGE_CURVE('',#418,#420,#473,.T.);
#332=EDGE_CURVE('',#424,#424,#58,.T.);
#333=EDGE_CURVE('',#407,#409,#59,.T.);
#334=EDGE_CURVE('',#410,#413,#60,.T.);
#335=EDGE_CURVE('',#414,#400,#61,.T.);
#336=EDGE_CURVE('',#399,#408,#62,.T.);
#337=EDGE_CURVE('',#403,#394,#474,.T.);
#338=EDGE_CURVE('',#402,#393,#475,.T.);
#339=EDGE_CURVE('',#404,#396,#476,.T.);
#340=EDGE_CURVE('',#401,#395,#477,.T.);
#341=EDGE_CURVE('',#425,#426,#478,.T.);
#342=EDGE_CURVE('',#426,#427,#479,.F.);
#343=EDGE_CURVE('',#427,#425,#63,.T.);
#344=EDGE_CURVE('',#366,#368,#16,.T.);
#345=EDGE_CURVE('',#367,#364,#17,.T.);
#346=EDGE_CURVE('',#427,#372,#18,.T.);
#347=EDGE_CURVE('',#371,#425,#19,.T.);
#348=EDGE_CURVE('',#380,#374,#20,.T.);
#349=EDGE_CURVE('',#373,#378,#21,.T.);
#350=EDGE_CURVE('',#369,#376,#22,.T.);
#351=EDGE_CURVE('',#375,#370,#23,.T.);
#352=EDGE_CURVE('',#411,#365,#64,.T.);
#353=EDGE_CURVE('',#412,#379,#65,.T.);
#354=EDGE_CURVE('',#415,#412,#66,.T.);
#355=EDGE_CURVE('',#415,#379,#67,.F.);
#356=EDGE_CURVE('',#416,#426,#68,.T.);
#357=EDGE_CURVE('',#397,#416,#69,.T.);
#358=EDGE_CURVE('',#397,#426,#70,.F.);
#359=EDGE_CURVE('',#377,#398,#71,.F.);
#360=EDGE_CURVE('',#398,#405,#72,.F.);
#361=EDGE_CURVE('',#405,#377,#73,.T.);
#362=EDGE_CURVE('',#406,#365,#74,.T.);
#363=EDGE_CURVE('',#406,#411,#75,.T.);
#364=VERTEX_POINT('',#1029);
#365=VERTEX_POINT('',#1030);
#366=VERTEX_POINT('',#1032);
#367=VERTEX_POINT('',#1036);
#368=VERTEX_POINT('',#1037);
#369=VERTEX_POINT('',#1039);
#370=VERTEX_POINT('',#1041);
#371=VERTEX_POINT('',#1043);
#372=VERTEX_POINT('',#1045);
#373=VERTEX_POINT('',#1047);
#374=VERTEX_POINT('',#1049);
#375=VERTEX_POINT('',#1053);
#376=VERTEX_POINT('',#1054);
#377=VERTEX_POINT('',#1056);
#378=VERTEX_POINT('',#1060);
#379=VERTEX_POINT('',#1061);
#380=VERTEX_POINT('',#1063);
#381=VERTEX_POINT('',#1067);
#382=VERTEX_POINT('',#1069);
#383=VERTEX_POINT('',#1072);
#384=VERTEX_POINT('',#1074);
#385=VERTEX_POINT('',#1077);
#386=VERTEX_POINT('',#1079);
#387=VERTEX_POINT('',#1082);
#388=VERTEX_POINT('',#1084);
#389=VERTEX_POINT('',#1087);
#390=VERTEX_POINT('',#1088);
#391=VERTEX_POINT('',#1090);
#392=VERTEX_POINT('',#1092);
#393=VERTEX_POINT('',#1095);
#394=VERTEX_POINT('',#1096);
#395=VERTEX_POINT('',#1098);
#396=VERTEX_POINT('',#1100);
#397=VERTEX_POINT('',#1104);
#398=VERTEX_POINT('',#1105);
#399=VERTEX_POINT('',#1107);
#400=VERTEX_POINT('',#1109);
#401=VERTEX_POINT('',#1112);
#402=VERTEX_POINT('',#1113);
#403=VERTEX_POINT('',#1115);
#404=VERTEX_POINT('',#1117);
#405=VERTEX_POINT('',#1121);
#406=VERTEX_POINT('',#1122);
#407=VERTEX_POINT('',#1124);
#408=VERTEX_POINT('',#1126);
#409=VERTEX_POINT('',#1130);
#410=VERTEX_POINT('',#1131);
#411=VERTEX_POINT('',#1133);
#412=VERTEX_POINT('',#1135);
#413=VERTEX_POINT('',#1139);
#414=VERTEX_POINT('',#1140);
#415=VERTEX_POINT('',#1142);
#416=VERTEX_POINT('',#1144);
#417=VERTEX_POINT('',#1148);
#418=VERTEX_POINT('',#1150);
#419=VERTEX_POINT('',#1154);
#420=VERTEX_POINT('',#1156);
#421=VERTEX_POINT('',#1160);
#422=VERTEX_POINT('',#1163);
#423=VERTEX_POINT('',#1166);
#424=VERTEX_POINT('',#1172);
#425=VERTEX_POINT('',#1188);
#426=VERTEX_POINT('',#1189);
#427=VERTEX_POINT('',#1191);
#428=LINE('',#1028,#480);
#429=LINE('',#1031,#481);
#430=LINE('',#1038,#482);
#431=LINE('',#1042,#483);
#432=LINE('',#1046,#484);
#433=LINE('',#1050,#485);
#434=LINE('',#1055,#486);
#435=LINE('',#1057,#487);
#436=LINE('',#1059,#488);
#437=LINE('',#1062,#489);
#438=LINE('',#1086,#490);
#439=LINE('',#1089,#491);
#440=LINE('',#1091,#492);
#441=LINE('',#1093,#493);
#442=LINE('',#1094,#494);
#443=LINE('',#1097,#495);
#444=LINE('',#1099,#496);
#445=LINE('',#1101,#497);
#446=LINE('',#1103,#498);
#447=LINE('',#1106,#499);
#448=LINE('',#1108,#500);
#449=LINE('',#1110,#501);
#450=LINE('',#1111,#502);
#451=LINE('',#1114,#503);
#452=LINE('',#1116,#504);
#453=LINE('',#1118,#505);
#454=LINE('',#1120,#506);
#455=LINE('',#1123,#507);
#456=LINE('',#1125,#508);
#457=LINE('',#1127,#509);
#458=LINE('',#1129,#510);
#459=LINE('',#1132,#511);
#460=LINE('',#1134,#512);
#461=LINE('',#1136,#513);
#462=LINE('',#1138,#514);
#463=LINE('',#1141,#515);
#464=LINE('',#1143,#516);
#465=LINE('',#1145,#517);
#466=LINE('',#1147,#518);
#467=LINE('',#1149,#519);
#468=LINE('',#1151,#520);
#469=LINE('',#1153,#521);
#470=LINE('',#1155,#522);
#471=LINE('',#1157,#523);
#472=LINE('',#1168,#524);
#473=LINE('',#1169,#525);
#474=LINE('',#1179,#526);
#475=LINE('',#1180,#527);
#476=LINE('',#1182,#528);
#477=LINE('',#1184,#529);
#478=LINE('',#1187,#530);
#479=LINE('',#1190,#531);
#480=VECTOR('',#818,1.);
#481=VECTOR('',#819,1.);
#482=VECTOR('',#826,1.);
#483=VECTOR('',#829,1.);
#484=VECTOR('',#832,1.);
#485=VECTOR('',#835,1.);
#486=VECTOR('',#840,1.);
#487=VECTOR('',#841,1.);
#488=VECTOR('',#844,1.);
#489=VECTOR('',#845,1.);
#490=VECTOR('',#874,1.);
#491=VECTOR('',#875,1.);
#492=VECTOR('',#876,1.);
#493=VECTOR('',#877,1.);
#494=VECTOR('',#878,1.);
#495=VECTOR('',#879,1.);
#496=VECTOR('',#880,1.);
#497=VECTOR('',#881,1.);
#498=VECTOR('',#884,1.);
#499=VECTOR('',#885,1.);
#500=VECTOR('',#886,1.);
#501=VECTOR('',#887,1.);
#502=VECTOR('',#888,1.);
#503=VECTOR('',#889,1.);
#504=VECTOR('',#890,1.);
#505=VECTOR('',#891,1.);
#506=VECTOR('',#894,1.);
#507=VECTOR('',#895,1.);
#508=VECTOR('',#896,1.);
#509=VECTOR('',#897,1.);
#510=VECTOR('',#900,1.);
#511=VECTOR('',#901,1.);
#512=VECTOR('',#902,1.);
#513=VECTOR('',#903,1.);
#514=VECTOR('',#906,1.);
#515=VECTOR('',#907,1.);
#516=VECTOR('',#908,1.);
#517=VECTOR('',#909,1.);
#518=VECTOR('',#912,1.);
#519=VECTOR('',#913,1.);
#520=VECTOR('',#914,1.);
#521=VECTOR('',#917,1.);
#522=VECTOR('',#918,1.);
#523=VECTOR('',#919,1.);
#524=VECTOR('',#934,1.);
#525=VECTOR('',#935,1.);
#526=VECTOR('',#952,1.);
#527=VECTOR('',#953,1.);
#528=VECTOR('',#956,1.);
#529=VECTOR('',#959,1.);
#530=VECTOR('',#964,1.);
#531=VECTOR('',#965,1.);
#532=EDGE_LOOP('',(#76,#77,#78));
#533=EDGE_LOOP('',(#79,#80,#81,#82,#83,#84,#85,#86));
#534=EDGE_LOOP('',(#87,#88,#89));
#535=EDGE_LOOP('',(#90,#91,#92));
#536=EDGE_LOOP('',(#93));
#537=EDGE_LOOP('',(#94));
#538=EDGE_LOOP('',(#95));
#539=EDGE_LOOP('',(#96));
#540=EDGE_LOOP('',(#97));
#541=EDGE_LOOP('',(#98));
#542=EDGE_LOOP('',(#99));
#543=EDGE_LOOP('',(#100));
#544=EDGE_LOOP('',(#101,#102,#103,#104));
#545=EDGE_LOOP('',(#105,#106,#107,#108));
#546=EDGE_LOOP('',(#109,#110,#111,#112));
#547=EDGE_LOOP('',(#113,#114,#115,#116));
#548=EDGE_LOOP('',(#117,#118,#119,#120));
#549=EDGE_LOOP('',(#121,#122,#123,#124));
#550=EDGE_LOOP('',(#125,#126,#127,#128));
#551=EDGE_LOOP('',(#129,#130,#131,#132));
#552=EDGE_LOOP('',(#133,#134,#135,#136));
#553=EDGE_LOOP('',(#137));
#554=EDGE_LOOP('',(#138));
#555=EDGE_LOOP('',(#139));
#556=EDGE_LOOP('',(#140));
#557=EDGE_LOOP('',(#141));
#558=EDGE_LOOP('',(#142));
#559=EDGE_LOOP('',(#143,#144,#145,#146));
#560=EDGE_LOOP('',(#147));
#561=EDGE_LOOP('',(#148));
#562=EDGE_LOOP('',(#149,#150,#151,#152));
#563=EDGE_LOOP('',(#153,#154,#155,#156,#157,#158,#159,#160));
#564=EDGE_LOOP('',(#161));
#565=EDGE_LOOP('',(#162));
#566=EDGE_LOOP('',(#163));
#567=EDGE_LOOP('',(#164));
#568=EDGE_LOOP('',(#165,#166,#167,#168));
#569=EDGE_LOOP('',(#169,#170,#171,#172));
#570=EDGE_LOOP('',(#173,#174,#175,#176));
#571=EDGE_LOOP('',(#177,#178,#179,#180));
#572=EDGE_LOOP('',(#181,#182,#183));
#573=EDGE_LOOP('',(#184));
#574=EDGE_LOOP('',(#185,#186,#187,#188));
#575=EDGE_LOOP('',(#189));
#576=EDGE_LOOP('',(#190,#191,#192,#193));
#577=EDGE_LOOP('',(#194));
#578=EDGE_LOOP('',(#195,#196,#197,#198));
#579=EDGE_LOOP('',(#199));
#580=EDGE_LOOP('',(#200,#201,#202,#203));
#581=EDGE_LOOP('',(#204,#205,#206,#207));
#582=EDGE_LOOP('',(#208,#209,#210,#211,#212,#213,#214,#215));
#583=EDGE_LOOP('',(#216,#217,#218,#219));
#584=EDGE_LOOP('',(#220,#221,#222));
#585=EDGE_LOOP('',(#223,#224,#225,#226,#227,#228,#229,#230));
#586=EDGE_LOOP('',(#231,#232,#233,#234));
#587=EDGE_LOOP('',(#235,#236,#237));
#588=EDGE_LOOP('',(#238,#239,#240,#241,#242,#243,#244,#245));
#589=EDGE_LOOP('',(#246,#247,#248,#249));
#590=EDGE_LOOP('',(#250,#251,#252));
#591=EDGE_LOOP('',(#253,#254,#255,#256,#257,#258,#259,#260));
#592=EDGE_LOOP('',(#261,#262,#263));
#593=EDGE_LOOP('',(#264,#265,#266,#267));
#594=FACE_BOUND('',#532,.T.);
#595=FACE_BOUND('',#533,.T.);
#596=FACE_BOUND('',#534,.T.);
#597=FACE_BOUND('',#535,.T.);
#598=FACE_BOUND('',#536,.T.);
#599=FACE_BOUND('',#537,.T.);
#600=FACE_BOUND('',#538,.T.);
#601=FACE_BOUND('',#539,.T.);
#602=FACE_BOUND('',#540,.T.);
#603=FACE_BOUND('',#541,.T.);
#604=FACE_BOUND('',#542,.T.);
#605=FACE_BOUND('',#543,.T.);
#606=FACE_BOUND('',#544,.T.);
#607=FACE_BOUND('',#545,.T.);
#608=FACE_BOUND('',#546,.T.);
#609=FACE_BOUND('',#547,.T.);
#610=FACE_BOUND('',#548,.T.);
#611=FACE_BOUND('',#549,.T.);
#612=FACE_BOUND('',#550,.T.);
#613=FACE_BOUND('',#551,.T.);
#614=FACE_BOUND('',#552,.T.);
#615=FACE_BOUND('',#553,.T.);
#616=FACE_BOUND('',#554,.T.);
#617=FACE_BOUND('',#555,.T.);
#618=FACE_BOUND('',#556,.T.);
#619=FACE_BOUND('',#557,.T.);
#620=FACE_BOUND('',#558,.T.);
#621=FACE_BOUND('',#559,.T.);
#622=FACE_BOUND('',#560,.T.);
#623=FACE_BOUND('',#561,.T.);
#624=FACE_BOUND('',#562,.T.);
#625=FACE_BOUND('',#563,.T.);
#626=FACE_BOUND('',#564,.T.);
#627=FACE_BOUND('',#565,.T.);
#628=FACE_BOUND('',#566,.T.);
#629=FACE_BOUND('',#567,.T.);
#630=FACE_BOUND('',#568,.T.);
#631=FACE_BOUND('',#569,.T.);
#632=FACE_BOUND('',#570,.T.);
#633=FACE_BOUND('',#571,.T.);
#634=FACE_BOUND('',#572,.T.);
#635=FACE_BOUND('',#573,.T.);
#636=FACE_BOUND('',#574,.T.);
#637=FACE_BOUND('',#575,.T.);
#638=FACE_BOUND('',#576,.T.);
#639=FACE_BOUND('',#577,.T.);
#640=FACE_BOUND('',#578,.T.);
#641=FACE_BOUND('',#579,.T.);
#642=FACE_BOUND('',#580,.T.);
#643=FACE_BOUND('',#581,.T.);
#644=FACE_BOUND('',#582,.T.);
#645=FACE_BOUND('',#583,.T.);
#646=FACE_BOUND('',#584,.T.);
#647=FACE_BOUND('',#585,.T.);
#648=FACE_BOUND('',#586,.T.);
#649=FACE_BOUND('',#587,.T.);
#650=FACE_BOUND('',#588,.T.);
#651=FACE_BOUND('',#589,.T.);
#652=FACE_BOUND('',#590,.T.);
#653=FACE_BOUND('',#591,.T.);
#654=FACE_BOUND('',#592,.T.);
#655=FACE_BOUND('',#593,.T.);
#656=PLANE('',#735);
#657=PLANE('',#737);
#658=PLANE('',#742);
#659=PLANE('',#744);
#660=PLANE('',#746);
#661=PLANE('',#749);
#662=PLANE('',#752);
#663=PLANE('',#755);
#664=PLANE('',#758);
#665=PLANE('',#759);
#666=PLANE('',#760);
#667=PLANE('',#761);
#668=PLANE('',#762);
#669=PLANE('',#763);
#670=PLANE('',#764);
#671=PLANE('',#771);
#672=PLANE('',#774);
#673=PLANE('',#779);
#674=PLANE('',#780);
#675=PLANE('',#781);
#676=PLANE('',#782);
#677=PLANE('',#783);
#678=PLANE('',#789);
#679=ADVANCED_FACE('',(#594),#656,.F.);
#680=ADVANCED_FACE('',(#595),#657,.F.);
#681=ADVANCED_FACE('',(#596),#658,.F.);
#682=ADVANCED_FACE('',(#597),#659,.F.);
#683=ADVANCED_FACE('',(#598,#599),#660,.F.);
#684=ADVANCED_FACE('',(#600,#601),#661,.F.);
#685=ADVANCED_FACE('',(#602,#603),#662,.F.);
#686=ADVANCED_FACE('',(#604,#605),#663,.F.);
#687=ADVANCED_FACE('',(#606,#607),#664,.F.);
#688=ADVANCED_FACE('',(#608,#609),#665,.T.);
#689=ADVANCED_FACE('',(#610),#666,.T.);
#690=ADVANCED_FACE('',(#611),#667,.F.);
#691=ADVANCED_FACE('',(#612),#668,.F.);
#692=ADVANCED_FACE('',(#613),#669,.T.);
#693=ADVANCED_FACE('',(#614),#670,.F.);
#694=ADVANCED_FACE('',(#615,#616),#24,.F.);
#695=ADVANCED_FACE('',(#617,#618),#25,.F.);
#696=ADVANCED_FACE('',(#619,#620),#26,.F.);
#697=ADVANCED_FACE('',(#621),#671,.T.);
#698=ADVANCED_FACE('',(#622,#623),#27,.F.);
#699=ADVANCED_FACE('',(#624,#625,#626,#627,#628,#629),#672,.T.);
#700=ADVANCED_FACE('',(#630),#673,.T.);
#701=ADVANCED_FACE('',(#631),#674,.F.);
#702=ADVANCED_FACE('',(#632),#675,.F.);
#703=ADVANCED_FACE('',(#633),#676,.T.);
#704=ADVANCED_FACE('',(#634),#677,.F.);
#705=ADVANCED_FACE('',(#635,#636),#28,.F.);
#706=ADVANCED_FACE('',(#637,#638),#29,.F.);
#707=ADVANCED_FACE('',(#639,#640),#30,.F.);
#708=ADVANCED_FACE('',(#641,#642),#31,.F.);
#709=ADVANCED_FACE('',(#643),#678,.T.);
#710=ADVANCED_FACE('',(#644),#32,.T.);
#711=ADVANCED_FACE('',(#645),#33,.T.);
#712=ADVANCED_FACE('',(#646),#12,.T.);
#713=ADVANCED_FACE('',(#647),#34,.T.);
#714=ADVANCED_FACE('',(#648),#35,.T.);
#715=ADVANCED_FACE('',(#649),#13,.T.);
#716=ADVANCED_FACE('',(#650),#36,.T.);
#717=ADVANCED_FACE('',(#651),#37,.T.);
#718=ADVANCED_FACE('',(#652),#14,.T.);
#719=ADVANCED_FACE('',(#653),#38,.T.);
#720=ADVANCED_FACE('',(#654),#15,.T.);
#721=ADVANCED_FACE('',(#655),#39,.T.);
#722=CLOSED_SHELL('',(#679,#680,#681,#682,#683,#684,#685,#686,#687,#688,
#689,#690,#691,#692,#693,#694,#695,#696,#697,#698,#699,#700,#701,#702,#703,
#704,#705,#706,#707,#708,#709,#710,#711,#712,#713,#714,#715,#716,#717,#718,
#719,#720,#721));
#723=STYLED_ITEM('',(#724),#731);
#724=PRESENTATION_STYLE_ASSIGNMENT((#725));
#725=SURFACE_STYLE_USAGE(.BOTH.,#726);
#726=SURFACE_SIDE_STYLE('',(#727));
#727=SURFACE_STYLE_FILL_AREA(#728);
#728=FILL_AREA_STYLE('',(#729));
#729=FILL_AREA_STYLE_COLOUR('',#730);
#730=COLOUR_RGB('',0.615686274509804,0.811764705882353,0.929411764705882);
#731=MANIFOLD_SOLID_BREP('Part 1',#722);
#732=SHAPE_DEFINITION_REPRESENTATION(#1268,#733);
#733=SHAPE_REPRESENTATION('Part 1',(#734),#1263);
#734=AXIS2_PLACEMENT_3D('',#1026,#814,#815);
#735=AXIS2_PLACEMENT_3D('',#1027,#816,#817);
#736=AXIS2_PLACEMENT_3D('',#1033,#820,#821);
#737=AXIS2_PLACEMENT_3D('',#1034,#822,#823);
#738=AXIS2_PLACEMENT_3D('',#1035,#824,#825);
#739=AXIS2_PLACEMENT_3D('',#1040,#827,#828);
#740=AXIS2_PLACEMENT_3D('',#1044,#830,#831);
#741=AXIS2_PLACEMENT_3D('',#1048,#833,#834);
#742=AXIS2_PLACEMENT_3D('',#1051,#836,#837);
#743=AXIS2_PLACEMENT_3D('',#1052,#838,#839);
#744=AXIS2_PLACEMENT_3D('',#1058,#842,#843);
#745=AXIS2_PLACEMENT_3D('',#1064,#846,#847);
#746=AXIS2_PLACEMENT_3D('',#1065,#848,#849);
#747=AXIS2_PLACEMENT_3D('',#1066,#850,#851);
#748=AXIS2_PLACEMENT_3D('',#1068,#852,#853);
#749=AXIS2_PLACEMENT_3D('',#1070,#854,#855);
#750=AXIS2_PLACEMENT_3D('',#1071,#856,#857);
#751=AXIS2_PLACEMENT_3D('',#1073,#858,#859);
#752=AXIS2_PLACEMENT_3D('',#1075,#860,#861);
#753=AXIS2_PLACEMENT_3D('',#1076,#862,#863);
#754=AXIS2_PLACEMENT_3D('',#1078,#864,#865);
#755=AXIS2_PLACEMENT_3D('',#1080,#866,#867);
#756=AXIS2_PLACEMENT_3D('',#1081,#868,#869);
#757=AXIS2_PLACEMENT_3D('',#1083,#870,#871);
#758=AXIS2_PLACEMENT_3D('',#1085,#872,#873);
#759=AXIS2_PLACEMENT_3D('',#1102,#882,#883);
#760=AXIS2_PLACEMENT_3D('',#1119,#892,#893);
#761=AXIS2_PLACEMENT_3D('',#1128,#898,#899);
#762=AXIS2_PLACEMENT_3D('',#1137,#904,#905);
#763=AXIS2_PLACEMENT_3D('',#1146,#910,#911);
#764=AXIS2_PLACEMENT_3D('',#1152,#915,#916);
#765=AXIS2_PLACEMENT_3D('',#1158,#920,#921);
#766=AXIS2_PLACEMENT_3D('',#1159,#922,#923);
#767=AXIS2_PLACEMENT_3D('',#1161,#924,#925);
#768=AXIS2_PLACEMENT_3D('',#1162,#926,#927);
#769=AXIS2_PLACEMENT_3D('',#1164,#928,#929);
#770=AXIS2_PLACEMENT_3D('',#1165,#930,#931);
#771=AXIS2_PLACEMENT_3D('',#1167,#932,#933);
#772=AXIS2_PLACEMENT_3D('',#1170,#936,#937);
#773=AXIS2_PLACEMENT_3D('',#1171,#938,#939);
#774=AXIS2_PLACEMENT_3D('',#1173,#940,#941);
#775=AXIS2_PLACEMENT_3D('',#1174,#942,#943);
#776=AXIS2_PLACEMENT_3D('',#1175,#944,#945);
#777=AXIS2_PLACEMENT_3D('',#1176,#946,#947);
#778=AXIS2_PLACEMENT_3D('',#1177,#948,#949);
#779=AXIS2_PLACEMENT_3D('',#1178,#950,#951);
#780=AXIS2_PLACEMENT_3D('',#1181,#954,#955);
#781=AXIS2_PLACEMENT_3D('',#1183,#957,#958);
#782=AXIS2_PLACEMENT_3D('',#1185,#960,#961);
#783=AXIS2_PLACEMENT_3D('',#1186,#962,#963);
#784=AXIS2_PLACEMENT_3D('',#1192,#966,#967);
#785=AXIS2_PLACEMENT_3D('',#1193,#968,#969);
#786=AXIS2_PLACEMENT_3D('',#1204,#970,#971);
#787=AXIS2_PLACEMENT_3D('',#1215,#972,#973);
#788=AXIS2_PLACEMENT_3D('',#1226,#974,#975);
#789=AXIS2_PLACEMENT_3D('',#1237,#976,#977);
#790=AXIS2_PLACEMENT_3D('',#1238,#978,#979);
#791=AXIS2_PLACEMENT_3D('',#1239,#980,#981);
#792=AXIS2_PLACEMENT_3D('',#1240,#982,#983);
#793=AXIS2_PLACEMENT_3D('',#1241,#984,#985);
#794=AXIS2_PLACEMENT_3D('',#1242,#986,#987);
#795=AXIS2_PLACEMENT_3D('',#1243,#988,#989);
#796=AXIS2_PLACEMENT_3D('',#1244,#990,#991);
#797=AXIS2_PLACEMENT_3D('',#1245,#992,#993);
#798=AXIS2_PLACEMENT_3D('',#1246,#994,#995);
#799=AXIS2_PLACEMENT_3D('',#1247,#996,#997);
#800=AXIS2_PLACEMENT_3D('',#1248,#998,#999);
#801=AXIS2_PLACEMENT_3D('',#1249,#1000,#1001);
#802=AXIS2_PLACEMENT_3D('',#1250,#1002,#1003);
#803=AXIS2_PLACEMENT_3D('',#1251,#1004,#1005);
#804=AXIS2_PLACEMENT_3D('',#1252,#1006,#1007);
#805=AXIS2_PLACEMENT_3D('',#1253,#1008,#1009);
#806=AXIS2_PLACEMENT_3D('',#1254,#1010,#1011);
#807=AXIS2_PLACEMENT_3D('',#1255,#1012,#1013);
#808=AXIS2_PLACEMENT_3D('',#1256,#1014,#1015);
#809=AXIS2_PLACEMENT_3D('',#1257,#1016,#1017);
#810=AXIS2_PLACEMENT_3D('',#1258,#1018,#1019);
#811=AXIS2_PLACEMENT_3D('',#1259,#1020,#1021);
#812=AXIS2_PLACEMENT_3D('',#1260,#1022,#1023);
#813=AXIS2_PLACEMENT_3D('',#1261,#1024,#1025);
#814=DIRECTION('',(0.,0.,1.));
#815=DIRECTION('',(1.,0.,0.));
#816=DIRECTION('',(0.,0.,1.));
#817=DIRECTION('',(1.,0.,0.));
#818=DIRECTION('',(1.,0.,0.));
#819=DIRECTION('',(0.,1.,0.));
#820=DIRECTION('',(0.,0.,1.));
#821=DIRECTION('',(1.,0.,0.));
#822=DIRECTION('',(0.,0.,1.));
#823=DIRECTION('',(1.,0.,0.));
#824=DIRECTION('',(0.,0.,1.));
#825=DIRECTION('',(1.,0.,0.));
#826=DIRECTION('',(0.,1.,0.));
#827=DIRECTION('',(0.,0.,1.));
#828=DIRECTION('',(1.,0.,0.));
#829=DIRECTION('',(1.,0.,0.));
#830=DIRECTION('',(0.,0.,1.));
#831=DIRECTION('',(1.,0.,0.));
#832=DIRECTION('',(0.,1.,0.));
#833=DIRECTION('',(0.,0.,1.));
#834=DIRECTION('',(1.,0.,0.));
#835=DIRECTION('',(1.,0.,0.));
#836=DIRECTION('',(0.,0.,1.));
#837=DIRECTION('',(1.,0.,0.));
#838=DIRECTION('',(0.,0.,1.));
#839=DIRECTION('',(1.,0.,0.));
#840=DIRECTION('',(0.,1.,0.));
#841=DIRECTION('',(1.,0.,0.));
#842=DIRECTION('',(0.,0.,1.));
#843=DIRECTION('',(1.,0.,0.));
#844=DIRECTION('',(0.,1.,0.));
#845=DIRECTION('',(1.,0.,0.));
#846=DIRECTION('',(0.,0.,1.));
#847=DIRECTION('',(1.,0.,0.));
#848=DIRECTION('',(0.,0.,1.));
#849=DIRECTION('',(1.,0.,0.));
#850=DIRECTION('',(0.,0.,1.));
#851=DIRECTION('',(1.,0.,0.));
#852=DIRECTION('',(0.,0.,1.));
#853=DIRECTION('',(1.,0.,0.));
#854=DIRECTION('',(0.,0.,1.));
#855=DIRECTION('',(1.,0.,0.));
#856=DIRECTION('',(0.,0.,1.));
#857=DIRECTION('',(1.,0.,0.));
#858=DIRECTION('',(0.,0.,1.));
#859=DIRECTION('',(1.,0.,0.));
#860=DIRECTION('',(0.,0.,1.));
#861=DIRECTION('',(1.,0.,0.));
#862=DIRECTION('',(0.,0.,1.));
#863=DIRECTION('',(1.,0.,0.));
#864=DIRECTION('',(0.,0.,1.));
#865=DIRECTION('',(1.,0.,0.));
#866=DIRECTION('',(0.,0.,1.));
#867=DIRECTION('',(1.,0.,0.));
#868=DIRECTION('',(0.,0.,1.));
#869=DIRECTION('',(1.,0.,0.));
#870=DIRECTION('',(0.,0.,1.));
#871=DIRECTION('',(1.,0.,0.));
#872=DIRECTION('',(0.,1.,0.));
#873=DIRECTION('',(0.,0.,1.));
#874=DIRECTION('',(1.,0.,0.));
#875=DIRECTION('',(0.,0.,-1.));
#876=DIRECTION('',(1.,0.,0.));
#877=DIRECTION('',(0.,0.,-1.));
#878=DIRECTION('',(0.,0.,1.));
#879=DIRECTION('',(1.,0.,0.));
#880=DIRECTION('',(0.,0.,1.));
#881=DIRECTION('',(1.,0.,0.));
#882=DIRECTION('',(0.,1.,0.));
#883=DIRECTION('',(0.,0.,1.));
#884=DIRECTION('',(1.,0.,0.));
#885=DIRECTION('',(0.,0.,-1.));
#886=DIRECTION('',(1.,0.,0.));
#887=DIRECTION('',(0.,0.,-1.));
#888=DIRECTION('',(1.,0.,0.));
#889=DIRECTION('',(0.,0.,1.));
#890=DIRECTION('',(1.,0.,0.));
#891=DIRECTION('',(0.,0.,1.));
#892=DIRECTION('',(-1.,0.,0.));
#893=DIRECTION('',(0.,0.,1.));
#894=DIRECTION('',(0.,1.,0.));
#895=DIRECTION('',(0.,0.,-1.));
#896=DIRECTION('',(0.,1.,0.));
#897=DIRECTION('',(0.,0.,-1.));
#898=DIRECTION('',(0.,1.,0.));
#899=DIRECTION('',(0.,0.,1.));
#900=DIRECTION('',(1.,0.,0.));
#901=DIRECTION('',(0.,0.,-1.));
#902=DIRECTION('',(1.,0.,0.));
#903=DIRECTION('',(0.,0.,-1.));
#904=DIRECTION('',(-1.,0.,0.));
#905=DIRECTION('',(0.,0.,1.));
#906=DIRECTION('',(0.,1.,0.));
#907=DIRECTION('',(0.,0.,-1.));
#908=DIRECTION('',(0.,1.,0.));
#909=DIRECTION('',(0.,0.,-1.));
#910=DIRECTION('',(1.,-1.92213127532056E-16,0.));
#911=DIRECTION('',(1.92213127532056E-16,1.,0.));
#912=DIRECTION('',(-1.92213127532056E-16,-1.,0.));
#913=DIRECTION('',(-1.92213127532056E-16,-1.,0.));
#914=DIRECTION('',(0.,0.,-1.));
#915=DIRECTION('',(1.,-1.92213127532056E-16,0.));
#916=DIRECTION('',(1.92213127532056E-16,1.,0.));
#917=DIRECTION('',(-1.92213127532056E-16,-1.,0.));
#918=DIRECTION('',(0.,0.,-1.));
#919=DIRECTION('',(-1.92213127532056E-16,-1.,0.));
#920=DIRECTION('',(0.,0.,-1.));
#921=DIRECTION('',(-1.,0.,0.));
#922=DIRECTION('',(0.,0.,1.));
#923=DIRECTION('',(1.,0.,0.));
#924=DIRECTION('',(0.,0.,-1.));
#925=DIRECTION('',(-1.,0.,0.));
#926=DIRECTION('',(0.,0.,1.));
#927=DIRECTION('',(1.,0.,0.));
#928=DIRECTION('',(0.,0.,-1.));
#929=DIRECTION('',(-1.,0.,0.));
#930=DIRECTION('',(0.,0.,1.));
#931=DIRECTION('',(1.,0.,0.));
#932=DIRECTION('',(0.,1.,0.));
#933=DIRECTION('',(0.,0.,1.));
#934=DIRECTION('',(1.,0.,0.));
#935=DIRECTION('',(1.,0.,0.));
#936=DIRECTION('',(0.,0.,-1.));
#937=DIRECTION('',(-1.,0.,0.));
#938=DIRECTION('',(0.,0.,1.));
#939=DIRECTION('',(1.,0.,0.));
#940=DIRECTION('',(0.,0.,1.));
#941=DIRECTION('',(1.,0.,0.));
#942=DIRECTION('',(0.,0.,1.));
#943=DIRECTION('',(1.,0.,0.));
#944=DIRECTION('',(0.,0.,1.));
#945=DIRECTION('',(1.,0.,0.));
#946=DIRECTION('',(0.,0.,1.));
#947=DIRECTION('',(1.,0.,0.));
#948=DIRECTION('',(0.,0.,1.));
#949=DIRECTION('',(1.,0.,0.));
#950=DIRECTION('',(-1.,0.,0.));
#951=DIRECTION('',(0.,0.,1.));
#952=DIRECTION('',(0.,-1.,0.));
#953=DIRECTION('',(0.,-1.,0.));
#954=DIRECTION('',(0.,0.,1.));
#955=DIRECTION('',(1.,0.,0.));
#956=DIRECTION('',(0.,-1.,0.));
#957=DIRECTION('',(-1.,0.,0.));
#958=DIRECTION('',(0.,0.,1.));
#959=DIRECTION('',(0.,-1.,0.));
#960=DIRECTION('',(0.,0.,1.));
#961=DIRECTION('',(1.,0.,0.));
#962=DIRECTION('',(0.,0.,1.));
#963=DIRECTION('',(1.,0.,0.));
#964=DIRECTION('',(1.,0.,0.));
#965=DIRECTION('',(0.,1.,0.));
#966=DIRECTION('',(0.,0.,1.));
#967=DIRECTION('',(1.,0.,0.));
#968=DIRECTION('',(0.,0.,-1.));
#969=DIRECTION('',(-1.,0.,0.));
#970=DIRECTION('',(0.,0.,-1.));
#971=DIRECTION('',(-1.,0.,0.));
#972=DIRECTION('',(0.,0.,-1.));
#973=DIRECTION('',(-1.,0.,0.));
#974=DIRECTION('',(0.,0.,-1.));
#975=DIRECTION('',(-1.,0.,0.));
#976=DIRECTION('',(0.,0.,1.));
#977=DIRECTION('',(1.,0.,0.));
#978=DIRECTION('',(1.,0.,0.));
#979=DIRECTION('',(0.,0.,-1.));
#980=DIRECTION('',(1.,0.,0.));
#981=DIRECTION('',(0.,0.,-1.));
#982=DIRECTION('',(1.,0.,0.));
#983=DIRECTION('',(0.,0.,-1.));
#984=DIRECTION('',(0.,0.,-1.));
#985=DIRECTION('',(-1.,0.,0.));
#986=DIRECTION('',(0.,0.,-1.));
#987=DIRECTION('',(-1.,0.,0.));
#988=DIRECTION('',(0.,-1.,0.));
#989=DIRECTION('',(0.,0.,-1.));
#990=DIRECTION('',(0.,-1.,0.));
#991=DIRECTION('',(0.,0.,-1.));
#992=DIRECTION('',(0.,1.,0.));
#993=DIRECTION('',(0.,0.,1.));
#994=DIRECTION('',(0.,1.,0.));
#995=DIRECTION('',(0.,0.,1.));
#996=DIRECTION('',(0.,0.,1.));
#997=DIRECTION('',(1.,0.,0.));
#998=DIRECTION('',(0.,0.,-1.));
#999=DIRECTION('',(-1.,0.,0.));
#1000=DIRECTION('',(1.,0.,0.));
#1001=DIRECTION('',(0.,0.,-1.));
#1002=DIRECTION('',(1.,0.,0.));
#1003=DIRECTION('',(0.,0.,-1.));
#1004=DIRECTION('',(-1.,0.,0.));
#1005=DIRECTION('',(0.,0.,1.));
#1006=DIRECTION('',(-1.,0.,0.));
#1007=DIRECTION('',(0.,0.,1.));
#1008=DIRECTION('',(0.,0.,-1.));
#1009=DIRECTION('',(-1.,0.,0.));
#1010=DIRECTION('',(0.,0.,-1.));
#1011=DIRECTION('',(-1.,0.,0.));
#1012=DIRECTION('',(0.,0.,1.));
#1013=DIRECTION('',(1.,0.,0.));
#1014=DIRECTION('',(0.,-1.,0.));
#1015=DIRECTION('',(0.,0.,-1.));
#1016=DIRECTION('',(0.,-1.,0.));
#1017=DIRECTION('',(0.,0.,-1.));
#1018=DIRECTION('',(0.,-1.,0.));
#1019=DIRECTION('',(0.,0.,-1.));
#1020=DIRECTION('',(-1.,0.,0.));
#1021=DIRECTION('',(0.,0.,1.));
#1022=DIRECTION('',(0.,0.,1.));
#1023=DIRECTION('',(1.,0.,0.));
#1024=DIRECTION('',(0.,0.,1.));
#1025=DIRECTION('',(1.,0.,0.));
#1026=CARTESIAN_POINT('',(0.,0.,0.));
#1027=CARTESIAN_POINT('',(0.,0.,0.));
#1028=CARTESIAN_POINT('',(0.,-0.0421,0.));
#1029=CARTESIAN_POINT('',(-0.03881078166916,-0.0421,0.));
#1030=CARTESIAN_POINT('',(-0.039675,-0.0421,0.));
#1031=CARTESIAN_POINT('',(-0.039675,0.0421,0.));
#1032=CARTESIAN_POINT('',(-0.039675,-0.0412357816691601,0.));
#1033=CARTESIAN_POINT('',(-0.037675,-0.0401,0.));
#1034=CARTESIAN_POINT('',(0.,0.,0.));
#1035=CARTESIAN_POINT('',(-0.037675,-0.0401,0.));
#1036=CARTESIAN_POINT('',(-0.03653921833084,-0.0421,0.));
#1037=CARTESIAN_POINT('',(-0.039675,-0.0389642183308399,0.));
#1038=CARTESIAN_POINT('',(-0.039675,0.0421,0.));
#1039=CARTESIAN_POINT('',(-0.039675,0.0389642183308399,0.));
#1040=CARTESIAN_POINT('',(-0.037675,0.0401,0.));
#1041=CARTESIAN_POINT('',(-0.03653921833084,0.0421,0.));
#1042=CARTESIAN_POINT('',(0.041675,0.0421,0.));
#1043=CARTESIAN_POINT('',(0.03653921833084,0.0421,0.));
#1044=CARTESIAN_POINT('',(0.037675,0.0401,0.));
#1045=CARTESIAN_POINT('',(0.039675,0.0389642183308399,0.));
#1046=CARTESIAN_POINT('',(0.039675,0.,0.));
#1047=CARTESIAN_POINT('',(0.039675,-0.0389642183308399,0.));
#1048=CARTESIAN_POINT('',(0.037675,-0.0401,0.));
#1049=CARTESIAN_POINT('',(0.03653921833084,-0.0421,0.));
#1050=CARTESIAN_POINT('',(0.,-0.0421,0.));
#1051=CARTESIAN_POINT('',(0.,0.,0.));
#1052=CARTESIAN_POINT('',(-0.037675,0.0401,0.));
#1053=CARTESIAN_POINT('',(-0.03881078166916,0.0421,0.));
#1054=CARTESIAN_POINT('',(-0.039675,0.0412357816691601,0.));
#1055=CARTESIAN_POINT('',(-0.039675,0.0421,0.));
#1056=CARTESIAN_POINT('',(-0.039675,0.0421,0.));
#1057=CARTESIAN_POINT('',(0.041675,0.0421,0.));
#1058=CARTESIAN_POINT('',(0.,0.,0.));
#1059=CARTESIAN_POINT('',(0.039675,0.,0.));
#1060=CARTESIAN_POINT('',(0.039675,-0.0412357816691601,0.));
#1061=CARTESIAN_POINT('',(0.039675,-0.0421,0.));
#1062=CARTESIAN_POINT('',(0.,-0.0421,0.));
#1063=CARTESIAN_POINT('',(0.03881078166916,-0.0421,0.));
#1064=CARTESIAN_POINT('',(0.037675,-0.0401,0.));
#1065=CARTESIAN_POINT('',(0.,0.,0.005));
#1066=CARTESIAN_POINT('',(0.037675,0.0401,0.005));
#1067=CARTESIAN_POINT('',(0.039375,0.0401,0.005));
#1068=CARTESIAN_POINT('',(0.037675,0.0401,0.005));
#1069=CARTESIAN_POINT('',(0.039975,0.0401,0.005));
#1070=CARTESIAN_POINT('',(0.,0.,0.005));
#1071=CARTESIAN_POINT('',(0.037675,-0.0401,0.005));
#1072=CARTESIAN_POINT('',(0.039375,-0.0401,0.005));
#1073=CARTESIAN_POINT('',(0.037675,-0.0401,0.005));
#1074=CARTESIAN_POINT('',(0.039975,-0.0401,0.005));
#1075=CARTESIAN_POINT('',(0.,0.,0.005));
#1076=CARTESIAN_POINT('',(-0.037675,0.0401,0.005));
#1077=CARTESIAN_POINT('',(-0.035975,0.0401,0.005));
#1078=CARTESIAN_POINT('',(-0.037675,0.0401,0.005));
#1079=CARTESIAN_POINT('',(-0.035375,0.0401,0.005));
#1080=CARTESIAN_POINT('',(0.,0.,0.005));
#1081=CARTESIAN_POINT('',(-0.037675,-0.0401,0.005));
#1082=CARTESIAN_POINT('',(-0.035975,-0.0401,0.005));
#1083=CARTESIAN_POINT('',(-0.037675,-0.0401,0.005));
#1084=CARTESIAN_POINT('',(-0.035375,-0.0401,0.005));
#1085=CARTESIAN_POINT('',(6.93889390390723E-18,0.0361,0.0145));
#1086=CARTESIAN_POINT('',(6.93889390390723E-18,0.0361,0.005));
#1087=CARTESIAN_POINT('',(-0.033675,0.0361,0.005));
#1088=CARTESIAN_POINT('',(0.033675,0.0361,0.005));
#1089=CARTESIAN_POINT('',(0.033675,0.0361,0.0145));
#1090=CARTESIAN_POINT('',(0.033675,0.0361,0.0145));
#1091=CARTESIAN_POINT('',(6.93889390390723E-18,0.0361,0.0145));
#1092=CARTESIAN_POINT('',(-0.033675,0.0361,0.0145));
#1093=CARTESIAN_POINT('',(-0.033675,0.0361,0.0145));
#1094=CARTESIAN_POINT('',(0.,0.0361,0.0145));
#1095=CARTESIAN_POINT('',(0.,0.0360999999999976,0.00572194159030914));
#1096=CARTESIAN_POINT('',(0.,0.0360999999999976,0.0117295319214463));
#1097=CARTESIAN_POINT('',(6.93889390390723E-18,0.0361,0.00572194159030914));
#1098=CARTESIAN_POINT('',(-0.0189901664853096,0.0361,0.00572194159030914));
#1099=CARTESIAN_POINT('',(-0.0189901664853096,0.0361,0.0145));
#1100=CARTESIAN_POINT('',(-0.0189901664853096,0.0360999999999976,0.0117295319214463));
#1101=CARTESIAN_POINT('',(6.93889390390723E-18,0.0361,0.0117295319214463));
#1102=CARTESIAN_POINT('',(0.,0.0441,0.0145));
#1103=CARTESIAN_POINT('',(-0.041675,0.0441,0.002));
#1104=CARTESIAN_POINT('',(0.039675,0.0441,0.002));
#1105=CARTESIAN_POINT('',(-0.039675,0.0441,0.002));
#1106=CARTESIAN_POINT('',(-0.039675,0.0441,0.0145));
#1107=CARTESIAN_POINT('',(-0.039675,0.0441,0.0145));
#1108=CARTESIAN_POINT('',(0.,0.0441,0.0145));
#1109=CARTESIAN_POINT('',(0.039675,0.0441,0.0145));
#1110=CARTESIAN_POINT('',(0.039675,0.0441,0.));
#1111=CARTESIAN_POINT('',(0.,0.0441,0.00572194159030914));
#1112=CARTESIAN_POINT('',(-0.0189901664853096,0.0441,0.00572194159030914));
#1113=CARTESIAN_POINT('',(0.,0.0441,0.00572194159030914));
#1114=CARTESIAN_POINT('',(0.,0.0441,0.0145));
#1115=CARTESIAN_POINT('',(0.,0.0441,0.0117295319214463));
#1116=CARTESIAN_POINT('',(0.,0.0441,0.0117295319214463));
#1117=CARTESIAN_POINT('',(-0.0189901664853096,0.0441,0.0117295319214463));
#1118=CARTESIAN_POINT('',(-0.0189901664853096,0.0441,0.0145));
#1119=CARTESIAN_POINT('',(-0.041675,0.,0.0145));
#1120=CARTESIAN_POINT('',(-0.041675,-0.0421,0.002));
#1121=CARTESIAN_POINT('',(-0.041675,0.0421,0.002));
#1122=CARTESIAN_POINT('',(-0.041675,-0.0421,0.002));
#1123=CARTESIAN_POINT('',(-0.041675,-0.0421,0.0145));
#1124=CARTESIAN_POINT('',(-0.041675,-0.0421,0.0145));
#1125=CARTESIAN_POINT('',(-0.041675,0.,0.0145));
#1126=CARTESIAN_POINT('',(-0.041675,0.0421,0.0145));
#1127=CARTESIAN_POINT('',(-0.041675,0.0421,0.0145));
#1128=CARTESIAN_POINT('',(0.,-0.0441,0.0145));
#1129=CARTESIAN_POINT('',(0.,-0.0441,0.0145));
#1130=CARTESIAN_POINT('',(-0.039675,-0.0441,0.0145));
#1131=CARTESIAN_POINT('',(0.039675,-0.0441,0.0145));
#1132=CARTESIAN_POINT('',(-0.039675,-0.0441,0.002));
#1133=CARTESIAN_POINT('',(-0.039675,-0.0441,0.002));
#1134=CARTESIAN_POINT('',(0.,-0.0441,0.002));
#1135=CARTESIAN_POINT('',(0.039675,-0.0441,0.002));
#1136=CARTESIAN_POINT('',(0.039675,-0.0441,0.0145));
#1137=CARTESIAN_POINT('',(0.041675,0.,0.0145));
#1138=CARTESIAN_POINT('',(0.041675,0.,0.0145));
#1139=CARTESIAN_POINT('',(0.041675,-0.0421,0.0145));
#1140=CARTESIAN_POINT('',(0.041675,0.0421,0.0145));
#1141=CARTESIAN_POINT('',(0.041675,-0.0421,0.0145));
#1142=CARTESIAN_POINT('',(0.041675,-0.0421,0.002));
#1143=CARTESIAN_POINT('',(0.041675,0.,0.002));
#1144=CARTESIAN_POINT('',(0.041675,0.0421,0.002));
#1145=CARTESIAN_POINT('',(0.041675,0.0421,0.0145));
#1146=CARTESIAN_POINT('',(-0.033675,-6.93889390390723E-18,0.0145));
#1147=CARTESIAN_POINT('',(-0.033675,-6.93889390390723E-18,0.005));
#1148=CARTESIAN_POINT('',(-0.033675,-0.0361,0.005));
#1149=CARTESIAN_POINT('',(-0.033675,-6.93889390390723E-18,0.0145));
#1150=CARTESIAN_POINT('',(-0.033675,-0.0361,0.0145));
#1151=CARTESIAN_POINT('',(-0.033675,-0.0361,0.0145));
#1152=CARTESIAN_POINT('',(0.033675,-6.93889390390723E-18,0.0145));
#1153=CARTESIAN_POINT('',(0.033675,-6.93889390390723E-18,0.005));
#1154=CARTESIAN_POINT('',(0.033675,-0.0361,0.005));
#1155=CARTESIAN_POINT('',(0.033675,-0.0361,0.0145));
#1156=CARTESIAN_POINT('',(0.033675,-0.0361,0.0145));
#1157=CARTESIAN_POINT('',(0.033675,-6.93889390390723E-18,0.0145));
#1158=CARTESIAN_POINT('',(0.037675,-0.0401,0.0145));
#1159=CARTESIAN_POINT('',(0.037675,-0.0401,0.0145));
#1160=CARTESIAN_POINT('',(0.039375,-0.0401,0.0145));
#1161=CARTESIAN_POINT('',(-0.037675,0.0401,0.0145));
#1162=CARTESIAN_POINT('',(-0.037675,0.0401,0.0145));
#1163=CARTESIAN_POINT('',(-0.035975,0.0401,0.0145));
#1164=CARTESIAN_POINT('',(-0.037675,-0.0401,0.0145));
#1165=CARTESIAN_POINT('',(-0.037675,-0.0401,0.0145));
#1166=CARTESIAN_POINT('',(-0.035975,-0.0401,0.0145));
#1167=CARTESIAN_POINT('',(0.,-0.0361,0.0145));
#1168=CARTESIAN_POINT('',(0.,-0.0361,0.005));
#1169=CARTESIAN_POINT('',(0.,-0.0361,0.0145));
#1170=CARTESIAN_POINT('',(0.037675,0.0401,0.0145));
#1171=CARTESIAN_POINT('',(0.037675,0.0401,0.0145));
#1172=CARTESIAN_POINT('',(0.039375,0.0401,0.0145));
#1173=CARTESIAN_POINT('',(0.,0.,0.0145));
#1174=CARTESIAN_POINT('',(-0.039675,-0.0421,0.0145));
#1175=CARTESIAN_POINT('',(0.039675,-0.0421,0.0145));
#1176=CARTESIAN_POINT('',(0.039675,0.0421,0.0145));
#1177=CARTESIAN_POINT('',(-0.039675,0.0421,0.0145));
#1178=CARTESIAN_POINT('',(0.,50.,0.00872573675587773));
#1179=CARTESIAN_POINT('',(0.,50.,0.0117295319214463));
#1180=CARTESIAN_POINT('',(0.,50.,0.00572194159030914));
#1181=CARTESIAN_POINT('',(-0.0094950832426548,50.,0.0117295319214463));
#1182=CARTESIAN_POINT('',(-0.0189901664853096,50.,0.0117295319214463));
#1183=CARTESIAN_POINT('',(-0.0189901664853096,50.,0.00872573675587773));
#1184=CARTESIAN_POINT('',(-0.0189901664853096,50.,0.00572194159030914));
#1185=CARTESIAN_POINT('',(-0.0094950832426548,50.,0.00572194159030914));
#1186=CARTESIAN_POINT('',(0.,0.,0.));
#1187=CARTESIAN_POINT('',(0.041675,0.0421,0.));
#1188=CARTESIAN_POINT('',(0.03881078166916,0.0421,0.));
#1189=CARTESIAN_POINT('',(0.039675,0.0421,0.));
#1190=CARTESIAN_POINT('',(0.039675,0.,0.));
#1191=CARTESIAN_POINT('',(0.039675,0.0412357816691601,0.));
#1192=CARTESIAN_POINT('',(0.037675,0.0401,0.));
#1193=CARTESIAN_POINT('',(-0.037675,-0.0401,0.005));
#1194=CARTESIAN_POINT('',(-0.039675,-0.0412357816691601,0.));
#1195=CARTESIAN_POINT('',(-0.0398725943432776,-0.0408878374319129,0.));
#1196=CARTESIAN_POINT('',(-0.0400774035470872,-0.0400991411740471,4.52560012806007E-5));
#1197=CARTESIAN_POINT('',(-0.0398725984035362,-0.0393121697178038,-1.25234899171284E-19));
#1198=CARTESIAN_POINT('',(-0.039675,-0.0389642183308399,-1.25234899171284E-19));
#1199=CARTESIAN_POINT('',(-0.03653921833084,-0.0421,0.));
#1200=CARTESIAN_POINT('',(-0.0368871625680871,-0.0422975943432776,0.));
#1201=CARTESIAN_POINT('',(-0.0376758588259529,-0.0425024035470872,4.5256001280601E-5));
#1202=CARTESIAN_POINT('',(-0.0384628302821962,-0.0422975984035362,-1.76904064050161E-19));
#1203=CARTESIAN_POINT('',(-0.03881078166916,-0.0421,-1.76904064050161E-19));
#1204=CARTESIAN_POINT('',(0.037675,0.0401,0.005));
#1205=CARTESIAN_POINT('',(0.039675,0.0412357816691601,0.));
#1206=CARTESIAN_POINT('',(0.0398725943432776,0.0408878374319129,0.));
#1207=CARTESIAN_POINT('',(0.0400774035470872,0.0400991411740471,4.52560012806007E-5));
#1208=CARTESIAN_POINT('',(0.0398725984035362,0.0393121697178038,-1.25234899171284E-19));
#1209=CARTESIAN_POINT('',(0.039675,0.0389642183308399,-1.25234899171284E-19));
#1210=CARTESIAN_POINT('',(0.03653921833084,0.0421,0.));
#1211=CARTESIAN_POINT('',(0.0368871625680871,0.0422975943432776,0.));
#1212=CARTESIAN_POINT('',(0.0376758588259529,0.0425024035470872,4.5256001280601E-5));
#1213=CARTESIAN_POINT('',(0.0384628302821962,0.0422975984035362,-1.76904064050161E-19));
#1214=CARTESIAN_POINT('',(0.03881078166916,0.0421,-1.76904064050161E-19));
#1215=CARTESIAN_POINT('',(0.037675,-0.0401,0.005));
#1216=CARTESIAN_POINT('',(0.03881078166916,-0.0421,0.));
#1217=CARTESIAN_POINT('',(0.0384628374319129,-0.0422975943432776,0.));
#1218=CARTESIAN_POINT('',(0.0376741411740471,-0.0425024035470872,4.5256001280601E-5));
#1219=CARTESIAN_POINT('',(0.0368871697178038,-0.0422975984035362,-1.76904064050161E-19));
#1220=CARTESIAN_POINT('',(0.03653921833084,-0.0421,-1.76904064050161E-19));
#1221=CARTESIAN_POINT('',(0.039675,-0.0389642183308399,0.));
#1222=CARTESIAN_POINT('',(0.0398725943432776,-0.0393121625680871,0.));
#1223=CARTESIAN_POINT('',(0.0400774035470872,-0.0401008588259529,4.52560012806007E-5));
#1224=CARTESIAN_POINT('',(0.0398725984035362,-0.0408878302821962,-1.25234899171284E-19));
#1225=CARTESIAN_POINT('',(0.039675,-0.0412357816691601,-1.25234899171284E-19));
#1226=CARTESIAN_POINT('',(-0.037675,0.0401,0.005));
#1227=CARTESIAN_POINT('',(-0.039675,0.03896421833084,0.));
#1228=CARTESIAN_POINT('',(-0.0398725943432776,0.0393121625680871,0.));
#1229=CARTESIAN_POINT('',(-0.0400774035470872,0.0401008588259529,4.52560012806023E-5));
#1230=CARTESIAN_POINT('',(-0.0398725984035362,0.0408878302821962,-3.86121202021973E-19));
#1231=CARTESIAN_POINT('',(-0.039675,0.0412357816691601,-3.86121202021974E-19));
#1232=CARTESIAN_POINT('',(-0.03881078166916,0.0421,0.));
#1233=CARTESIAN_POINT('',(-0.0384628374319129,0.0422975943432776,0.));
#1234=CARTESIAN_POINT('',(-0.0376741411740471,0.0425024035470872,4.52560012806023E-5));
#1235=CARTESIAN_POINT('',(-0.0368871697178038,0.0422975984035362,-3.86121202021973E-19));
#1236=CARTESIAN_POINT('',(-0.03653921833084,0.0421,-3.86121202021973E-19));
#1237=CARTESIAN_POINT('',(0.,0.,0.005));
#1238=CARTESIAN_POINT('',(0.,-0.0421,0.002));
#1239=CARTESIAN_POINT('',(-0.039675,-0.0421,0.002));
#1240=CARTESIAN_POINT('',(0.039675,-0.0421,0.002));
#1241=CARTESIAN_POINT('',(0.039675,-0.0421,0.0145));
#1242=CARTESIAN_POINT('',(0.039675,-0.0421,0.002));
#1243=CARTESIAN_POINT('',(0.039675,-0.0421,0.002));
#1244=CARTESIAN_POINT('',(0.039675,-0.0421,0.002));
#1245=CARTESIAN_POINT('',(0.039675,0.,0.002));
#1246=CARTESIAN_POINT('',(0.039675,0.0421,0.002));
#1247=CARTESIAN_POINT('',(0.039675,0.0421,0.0145));
#1248=CARTESIAN_POINT('',(0.039675,0.0421,0.002));
#1249=CARTESIAN_POINT('',(0.039675,0.0421,0.002));
#1250=CARTESIAN_POINT('',(0.039675,0.0421,0.002));
#1251=CARTESIAN_POINT('',(0.,0.0421,0.002));
#1252=CARTESIAN_POINT('',(-0.039675,0.0421,0.002));
#1253=CARTESIAN_POINT('',(-0.039675,0.0421,0.0145));
#1254=CARTESIAN_POINT('',(-0.039675,0.0421,0.002));
#1255=CARTESIAN_POINT('',(-0.039675,0.0421,0.002));
#1256=CARTESIAN_POINT('',(-0.039675,0.0421,0.002));
#1257=CARTESIAN_POINT('',(-0.039675,0.,0.002));
#1258=CARTESIAN_POINT('',(-0.039675,-0.0421,0.002));
#1259=CARTESIAN_POINT('',(-0.039675,-0.0421,0.002));
#1260=CARTESIAN_POINT('',(-0.039675,-0.0421,0.002));
#1261=CARTESIAN_POINT('',(-0.039675,-0.0421,0.0145));
#1262=MECHANICAL_DESIGN_GEOMETRIC_PRESENTATION_REPRESENTATION('',(#723),
#1263);
#1263=(
GEOMETRIC_REPRESENTATION_CONTEXT(3)
GLOBAL_UNCERTAINTY_ASSIGNED_CONTEXT((#1264))
GLOBAL_UNIT_ASSIGNED_CONTEXT((#1267,#1266,#1265))
REPRESENTATION_CONTEXT('Part 1','TOP_LEVEL_ASSEMBLY_PART')
);
#1264=UNCERTAINTY_MEASURE_WITH_UNIT(LENGTH_MEASURE(2.E-5),#1267,
'DISTANCE_ACCURACY_VALUE','Maximum Tolerance applied to model');
#1265=(
NAMED_UNIT(*)
SI_UNIT($,.STERADIAN.)
SOLID_ANGLE_UNIT()
);
#1266=(
NAMED_UNIT(*)
PLANE_ANGLE_UNIT()
SI_UNIT($,.RADIAN.)
);
#1267=(
LENGTH_UNIT()
NAMED_UNIT(*)
SI_UNIT($,.METRE.)
);
#1268=PRODUCT_DEFINITION_SHAPE('','',#1269);
#1269=PRODUCT_DEFINITION('','',#1271,#1270);
#1270=PRODUCT_DEFINITION_CONTEXT('',#1277,'design');
#1271=PRODUCT_DEFINITION_FORMATION_WITH_SPECIFIED_SOURCE('','',#1273,
 .NOT_KNOWN.);
#1272=PRODUCT_RELATED_PRODUCT_CATEGORY('','',(#1273));
#1273=PRODUCT('Part 1','Part 1','Part 1',(#1275));
#1274=PRODUCT_CATEGORY('','');
#1275=PRODUCT_CONTEXT('',#1277,'mechanical');
#1276=APPLICATION_PROTOCOL_DEFINITION('international standard',
'ap242_managed_model_based_3d_engineering',2020,#1277);
#1277=APPLICATION_CONTEXT('managed model based 3d engineering');
ENDSEC;
END-ISO-10303-21;
