M48
; DRILL file KiCad 10.0.6 date 2026-10-06T18:23:06
; FORMAT={-:-/ absolute / metric / decimal}
; #@! TF.CreationDate,2026-10-06T18:23:06-06:00
; #@! TF.GenerationSoftware,Kicad,Pcbnew,10.0.6
; #@! TF.FileFunction,Plated,1,2,PTH
FMAT,2
METRIC
; #@! TA.AperFunction,Plated,PTH,ViaDrill
T1C0.300
; #@! TA.AperFunction,Plated,PTH,ComponentDrill
T2C1.000
; #@! TA.AperFunction,Plated,PTH,ComponentDrill
T3C1.500
%
G90
G05
T1
X58.2Y-90.12
X62.3Y-104.4
X67.65Y-87.2
X75.0Y-106.94
T2
X42.95Y-79.96
X42.95Y-82.5
X42.95Y-85.04
X42.95Y-87.58
X42.95Y-90.12
X42.95Y-92.66
X42.95Y-95.2
X58.2Y-79.96
X58.2Y-82.5
X58.2Y-85.04
X58.2Y-87.58
X58.2Y-90.12
X58.2Y-92.66
X58.2Y-95.2
X67.65Y-87.2
X67.65Y-92.2
X82.15Y-87.2
X82.15Y-89.7
X82.15Y-92.2
T3
X36.9Y-106.94
X36.9Y-125.99
X43.25Y-104.4
X43.25Y-123.45
X55.95Y-106.94
X55.95Y-125.99
X62.3Y-104.4
X62.3Y-123.45
X75.0Y-106.94
X75.0Y-125.99
X81.35Y-104.4
X81.35Y-123.45
T3
G00X75.3Y-84.1
M15
G01X74.0Y-84.1
M16
G05
G00X75.3Y-95.3
M15
G01X74.0Y-95.3
M16
G05
M30
