%TF.GenerationSoftware,KiCad,Pcbnew,10.0.6*%
%TF.CreationDate,2026-10-06T18:22:55-06:00*%
%TF.ProjectId,Hackpad,4861636b-7061-4642-9e6b-696361645f70,rev?*%
%TF.SameCoordinates,Original*%
%TF.FileFunction,Legend,Top*%
%TF.FilePolarity,Positive*%
%FSLAX46Y46*%
G04 Gerber Fmt 4.6, Leading zero omitted, Abs format (unit mm)*
G04 Created by KiCad (PCBNEW 10.0.6) date 2026-10-06 18:22:55*
%MOMM*%
%LPD*%
G01*
G04 APERTURE LIST*
%ADD10C,0.100000*%
%ADD11C,0.101600*%
%ADD12C,0.150000*%
%ADD13C,0.300000*%
%ADD14C,0.127000*%
%ADD15C,0.120000*%
%ADD16C,0.254000*%
%ADD17C,0.025400*%
%ADD18C,0.000000*%
G04 APERTURE END LIST*
D10*
X63351503Y-96730150D02*
X64684836Y-96730150D01*
X64684836Y-96730150D02*
X63351503Y-98730150D01*
X63351503Y-98730150D02*
X64684836Y-98730150D01*
X65827693Y-96730150D02*
X66208646Y-96730150D01*
X66208646Y-96730150D02*
X66399122Y-96825388D01*
X66399122Y-96825388D02*
X66589598Y-97015864D01*
X66589598Y-97015864D02*
X66684836Y-97396816D01*
X66684836Y-97396816D02*
X66684836Y-98063483D01*
X66684836Y-98063483D02*
X66589598Y-98444435D01*
X66589598Y-98444435D02*
X66399122Y-98634912D01*
X66399122Y-98634912D02*
X66208646Y-98730150D01*
X66208646Y-98730150D02*
X65827693Y-98730150D01*
X65827693Y-98730150D02*
X65637217Y-98634912D01*
X65637217Y-98634912D02*
X65446741Y-98444435D01*
X65446741Y-98444435D02*
X65351503Y-98063483D01*
X65351503Y-98063483D02*
X65351503Y-97396816D01*
X65351503Y-97396816D02*
X65446741Y-97015864D01*
X65446741Y-97015864D02*
X65637217Y-96825388D01*
X65637217Y-96825388D02*
X65827693Y-96730150D01*
X67446741Y-98158721D02*
X68399122Y-98158721D01*
X67256265Y-98730150D02*
X67922931Y-96730150D01*
X67922931Y-96730150D02*
X68589598Y-98730150D01*
X68970551Y-96730150D02*
X70113408Y-96730150D01*
X69541979Y-98730150D02*
X69541979Y-96730150D01*
X71446742Y-97682531D02*
X71732456Y-97777769D01*
X71732456Y-97777769D02*
X71827694Y-97873007D01*
X71827694Y-97873007D02*
X71922932Y-98063483D01*
X71922932Y-98063483D02*
X71922932Y-98349197D01*
X71922932Y-98349197D02*
X71827694Y-98539673D01*
X71827694Y-98539673D02*
X71732456Y-98634912D01*
X71732456Y-98634912D02*
X71541980Y-98730150D01*
X71541980Y-98730150D02*
X70780075Y-98730150D01*
X70780075Y-98730150D02*
X70780075Y-96730150D01*
X70780075Y-96730150D02*
X71446742Y-96730150D01*
X71446742Y-96730150D02*
X71637218Y-96825388D01*
X71637218Y-96825388D02*
X71732456Y-96920626D01*
X71732456Y-96920626D02*
X71827694Y-97111102D01*
X71827694Y-97111102D02*
X71827694Y-97301578D01*
X71827694Y-97301578D02*
X71732456Y-97492054D01*
X71732456Y-97492054D02*
X71637218Y-97587292D01*
X71637218Y-97587292D02*
X71446742Y-97682531D01*
X71446742Y-97682531D02*
X70780075Y-97682531D01*
X73161027Y-96730150D02*
X73541980Y-96730150D01*
X73541980Y-96730150D02*
X73732456Y-96825388D01*
X73732456Y-96825388D02*
X73922932Y-97015864D01*
X73922932Y-97015864D02*
X74018170Y-97396816D01*
X74018170Y-97396816D02*
X74018170Y-98063483D01*
X74018170Y-98063483D02*
X73922932Y-98444435D01*
X73922932Y-98444435D02*
X73732456Y-98634912D01*
X73732456Y-98634912D02*
X73541980Y-98730150D01*
X73541980Y-98730150D02*
X73161027Y-98730150D01*
X73161027Y-98730150D02*
X72970551Y-98634912D01*
X72970551Y-98634912D02*
X72780075Y-98444435D01*
X72780075Y-98444435D02*
X72684837Y-98063483D01*
X72684837Y-98063483D02*
X72684837Y-97396816D01*
X72684837Y-97396816D02*
X72780075Y-97015864D01*
X72780075Y-97015864D02*
X72970551Y-96825388D01*
X72970551Y-96825388D02*
X73161027Y-96730150D01*
X74780075Y-98158721D02*
X75732456Y-98158721D01*
X74589599Y-98730150D02*
X75256265Y-96730150D01*
X75256265Y-96730150D02*
X75922932Y-98730150D01*
X76303885Y-96730150D02*
X77446742Y-96730150D01*
X76875313Y-98730150D02*
X76875313Y-96730150D01*
X79446743Y-97396816D02*
X80494362Y-97396816D01*
X80494362Y-97396816D02*
X79446743Y-98730150D01*
X79446743Y-98730150D02*
X80494362Y-98730150D01*
X81541981Y-98730150D02*
X81351505Y-98634912D01*
X81351505Y-98634912D02*
X81256267Y-98539673D01*
X81256267Y-98539673D02*
X81161029Y-98349197D01*
X81161029Y-98349197D02*
X81161029Y-97777769D01*
X81161029Y-97777769D02*
X81256267Y-97587292D01*
X81256267Y-97587292D02*
X81351505Y-97492054D01*
X81351505Y-97492054D02*
X81541981Y-97396816D01*
X81541981Y-97396816D02*
X81827696Y-97396816D01*
X81827696Y-97396816D02*
X82018172Y-97492054D01*
X82018172Y-97492054D02*
X82113410Y-97587292D01*
X82113410Y-97587292D02*
X82208648Y-97777769D01*
X82208648Y-97777769D02*
X82208648Y-98349197D01*
X82208648Y-98349197D02*
X82113410Y-98539673D01*
X82113410Y-98539673D02*
X82018172Y-98634912D01*
X82018172Y-98634912D02*
X81827696Y-98730150D01*
X81827696Y-98730150D02*
X81541981Y-98730150D01*
X83922934Y-98730150D02*
X83922934Y-97682531D01*
X83922934Y-97682531D02*
X83827696Y-97492054D01*
X83827696Y-97492054D02*
X83637220Y-97396816D01*
X83637220Y-97396816D02*
X83256267Y-97396816D01*
X83256267Y-97396816D02*
X83065791Y-97492054D01*
X83922934Y-98634912D02*
X83732458Y-98730150D01*
X83732458Y-98730150D02*
X83256267Y-98730150D01*
X83256267Y-98730150D02*
X83065791Y-98634912D01*
X83065791Y-98634912D02*
X82970553Y-98444435D01*
X82970553Y-98444435D02*
X82970553Y-98253959D01*
X82970553Y-98253959D02*
X83065791Y-98063483D01*
X83065791Y-98063483D02*
X83256267Y-97968245D01*
X83256267Y-97968245D02*
X83732458Y-97968245D01*
X83732458Y-97968245D02*
X83922934Y-97873007D01*
X84589601Y-97396816D02*
X85351505Y-97396816D01*
X84875315Y-96730150D02*
X84875315Y-98444435D01*
X84875315Y-98444435D02*
X84970553Y-98634912D01*
X84970553Y-98634912D02*
X85161029Y-98730150D01*
X85161029Y-98730150D02*
X85351505Y-98730150D01*
X87541982Y-98730150D02*
X87541982Y-97396816D01*
X87541982Y-96730150D02*
X87446744Y-96825388D01*
X87446744Y-96825388D02*
X87541982Y-96920626D01*
X87541982Y-96920626D02*
X87637220Y-96825388D01*
X87637220Y-96825388D02*
X87541982Y-96730150D01*
X87541982Y-96730150D02*
X87541982Y-96920626D01*
X88494363Y-97396816D02*
X88494363Y-98730150D01*
X88494363Y-97587292D02*
X88589601Y-97492054D01*
X88589601Y-97492054D02*
X88780077Y-97396816D01*
X88780077Y-97396816D02*
X89065792Y-97396816D01*
X89065792Y-97396816D02*
X89256268Y-97492054D01*
X89256268Y-97492054D02*
X89351506Y-97682531D01*
X89351506Y-97682531D02*
X89351506Y-98730150D01*
X63541979Y-101950038D02*
X63541979Y-99950038D01*
X64399122Y-101950038D02*
X64399122Y-100902419D01*
X64399122Y-100902419D02*
X64303884Y-100711942D01*
X64303884Y-100711942D02*
X64113408Y-100616704D01*
X64113408Y-100616704D02*
X63827693Y-100616704D01*
X63827693Y-100616704D02*
X63637217Y-100711942D01*
X63637217Y-100711942D02*
X63541979Y-100807180D01*
X65351503Y-101950038D02*
X65351503Y-100616704D01*
X65351503Y-99950038D02*
X65256265Y-100045276D01*
X65256265Y-100045276D02*
X65351503Y-100140514D01*
X65351503Y-100140514D02*
X65446741Y-100045276D01*
X65446741Y-100045276D02*
X65351503Y-99950038D01*
X65351503Y-99950038D02*
X65351503Y-100140514D01*
X66208646Y-101854800D02*
X66399122Y-101950038D01*
X66399122Y-101950038D02*
X66780074Y-101950038D01*
X66780074Y-101950038D02*
X66970551Y-101854800D01*
X66970551Y-101854800D02*
X67065789Y-101664323D01*
X67065789Y-101664323D02*
X67065789Y-101569085D01*
X67065789Y-101569085D02*
X66970551Y-101378609D01*
X66970551Y-101378609D02*
X66780074Y-101283371D01*
X66780074Y-101283371D02*
X66494360Y-101283371D01*
X66494360Y-101283371D02*
X66303884Y-101188133D01*
X66303884Y-101188133D02*
X66208646Y-100997657D01*
X66208646Y-100997657D02*
X66208646Y-100902419D01*
X66208646Y-100902419D02*
X66303884Y-100711942D01*
X66303884Y-100711942D02*
X66494360Y-100616704D01*
X66494360Y-100616704D02*
X66780074Y-100616704D01*
X66780074Y-100616704D02*
X66970551Y-100711942D01*
X69446742Y-101950038D02*
X69446742Y-99950038D01*
X69446742Y-100711942D02*
X69637218Y-100616704D01*
X69637218Y-100616704D02*
X70018171Y-100616704D01*
X70018171Y-100616704D02*
X70208647Y-100711942D01*
X70208647Y-100711942D02*
X70303885Y-100807180D01*
X70303885Y-100807180D02*
X70399123Y-100997657D01*
X70399123Y-100997657D02*
X70399123Y-101569085D01*
X70399123Y-101569085D02*
X70303885Y-101759561D01*
X70303885Y-101759561D02*
X70208647Y-101854800D01*
X70208647Y-101854800D02*
X70018171Y-101950038D01*
X70018171Y-101950038D02*
X69637218Y-101950038D01*
X69637218Y-101950038D02*
X69446742Y-101854800D01*
X71541980Y-101950038D02*
X71351504Y-101854800D01*
X71351504Y-101854800D02*
X71256266Y-101759561D01*
X71256266Y-101759561D02*
X71161028Y-101569085D01*
X71161028Y-101569085D02*
X71161028Y-100997657D01*
X71161028Y-100997657D02*
X71256266Y-100807180D01*
X71256266Y-100807180D02*
X71351504Y-100711942D01*
X71351504Y-100711942D02*
X71541980Y-100616704D01*
X71541980Y-100616704D02*
X71827695Y-100616704D01*
X71827695Y-100616704D02*
X72018171Y-100711942D01*
X72018171Y-100711942D02*
X72113409Y-100807180D01*
X72113409Y-100807180D02*
X72208647Y-100997657D01*
X72208647Y-100997657D02*
X72208647Y-101569085D01*
X72208647Y-101569085D02*
X72113409Y-101759561D01*
X72113409Y-101759561D02*
X72018171Y-101854800D01*
X72018171Y-101854800D02*
X71827695Y-101950038D01*
X71827695Y-101950038D02*
X71541980Y-101950038D01*
X73922933Y-101950038D02*
X73922933Y-100902419D01*
X73922933Y-100902419D02*
X73827695Y-100711942D01*
X73827695Y-100711942D02*
X73637219Y-100616704D01*
X73637219Y-100616704D02*
X73256266Y-100616704D01*
X73256266Y-100616704D02*
X73065790Y-100711942D01*
X73922933Y-101854800D02*
X73732457Y-101950038D01*
X73732457Y-101950038D02*
X73256266Y-101950038D01*
X73256266Y-101950038D02*
X73065790Y-101854800D01*
X73065790Y-101854800D02*
X72970552Y-101664323D01*
X72970552Y-101664323D02*
X72970552Y-101473847D01*
X72970552Y-101473847D02*
X73065790Y-101283371D01*
X73065790Y-101283371D02*
X73256266Y-101188133D01*
X73256266Y-101188133D02*
X73732457Y-101188133D01*
X73732457Y-101188133D02*
X73922933Y-101092895D01*
X74589600Y-100616704D02*
X75351504Y-100616704D01*
X74875314Y-99950038D02*
X74875314Y-101664323D01*
X74875314Y-101664323D02*
X74970552Y-101854800D01*
X74970552Y-101854800D02*
X75161028Y-101950038D01*
X75161028Y-101950038D02*
X75351504Y-101950038D01*
D11*
X49397666Y-89636985D02*
X49397666Y-90356652D01*
X49397666Y-90356652D02*
X49440000Y-90441318D01*
X49440000Y-90441318D02*
X49482333Y-90483652D01*
X49482333Y-90483652D02*
X49567000Y-90525985D01*
X49567000Y-90525985D02*
X49736333Y-90525985D01*
X49736333Y-90525985D02*
X49821000Y-90483652D01*
X49821000Y-90483652D02*
X49863333Y-90441318D01*
X49863333Y-90441318D02*
X49905666Y-90356652D01*
X49905666Y-90356652D02*
X49905666Y-89636985D01*
X50794666Y-90525985D02*
X50286666Y-90525985D01*
X50540666Y-90525985D02*
X50540666Y-89636985D01*
X50540666Y-89636985D02*
X50455999Y-89763985D01*
X50455999Y-89763985D02*
X50371333Y-89848652D01*
X50371333Y-89848652D02*
X50286666Y-89890985D01*
D12*
X45313095Y-86487200D02*
X45455952Y-86534819D01*
X45455952Y-86534819D02*
X45694047Y-86534819D01*
X45694047Y-86534819D02*
X45789285Y-86487200D01*
X45789285Y-86487200D02*
X45836904Y-86439580D01*
X45836904Y-86439580D02*
X45884523Y-86344342D01*
X45884523Y-86344342D02*
X45884523Y-86249104D01*
X45884523Y-86249104D02*
X45836904Y-86153866D01*
X45836904Y-86153866D02*
X45789285Y-86106247D01*
X45789285Y-86106247D02*
X45694047Y-86058628D01*
X45694047Y-86058628D02*
X45503571Y-86011009D01*
X45503571Y-86011009D02*
X45408333Y-85963390D01*
X45408333Y-85963390D02*
X45360714Y-85915771D01*
X45360714Y-85915771D02*
X45313095Y-85820533D01*
X45313095Y-85820533D02*
X45313095Y-85725295D01*
X45313095Y-85725295D02*
X45360714Y-85630057D01*
X45360714Y-85630057D02*
X45408333Y-85582438D01*
X45408333Y-85582438D02*
X45503571Y-85534819D01*
X45503571Y-85534819D02*
X45741666Y-85534819D01*
X45741666Y-85534819D02*
X45884523Y-85582438D01*
X46694047Y-86487200D02*
X46598809Y-86534819D01*
X46598809Y-86534819D02*
X46408333Y-86534819D01*
X46408333Y-86534819D02*
X46313095Y-86487200D01*
X46313095Y-86487200D02*
X46265476Y-86391961D01*
X46265476Y-86391961D02*
X46265476Y-86011009D01*
X46265476Y-86011009D02*
X46313095Y-85915771D01*
X46313095Y-85915771D02*
X46408333Y-85868152D01*
X46408333Y-85868152D02*
X46598809Y-85868152D01*
X46598809Y-85868152D02*
X46694047Y-85915771D01*
X46694047Y-85915771D02*
X46741666Y-86011009D01*
X46741666Y-86011009D02*
X46741666Y-86106247D01*
X46741666Y-86106247D02*
X46265476Y-86201485D01*
X47551190Y-86487200D02*
X47455952Y-86534819D01*
X47455952Y-86534819D02*
X47265476Y-86534819D01*
X47265476Y-86534819D02*
X47170238Y-86487200D01*
X47170238Y-86487200D02*
X47122619Y-86391961D01*
X47122619Y-86391961D02*
X47122619Y-86011009D01*
X47122619Y-86011009D02*
X47170238Y-85915771D01*
X47170238Y-85915771D02*
X47265476Y-85868152D01*
X47265476Y-85868152D02*
X47455952Y-85868152D01*
X47455952Y-85868152D02*
X47551190Y-85915771D01*
X47551190Y-85915771D02*
X47598809Y-86011009D01*
X47598809Y-86011009D02*
X47598809Y-86106247D01*
X47598809Y-86106247D02*
X47122619Y-86201485D01*
X48408333Y-86487200D02*
X48313095Y-86534819D01*
X48313095Y-86534819D02*
X48122619Y-86534819D01*
X48122619Y-86534819D02*
X48027381Y-86487200D01*
X48027381Y-86487200D02*
X47979762Y-86391961D01*
X47979762Y-86391961D02*
X47979762Y-86011009D01*
X47979762Y-86011009D02*
X48027381Y-85915771D01*
X48027381Y-85915771D02*
X48122619Y-85868152D01*
X48122619Y-85868152D02*
X48313095Y-85868152D01*
X48313095Y-85868152D02*
X48408333Y-85915771D01*
X48408333Y-85915771D02*
X48455952Y-86011009D01*
X48455952Y-86011009D02*
X48455952Y-86106247D01*
X48455952Y-86106247D02*
X47979762Y-86201485D01*
X49313095Y-86534819D02*
X49313095Y-85534819D01*
X49313095Y-86487200D02*
X49217857Y-86534819D01*
X49217857Y-86534819D02*
X49027381Y-86534819D01*
X49027381Y-86534819D02*
X48932143Y-86487200D01*
X48932143Y-86487200D02*
X48884524Y-86439580D01*
X48884524Y-86439580D02*
X48836905Y-86344342D01*
X48836905Y-86344342D02*
X48836905Y-86058628D01*
X48836905Y-86058628D02*
X48884524Y-85963390D01*
X48884524Y-85963390D02*
X48932143Y-85915771D01*
X48932143Y-85915771D02*
X49027381Y-85868152D01*
X49027381Y-85868152D02*
X49217857Y-85868152D01*
X49217857Y-85868152D02*
X49313095Y-85915771D01*
X50503572Y-86487200D02*
X50646429Y-86534819D01*
X50646429Y-86534819D02*
X50884524Y-86534819D01*
X50884524Y-86534819D02*
X50979762Y-86487200D01*
X50979762Y-86487200D02*
X51027381Y-86439580D01*
X51027381Y-86439580D02*
X51075000Y-86344342D01*
X51075000Y-86344342D02*
X51075000Y-86249104D01*
X51075000Y-86249104D02*
X51027381Y-86153866D01*
X51027381Y-86153866D02*
X50979762Y-86106247D01*
X50979762Y-86106247D02*
X50884524Y-86058628D01*
X50884524Y-86058628D02*
X50694048Y-86011009D01*
X50694048Y-86011009D02*
X50598810Y-85963390D01*
X50598810Y-85963390D02*
X50551191Y-85915771D01*
X50551191Y-85915771D02*
X50503572Y-85820533D01*
X50503572Y-85820533D02*
X50503572Y-85725295D01*
X50503572Y-85725295D02*
X50551191Y-85630057D01*
X50551191Y-85630057D02*
X50598810Y-85582438D01*
X50598810Y-85582438D02*
X50694048Y-85534819D01*
X50694048Y-85534819D02*
X50932143Y-85534819D01*
X50932143Y-85534819D02*
X51075000Y-85582438D01*
X51360715Y-85868152D02*
X51741667Y-85868152D01*
X51503572Y-85534819D02*
X51503572Y-86391961D01*
X51503572Y-86391961D02*
X51551191Y-86487200D01*
X51551191Y-86487200D02*
X51646429Y-86534819D01*
X51646429Y-86534819D02*
X51741667Y-86534819D01*
X52503572Y-85868152D02*
X52503572Y-86534819D01*
X52075001Y-85868152D02*
X52075001Y-86391961D01*
X52075001Y-86391961D02*
X52122620Y-86487200D01*
X52122620Y-86487200D02*
X52217858Y-86534819D01*
X52217858Y-86534819D02*
X52360715Y-86534819D01*
X52360715Y-86534819D02*
X52455953Y-86487200D01*
X52455953Y-86487200D02*
X52503572Y-86439580D01*
X53408334Y-86534819D02*
X53408334Y-85534819D01*
X53408334Y-86487200D02*
X53313096Y-86534819D01*
X53313096Y-86534819D02*
X53122620Y-86534819D01*
X53122620Y-86534819D02*
X53027382Y-86487200D01*
X53027382Y-86487200D02*
X52979763Y-86439580D01*
X52979763Y-86439580D02*
X52932144Y-86344342D01*
X52932144Y-86344342D02*
X52932144Y-86058628D01*
X52932144Y-86058628D02*
X52979763Y-85963390D01*
X52979763Y-85963390D02*
X53027382Y-85915771D01*
X53027382Y-85915771D02*
X53122620Y-85868152D01*
X53122620Y-85868152D02*
X53313096Y-85868152D01*
X53313096Y-85868152D02*
X53408334Y-85915771D01*
X53884525Y-86534819D02*
X53884525Y-85868152D01*
X53884525Y-85534819D02*
X53836906Y-85582438D01*
X53836906Y-85582438D02*
X53884525Y-85630057D01*
X53884525Y-85630057D02*
X53932144Y-85582438D01*
X53932144Y-85582438D02*
X53884525Y-85534819D01*
X53884525Y-85534819D02*
X53884525Y-85630057D01*
X54503572Y-86534819D02*
X54408334Y-86487200D01*
X54408334Y-86487200D02*
X54360715Y-86439580D01*
X54360715Y-86439580D02*
X54313096Y-86344342D01*
X54313096Y-86344342D02*
X54313096Y-86058628D01*
X54313096Y-86058628D02*
X54360715Y-85963390D01*
X54360715Y-85963390D02*
X54408334Y-85915771D01*
X54408334Y-85915771D02*
X54503572Y-85868152D01*
X54503572Y-85868152D02*
X54646429Y-85868152D01*
X54646429Y-85868152D02*
X54741667Y-85915771D01*
X54741667Y-85915771D02*
X54789286Y-85963390D01*
X54789286Y-85963390D02*
X54836905Y-86058628D01*
X54836905Y-86058628D02*
X54836905Y-86344342D01*
X54836905Y-86344342D02*
X54789286Y-86439580D01*
X54789286Y-86439580D02*
X54741667Y-86487200D01*
X54741667Y-86487200D02*
X54646429Y-86534819D01*
X54646429Y-86534819D02*
X54503572Y-86534819D01*
X48551191Y-87534819D02*
X49217857Y-88534819D01*
X49217857Y-87534819D02*
X48551191Y-88534819D01*
X49598810Y-88534819D02*
X49598810Y-87534819D01*
X50027381Y-88249104D02*
X50503571Y-88249104D01*
X49932143Y-88534819D02*
X50265476Y-87534819D01*
X50265476Y-87534819D02*
X50598809Y-88534819D01*
X51122619Y-87534819D02*
X51313095Y-87534819D01*
X51313095Y-87534819D02*
X51408333Y-87582438D01*
X51408333Y-87582438D02*
X51503571Y-87677676D01*
X51503571Y-87677676D02*
X51551190Y-87868152D01*
X51551190Y-87868152D02*
X51551190Y-88201485D01*
X51551190Y-88201485D02*
X51503571Y-88391961D01*
X51503571Y-88391961D02*
X51408333Y-88487200D01*
X51408333Y-88487200D02*
X51313095Y-88534819D01*
X51313095Y-88534819D02*
X51122619Y-88534819D01*
X51122619Y-88534819D02*
X51027381Y-88487200D01*
X51027381Y-88487200D02*
X50932143Y-88391961D01*
X50932143Y-88391961D02*
X50884524Y-88201485D01*
X50884524Y-88201485D02*
X50884524Y-87868152D01*
X50884524Y-87868152D02*
X50932143Y-87677676D01*
X50932143Y-87677676D02*
X51027381Y-87582438D01*
X51027381Y-87582438D02*
X51122619Y-87534819D01*
X58426667Y-102013200D02*
X58569524Y-102060819D01*
X58569524Y-102060819D02*
X58807619Y-102060819D01*
X58807619Y-102060819D02*
X58902857Y-102013200D01*
X58902857Y-102013200D02*
X58950476Y-101965580D01*
X58950476Y-101965580D02*
X58998095Y-101870342D01*
X58998095Y-101870342D02*
X58998095Y-101775104D01*
X58998095Y-101775104D02*
X58950476Y-101679866D01*
X58950476Y-101679866D02*
X58902857Y-101632247D01*
X58902857Y-101632247D02*
X58807619Y-101584628D01*
X58807619Y-101584628D02*
X58617143Y-101537009D01*
X58617143Y-101537009D02*
X58521905Y-101489390D01*
X58521905Y-101489390D02*
X58474286Y-101441771D01*
X58474286Y-101441771D02*
X58426667Y-101346533D01*
X58426667Y-101346533D02*
X58426667Y-101251295D01*
X58426667Y-101251295D02*
X58474286Y-101156057D01*
X58474286Y-101156057D02*
X58521905Y-101108438D01*
X58521905Y-101108438D02*
X58617143Y-101060819D01*
X58617143Y-101060819D02*
X58855238Y-101060819D01*
X58855238Y-101060819D02*
X58998095Y-101108438D01*
X59331429Y-101060819D02*
X59569524Y-102060819D01*
X59569524Y-102060819D02*
X59760000Y-101346533D01*
X59760000Y-101346533D02*
X59950476Y-102060819D01*
X59950476Y-102060819D02*
X60188572Y-101060819D01*
X60998095Y-101394152D02*
X60998095Y-102060819D01*
X60760000Y-101013200D02*
X60521905Y-101727485D01*
X60521905Y-101727485D02*
X61140952Y-101727485D01*
X78016667Y-91974670D02*
X78159524Y-92022289D01*
X78159524Y-92022289D02*
X78397619Y-92022289D01*
X78397619Y-92022289D02*
X78492857Y-91974670D01*
X78492857Y-91974670D02*
X78540476Y-91927050D01*
X78540476Y-91927050D02*
X78588095Y-91831812D01*
X78588095Y-91831812D02*
X78588095Y-91736574D01*
X78588095Y-91736574D02*
X78540476Y-91641336D01*
X78540476Y-91641336D02*
X78492857Y-91593717D01*
X78492857Y-91593717D02*
X78397619Y-91546098D01*
X78397619Y-91546098D02*
X78207143Y-91498479D01*
X78207143Y-91498479D02*
X78111905Y-91450860D01*
X78111905Y-91450860D02*
X78064286Y-91403241D01*
X78064286Y-91403241D02*
X78016667Y-91308003D01*
X78016667Y-91308003D02*
X78016667Y-91212765D01*
X78016667Y-91212765D02*
X78064286Y-91117527D01*
X78064286Y-91117527D02*
X78111905Y-91069908D01*
X78111905Y-91069908D02*
X78207143Y-91022289D01*
X78207143Y-91022289D02*
X78445238Y-91022289D01*
X78445238Y-91022289D02*
X78588095Y-91069908D01*
X78921429Y-91022289D02*
X79159524Y-92022289D01*
X79159524Y-92022289D02*
X79350000Y-91308003D01*
X79350000Y-91308003D02*
X79540476Y-92022289D01*
X79540476Y-92022289D02*
X79778572Y-91022289D01*
X80064286Y-91022289D02*
X80730952Y-91022289D01*
X80730952Y-91022289D02*
X80302381Y-92022289D01*
X58426667Y-121063200D02*
X58569524Y-121110819D01*
X58569524Y-121110819D02*
X58807619Y-121110819D01*
X58807619Y-121110819D02*
X58902857Y-121063200D01*
X58902857Y-121063200D02*
X58950476Y-121015580D01*
X58950476Y-121015580D02*
X58998095Y-120920342D01*
X58998095Y-120920342D02*
X58998095Y-120825104D01*
X58998095Y-120825104D02*
X58950476Y-120729866D01*
X58950476Y-120729866D02*
X58902857Y-120682247D01*
X58902857Y-120682247D02*
X58807619Y-120634628D01*
X58807619Y-120634628D02*
X58617143Y-120587009D01*
X58617143Y-120587009D02*
X58521905Y-120539390D01*
X58521905Y-120539390D02*
X58474286Y-120491771D01*
X58474286Y-120491771D02*
X58426667Y-120396533D01*
X58426667Y-120396533D02*
X58426667Y-120301295D01*
X58426667Y-120301295D02*
X58474286Y-120206057D01*
X58474286Y-120206057D02*
X58521905Y-120158438D01*
X58521905Y-120158438D02*
X58617143Y-120110819D01*
X58617143Y-120110819D02*
X58855238Y-120110819D01*
X58855238Y-120110819D02*
X58998095Y-120158438D01*
X59331429Y-120110819D02*
X59569524Y-121110819D01*
X59569524Y-121110819D02*
X59760000Y-120396533D01*
X59760000Y-120396533D02*
X59950476Y-121110819D01*
X59950476Y-121110819D02*
X60188572Y-120110819D01*
X60474286Y-120110819D02*
X61093333Y-120110819D01*
X61093333Y-120110819D02*
X60760000Y-120491771D01*
X60760000Y-120491771D02*
X60902857Y-120491771D01*
X60902857Y-120491771D02*
X60998095Y-120539390D01*
X60998095Y-120539390D02*
X61045714Y-120587009D01*
X61045714Y-120587009D02*
X61093333Y-120682247D01*
X61093333Y-120682247D02*
X61093333Y-120920342D01*
X61093333Y-120920342D02*
X61045714Y-121015580D01*
X61045714Y-121015580D02*
X60998095Y-121063200D01*
X60998095Y-121063200D02*
X60902857Y-121110819D01*
X60902857Y-121110819D02*
X60617143Y-121110819D01*
X60617143Y-121110819D02*
X60521905Y-121063200D01*
X60521905Y-121063200D02*
X60474286Y-121015580D01*
D13*
X73778572Y-85249757D02*
X73635715Y-85178328D01*
X73635715Y-85178328D02*
X73421429Y-85178328D01*
X73421429Y-85178328D02*
X73207143Y-85249757D01*
X73207143Y-85249757D02*
X73064286Y-85392614D01*
X73064286Y-85392614D02*
X72992857Y-85535471D01*
X72992857Y-85535471D02*
X72921429Y-85821185D01*
X72921429Y-85821185D02*
X72921429Y-86035471D01*
X72921429Y-86035471D02*
X72992857Y-86321185D01*
X72992857Y-86321185D02*
X73064286Y-86464042D01*
X73064286Y-86464042D02*
X73207143Y-86606900D01*
X73207143Y-86606900D02*
X73421429Y-86678328D01*
X73421429Y-86678328D02*
X73564286Y-86678328D01*
X73564286Y-86678328D02*
X73778572Y-86606900D01*
X73778572Y-86606900D02*
X73850000Y-86535471D01*
X73850000Y-86535471D02*
X73850000Y-86035471D01*
X73850000Y-86035471D02*
X73564286Y-86035471D01*
X74707143Y-85178328D02*
X74707143Y-85535471D01*
X74350000Y-85392614D02*
X74707143Y-85535471D01*
X74707143Y-85535471D02*
X75064286Y-85392614D01*
X74492857Y-85821185D02*
X74707143Y-85535471D01*
X74707143Y-85535471D02*
X74921429Y-85821185D01*
X75850000Y-85178328D02*
X75850000Y-85535471D01*
X75492857Y-85392614D02*
X75850000Y-85535471D01*
X75850000Y-85535471D02*
X76207143Y-85392614D01*
X75635714Y-85821185D02*
X75850000Y-85535471D01*
X75850000Y-85535471D02*
X76064286Y-85821185D01*
X76992857Y-85178328D02*
X76992857Y-85535471D01*
X76635714Y-85392614D02*
X76992857Y-85535471D01*
X76992857Y-85535471D02*
X77350000Y-85392614D01*
X76778571Y-85821185D02*
X76992857Y-85535471D01*
X76992857Y-85535471D02*
X77207143Y-85821185D01*
D12*
X77476667Y-102013200D02*
X77619524Y-102060819D01*
X77619524Y-102060819D02*
X77857619Y-102060819D01*
X77857619Y-102060819D02*
X77952857Y-102013200D01*
X77952857Y-102013200D02*
X78000476Y-101965580D01*
X78000476Y-101965580D02*
X78048095Y-101870342D01*
X78048095Y-101870342D02*
X78048095Y-101775104D01*
X78048095Y-101775104D02*
X78000476Y-101679866D01*
X78000476Y-101679866D02*
X77952857Y-101632247D01*
X77952857Y-101632247D02*
X77857619Y-101584628D01*
X77857619Y-101584628D02*
X77667143Y-101537009D01*
X77667143Y-101537009D02*
X77571905Y-101489390D01*
X77571905Y-101489390D02*
X77524286Y-101441771D01*
X77524286Y-101441771D02*
X77476667Y-101346533D01*
X77476667Y-101346533D02*
X77476667Y-101251295D01*
X77476667Y-101251295D02*
X77524286Y-101156057D01*
X77524286Y-101156057D02*
X77571905Y-101108438D01*
X77571905Y-101108438D02*
X77667143Y-101060819D01*
X77667143Y-101060819D02*
X77905238Y-101060819D01*
X77905238Y-101060819D02*
X78048095Y-101108438D01*
X78381429Y-101060819D02*
X78619524Y-102060819D01*
X78619524Y-102060819D02*
X78810000Y-101346533D01*
X78810000Y-101346533D02*
X79000476Y-102060819D01*
X79000476Y-102060819D02*
X79238572Y-101060819D01*
X79571905Y-101156057D02*
X79619524Y-101108438D01*
X79619524Y-101108438D02*
X79714762Y-101060819D01*
X79714762Y-101060819D02*
X79952857Y-101060819D01*
X79952857Y-101060819D02*
X80048095Y-101108438D01*
X80048095Y-101108438D02*
X80095714Y-101156057D01*
X80095714Y-101156057D02*
X80143333Y-101251295D01*
X80143333Y-101251295D02*
X80143333Y-101346533D01*
X80143333Y-101346533D02*
X80095714Y-101489390D01*
X80095714Y-101489390D02*
X79524286Y-102060819D01*
X79524286Y-102060819D02*
X80143333Y-102060819D01*
X39376667Y-102013200D02*
X39519524Y-102060819D01*
X39519524Y-102060819D02*
X39757619Y-102060819D01*
X39757619Y-102060819D02*
X39852857Y-102013200D01*
X39852857Y-102013200D02*
X39900476Y-101965580D01*
X39900476Y-101965580D02*
X39948095Y-101870342D01*
X39948095Y-101870342D02*
X39948095Y-101775104D01*
X39948095Y-101775104D02*
X39900476Y-101679866D01*
X39900476Y-101679866D02*
X39852857Y-101632247D01*
X39852857Y-101632247D02*
X39757619Y-101584628D01*
X39757619Y-101584628D02*
X39567143Y-101537009D01*
X39567143Y-101537009D02*
X39471905Y-101489390D01*
X39471905Y-101489390D02*
X39424286Y-101441771D01*
X39424286Y-101441771D02*
X39376667Y-101346533D01*
X39376667Y-101346533D02*
X39376667Y-101251295D01*
X39376667Y-101251295D02*
X39424286Y-101156057D01*
X39424286Y-101156057D02*
X39471905Y-101108438D01*
X39471905Y-101108438D02*
X39567143Y-101060819D01*
X39567143Y-101060819D02*
X39805238Y-101060819D01*
X39805238Y-101060819D02*
X39948095Y-101108438D01*
X40281429Y-101060819D02*
X40519524Y-102060819D01*
X40519524Y-102060819D02*
X40710000Y-101346533D01*
X40710000Y-101346533D02*
X40900476Y-102060819D01*
X40900476Y-102060819D02*
X41138572Y-101060819D01*
X41948095Y-101060819D02*
X41757619Y-101060819D01*
X41757619Y-101060819D02*
X41662381Y-101108438D01*
X41662381Y-101108438D02*
X41614762Y-101156057D01*
X41614762Y-101156057D02*
X41519524Y-101298914D01*
X41519524Y-101298914D02*
X41471905Y-101489390D01*
X41471905Y-101489390D02*
X41471905Y-101870342D01*
X41471905Y-101870342D02*
X41519524Y-101965580D01*
X41519524Y-101965580D02*
X41567143Y-102013200D01*
X41567143Y-102013200D02*
X41662381Y-102060819D01*
X41662381Y-102060819D02*
X41852857Y-102060819D01*
X41852857Y-102060819D02*
X41948095Y-102013200D01*
X41948095Y-102013200D02*
X41995714Y-101965580D01*
X41995714Y-101965580D02*
X42043333Y-101870342D01*
X42043333Y-101870342D02*
X42043333Y-101632247D01*
X42043333Y-101632247D02*
X41995714Y-101537009D01*
X41995714Y-101537009D02*
X41948095Y-101489390D01*
X41948095Y-101489390D02*
X41852857Y-101441771D01*
X41852857Y-101441771D02*
X41662381Y-101441771D01*
X41662381Y-101441771D02*
X41567143Y-101489390D01*
X41567143Y-101489390D02*
X41519524Y-101537009D01*
X41519524Y-101537009D02*
X41471905Y-101632247D01*
X77476667Y-121063200D02*
X77619524Y-121110819D01*
X77619524Y-121110819D02*
X77857619Y-121110819D01*
X77857619Y-121110819D02*
X77952857Y-121063200D01*
X77952857Y-121063200D02*
X78000476Y-121015580D01*
X78000476Y-121015580D02*
X78048095Y-120920342D01*
X78048095Y-120920342D02*
X78048095Y-120825104D01*
X78048095Y-120825104D02*
X78000476Y-120729866D01*
X78000476Y-120729866D02*
X77952857Y-120682247D01*
X77952857Y-120682247D02*
X77857619Y-120634628D01*
X77857619Y-120634628D02*
X77667143Y-120587009D01*
X77667143Y-120587009D02*
X77571905Y-120539390D01*
X77571905Y-120539390D02*
X77524286Y-120491771D01*
X77524286Y-120491771D02*
X77476667Y-120396533D01*
X77476667Y-120396533D02*
X77476667Y-120301295D01*
X77476667Y-120301295D02*
X77524286Y-120206057D01*
X77524286Y-120206057D02*
X77571905Y-120158438D01*
X77571905Y-120158438D02*
X77667143Y-120110819D01*
X77667143Y-120110819D02*
X77905238Y-120110819D01*
X77905238Y-120110819D02*
X78048095Y-120158438D01*
X78381429Y-120110819D02*
X78619524Y-121110819D01*
X78619524Y-121110819D02*
X78810000Y-120396533D01*
X78810000Y-120396533D02*
X79000476Y-121110819D01*
X79000476Y-121110819D02*
X79238572Y-120110819D01*
X80143333Y-121110819D02*
X79571905Y-121110819D01*
X79857619Y-121110819D02*
X79857619Y-120110819D01*
X79857619Y-120110819D02*
X79762381Y-120253676D01*
X79762381Y-120253676D02*
X79667143Y-120348914D01*
X79667143Y-120348914D02*
X79571905Y-120396533D01*
X39376667Y-121063200D02*
X39519524Y-121110819D01*
X39519524Y-121110819D02*
X39757619Y-121110819D01*
X39757619Y-121110819D02*
X39852857Y-121063200D01*
X39852857Y-121063200D02*
X39900476Y-121015580D01*
X39900476Y-121015580D02*
X39948095Y-120920342D01*
X39948095Y-120920342D02*
X39948095Y-120825104D01*
X39948095Y-120825104D02*
X39900476Y-120729866D01*
X39900476Y-120729866D02*
X39852857Y-120682247D01*
X39852857Y-120682247D02*
X39757619Y-120634628D01*
X39757619Y-120634628D02*
X39567143Y-120587009D01*
X39567143Y-120587009D02*
X39471905Y-120539390D01*
X39471905Y-120539390D02*
X39424286Y-120491771D01*
X39424286Y-120491771D02*
X39376667Y-120396533D01*
X39376667Y-120396533D02*
X39376667Y-120301295D01*
X39376667Y-120301295D02*
X39424286Y-120206057D01*
X39424286Y-120206057D02*
X39471905Y-120158438D01*
X39471905Y-120158438D02*
X39567143Y-120110819D01*
X39567143Y-120110819D02*
X39805238Y-120110819D01*
X39805238Y-120110819D02*
X39948095Y-120158438D01*
X40281429Y-120110819D02*
X40519524Y-121110819D01*
X40519524Y-121110819D02*
X40710000Y-120396533D01*
X40710000Y-120396533D02*
X40900476Y-121110819D01*
X40900476Y-121110819D02*
X41138572Y-120110819D01*
X41995714Y-120110819D02*
X41519524Y-120110819D01*
X41519524Y-120110819D02*
X41471905Y-120587009D01*
X41471905Y-120587009D02*
X41519524Y-120539390D01*
X41519524Y-120539390D02*
X41614762Y-120491771D01*
X41614762Y-120491771D02*
X41852857Y-120491771D01*
X41852857Y-120491771D02*
X41948095Y-120539390D01*
X41948095Y-120539390D02*
X41995714Y-120587009D01*
X41995714Y-120587009D02*
X42043333Y-120682247D01*
X42043333Y-120682247D02*
X42043333Y-120920342D01*
X42043333Y-120920342D02*
X41995714Y-121015580D01*
X41995714Y-121015580D02*
X41948095Y-121063200D01*
X41948095Y-121063200D02*
X41852857Y-121110819D01*
X41852857Y-121110819D02*
X41614762Y-121110819D01*
X41614762Y-121110819D02*
X41519524Y-121063200D01*
X41519524Y-121063200D02*
X41471905Y-121015580D01*
%TO.C,U1*%
D14*
X41675000Y-79080000D02*
X41675000Y-96080000D01*
X43675000Y-98080000D02*
X57475000Y-98080000D01*
X46075000Y-75655970D02*
X55075000Y-75655970D01*
X46075000Y-83009270D02*
X46075000Y-75655970D01*
X55075000Y-75655970D02*
X55075000Y-83009270D01*
X55075000Y-83009270D02*
X46075000Y-83009270D01*
X57475000Y-77080910D02*
X43675000Y-77080910D01*
X59475000Y-96080000D02*
X59475000Y-79080000D01*
D15*
X41675000Y-79080000D02*
G75*
G02*
X43675000Y-77080000I2044612J-44612D01*
G01*
X43675000Y-98080000D02*
G75*
G02*
X41675000Y-96080000I44857J2044857D01*
G01*
X57475000Y-77080000D02*
G75*
G02*
X59475000Y-79080000I-44610J-2044610D01*
G01*
X59475000Y-96080000D02*
G75*
G02*
X57475000Y-98080000I-2000000J0D01*
G01*
D16*
X39702000Y-78780000D02*
G75*
G02*
X39448000Y-78780000I-127000J0D01*
G01*
X39448000Y-78780000D02*
G75*
G02*
X39702000Y-78780000I127000J0D01*
G01*
D17*
X41687285Y-79018295D02*
X41690333Y-78969527D01*
X41694397Y-78920506D01*
X41687285Y-79018295D01*
X59464492Y-96101574D02*
X59462713Y-96150850D01*
X59459665Y-96199618D01*
X59455601Y-96248639D01*
X59450268Y-96297407D01*
X59443664Y-96346175D01*
X59436044Y-96394690D01*
X59427153Y-96442950D01*
X59417248Y-96490955D01*
X59464492Y-96101574D01*
%TO.C,SW4*%
D15*
X52775000Y-102495000D02*
X66745000Y-102495000D01*
X52775000Y-116465000D02*
X52775000Y-102495000D01*
X66745000Y-102495000D02*
X66745000Y-116465000D01*
X66745000Y-116465000D02*
X52775000Y-116465000D01*
%TO.C,SW7*%
X68550000Y-83800000D02*
X72650000Y-83800000D01*
X68550000Y-86200000D02*
X68550000Y-83800000D01*
X68550000Y-91000000D02*
X68550000Y-88400000D01*
X68550000Y-95600000D02*
X68550000Y-93200000D01*
X72650000Y-95600000D02*
X68550000Y-95600000D01*
X74650000Y-90200000D02*
X74650000Y-89200000D01*
X75150000Y-89700000D02*
X74150000Y-89700000D01*
X76650000Y-83800000D02*
X80750000Y-83800000D01*
X76650000Y-95600000D02*
X80750000Y-95600000D01*
X80750000Y-95600000D02*
X80750000Y-83800000D01*
X81850000Y-93800000D02*
X82150000Y-93500000D01*
X82150000Y-93500000D02*
X82450000Y-93800000D01*
X82450000Y-93800000D02*
X81850000Y-93800000D01*
X77650000Y-89700000D02*
G75*
G02*
X71650000Y-89700000I-3000000J0D01*
G01*
X71650000Y-89700000D02*
G75*
G02*
X77650000Y-89700000I3000000J0D01*
G01*
%TO.C,SW3*%
X52775000Y-121545000D02*
X66745000Y-121545000D01*
X52775000Y-135515000D02*
X52775000Y-121545000D01*
X66745000Y-121545000D02*
X66745000Y-135515000D01*
X66745000Y-135515000D02*
X52775000Y-135515000D01*
D18*
%TO.C,G\u002A\u002A\u002A*%
G36*
X66313464Y-73355251D02*
G01*
X66332531Y-73377435D01*
X66324082Y-73488130D01*
X66301898Y-73507197D01*
X66191202Y-73498748D01*
X66172136Y-73476564D01*
X66180584Y-73365869D01*
X66202768Y-73346802D01*
X66313464Y-73355251D01*
G37*
G36*
X68599464Y-80636584D02*
G01*
X68618531Y-80658768D01*
X68610082Y-80769464D01*
X68587898Y-80788530D01*
X68477202Y-80780082D01*
X68458136Y-80757898D01*
X68466584Y-80647202D01*
X68488768Y-80628135D01*
X68599464Y-80636584D01*
G37*
G36*
X68750426Y-76390786D02*
G01*
X68953194Y-76606623D01*
X68745764Y-76812789D01*
X68538333Y-77018954D01*
X68357427Y-76829678D01*
X68176520Y-76640401D01*
X68362089Y-76407675D01*
X68547658Y-76174949D01*
X68750426Y-76390786D01*
G37*
G36*
X69192131Y-83430584D02*
G01*
X69211197Y-83452768D01*
X69202749Y-83563464D01*
X69180565Y-83582530D01*
X69069869Y-83574082D01*
X69050802Y-83551898D01*
X69059251Y-83441202D01*
X69081435Y-83422135D01*
X69192131Y-83430584D01*
G37*
G36*
X70123464Y-84954584D02*
G01*
X70142531Y-84976768D01*
X70134082Y-85087464D01*
X70111898Y-85106530D01*
X70001202Y-85098082D01*
X69982136Y-85075898D01*
X69990584Y-84965202D01*
X70012768Y-84946135D01*
X70123464Y-84954584D01*
G37*
G36*
X71417000Y-93704666D02*
G01*
X71423154Y-93845029D01*
X71393779Y-93888754D01*
X71289989Y-93919139D01*
X71247667Y-93874000D01*
X71241513Y-93733637D01*
X71270888Y-93689912D01*
X71374677Y-93659527D01*
X71417000Y-93704666D01*
G37*
G36*
X71417000Y-94128000D02*
G01*
X71423154Y-94268362D01*
X71393779Y-94312087D01*
X71289989Y-94342472D01*
X71247667Y-94297333D01*
X71241513Y-94156970D01*
X71270888Y-94113245D01*
X71374677Y-94082860D01*
X71417000Y-94128000D01*
G37*
G36*
X77489464Y-83345917D02*
G01*
X77508531Y-83368101D01*
X77500082Y-83478797D01*
X77477898Y-83497864D01*
X77367202Y-83489415D01*
X77348136Y-83467231D01*
X77356584Y-83356535D01*
X77378768Y-83337469D01*
X77489464Y-83345917D01*
G37*
G36*
X80537464Y-76487917D02*
G01*
X80556531Y-76510101D01*
X80548082Y-76620797D01*
X80525898Y-76639864D01*
X80415202Y-76631415D01*
X80396136Y-76609231D01*
X80404584Y-76498535D01*
X80426768Y-76479469D01*
X80537464Y-76487917D01*
G37*
G36*
X81045464Y-77757917D02*
G01*
X81064531Y-77780101D01*
X81056082Y-77890797D01*
X81033898Y-77909864D01*
X80923202Y-77901415D01*
X80904136Y-77879231D01*
X80912584Y-77768535D01*
X80934768Y-77749469D01*
X81045464Y-77757917D01*
G37*
G36*
X81887187Y-88943096D02*
G01*
X81952518Y-88999061D01*
X82001052Y-89122767D01*
X81971704Y-89166530D01*
X81859480Y-89152903D01*
X81794149Y-89096938D01*
X81745614Y-88973232D01*
X81774962Y-88929469D01*
X81887187Y-88943096D01*
G37*
G36*
X82134723Y-89286277D02*
G01*
X82207981Y-89379157D01*
X82250688Y-89539744D01*
X82216477Y-89595566D01*
X82119943Y-89571722D01*
X82046686Y-89478842D01*
X82003979Y-89318255D01*
X82038190Y-89262433D01*
X82134723Y-89286277D01*
G37*
G36*
X82593000Y-90233333D02*
G01*
X82599154Y-90373695D01*
X82569779Y-90417421D01*
X82465989Y-90447805D01*
X82423667Y-90402666D01*
X82417513Y-90262304D01*
X82446888Y-90218578D01*
X82550677Y-90188194D01*
X82593000Y-90233333D01*
G37*
G36*
X82601467Y-91452533D02*
G01*
X82605071Y-91621799D01*
X82564684Y-91692515D01*
X82472400Y-91727620D01*
X82415200Y-91638800D01*
X82411595Y-91469534D01*
X82451982Y-91398817D01*
X82544267Y-91363712D01*
X82601467Y-91452533D01*
G37*
G36*
X82654131Y-90965917D02*
G01*
X82673197Y-90988101D01*
X82664749Y-91098797D01*
X82642565Y-91117864D01*
X82531869Y-91109415D01*
X82512802Y-91087231D01*
X82521251Y-90976535D01*
X82543435Y-90957469D01*
X82654131Y-90965917D01*
G37*
G36*
X83839464Y-86563251D02*
G01*
X83858531Y-86585435D01*
X83850082Y-86696130D01*
X83827898Y-86715197D01*
X83717202Y-86706748D01*
X83698136Y-86684564D01*
X83706584Y-86573869D01*
X83728768Y-86554802D01*
X83839464Y-86563251D01*
G37*
G36*
X84668714Y-86297186D02*
G01*
X84713772Y-86394691D01*
X84650065Y-86489483D01*
X84582667Y-86508000D01*
X84472266Y-86447042D01*
X84459282Y-86429183D01*
X84464782Y-86328815D01*
X84566568Y-86275194D01*
X84668714Y-86297186D01*
G37*
G36*
X87056797Y-82668584D02*
G01*
X87075864Y-82690768D01*
X87067415Y-82801464D01*
X87045231Y-82820530D01*
X86934536Y-82812082D01*
X86915469Y-82789898D01*
X86923918Y-82679202D01*
X86946102Y-82660135D01*
X87056797Y-82668584D01*
G37*
G36*
X88070830Y-84524564D02*
G01*
X88080056Y-84632256D01*
X87976843Y-84725980D01*
X87811053Y-84768760D01*
X87757808Y-84730228D01*
X87746859Y-84587856D01*
X87855752Y-84488132D01*
X87927000Y-84476000D01*
X88070830Y-84524564D01*
G37*
G36*
X88665464Y-82922584D02*
G01*
X88684531Y-82944768D01*
X88676082Y-83055464D01*
X88653898Y-83074530D01*
X88543202Y-83066082D01*
X88524136Y-83043898D01*
X88532584Y-82933202D01*
X88554768Y-82914135D01*
X88665464Y-82922584D01*
G37*
G36*
X90951464Y-83853917D02*
G01*
X90970531Y-83876101D01*
X90962082Y-83986797D01*
X90939898Y-84005864D01*
X90829202Y-83997415D01*
X90810136Y-83975231D01*
X90818584Y-83864535D01*
X90840768Y-83845469D01*
X90951464Y-83853917D01*
G37*
G36*
X84379241Y-81461333D02*
G01*
X84381240Y-81466488D01*
X84392333Y-81626760D01*
X84316439Y-81713299D01*
X84200567Y-81683942D01*
X84171634Y-81654488D01*
X84121169Y-81530256D01*
X84199621Y-81429697D01*
X84311384Y-81372094D01*
X84379241Y-81461333D01*
G37*
G36*
X87245467Y-84726732D02*
G01*
X87256615Y-84735766D01*
X87332272Y-84852605D01*
X87282677Y-84952900D01*
X87137559Y-85062921D01*
X87012757Y-85015201D01*
X87004878Y-84907965D01*
X87046883Y-84798067D01*
X87137723Y-84688468D01*
X87245467Y-84726732D01*
G37*
G36*
X87623502Y-84679273D02*
G01*
X87677904Y-84787978D01*
X87667071Y-84824259D01*
X87552203Y-84895189D01*
X87405920Y-84806086D01*
X87382922Y-84779871D01*
X87329817Y-84657796D01*
X87376264Y-84603248D01*
X87499781Y-84600084D01*
X87623502Y-84679273D01*
G37*
G36*
X58552148Y-88141607D02*
G01*
X58801667Y-88356463D01*
X58596408Y-88575231D01*
X58433809Y-88736259D01*
X58322866Y-88774128D01*
X58200759Y-88690453D01*
X58101117Y-88587974D01*
X57908568Y-88384874D01*
X58105598Y-88155812D01*
X58302629Y-87926751D01*
X58552148Y-88141607D01*
G37*
G36*
X60998169Y-81947965D02*
G01*
X61205004Y-82147037D01*
X61025743Y-82337852D01*
X60873493Y-82484420D01*
X60764799Y-82506313D01*
X60633601Y-82402864D01*
X60566628Y-82333215D01*
X60384257Y-82140690D01*
X60587795Y-81944792D01*
X60791333Y-81748893D01*
X60998169Y-81947965D01*
G37*
G36*
X68284333Y-94551333D02*
G01*
X68389929Y-94685253D01*
X68377982Y-94781479D01*
X68273653Y-94895976D01*
X68104320Y-95065309D01*
X67945667Y-94890000D01*
X67840071Y-94756080D01*
X67852018Y-94659853D01*
X67956347Y-94545356D01*
X68125680Y-94376023D01*
X68284333Y-94551333D01*
G37*
G36*
X58359280Y-78828470D02*
G01*
X58447292Y-78986618D01*
X58430484Y-79088034D01*
X58345570Y-79175672D01*
X58219436Y-79265901D01*
X58121368Y-79227958D01*
X58058790Y-79163130D01*
X57972744Y-79041740D01*
X57993708Y-78929941D01*
X58072499Y-78815928D01*
X58221571Y-78618299D01*
X58359280Y-78828470D01*
G37*
G36*
X61182652Y-73346459D02*
G01*
X61389053Y-73391731D01*
X61438780Y-73497174D01*
X61328389Y-73654467D01*
X61315136Y-73666698D01*
X61188767Y-73759924D01*
X61092136Y-73730214D01*
X61008448Y-73644687D01*
X60904002Y-73476192D01*
X60954250Y-73375561D01*
X61157545Y-73345618D01*
X61182652Y-73346459D01*
G37*
G36*
X62197131Y-96096687D02*
G01*
X62277366Y-96193986D01*
X62347689Y-96384596D01*
X62309074Y-96510362D01*
X62200037Y-96647067D01*
X62077254Y-96632190D01*
X61946770Y-96512409D01*
X61857272Y-96390123D01*
X61884988Y-96293444D01*
X61983628Y-96196033D01*
X62116563Y-96088578D01*
X62197131Y-96096687D01*
G37*
G36*
X61478621Y-96480658D02*
G01*
X61567761Y-96554057D01*
X61673398Y-96671892D01*
X61649829Y-96772058D01*
X61583230Y-96851075D01*
X61431879Y-96984493D01*
X61313890Y-96976525D01*
X61213348Y-96878078D01*
X61155384Y-96756570D01*
X61221119Y-96624866D01*
X61259057Y-96581059D01*
X61381254Y-96467977D01*
X61478621Y-96480658D01*
G37*
G36*
X70727844Y-75259353D02*
G01*
X70746490Y-75284682D01*
X70855143Y-75496462D01*
X70816702Y-75669474D01*
X70717713Y-75779222D01*
X70602651Y-75860512D01*
X70502743Y-75833799D01*
X70381840Y-75719813D01*
X70194919Y-75525603D01*
X70410616Y-75322968D01*
X70559271Y-75193086D01*
X70645299Y-75174129D01*
X70727844Y-75259353D01*
G37*
G36*
X76216493Y-75733530D02*
G01*
X76338742Y-75870282D01*
X76344606Y-75966131D01*
X76245704Y-76091011D01*
X76111657Y-76218071D01*
X76031333Y-76263333D01*
X75937378Y-76207113D01*
X75816962Y-76091011D01*
X75716377Y-75962646D01*
X75726190Y-75866648D01*
X75846173Y-75733530D01*
X76031333Y-75548370D01*
X76216493Y-75733530D01*
G37*
G36*
X86848133Y-85022982D02*
G01*
X86925989Y-85095273D01*
X86838930Y-85186408D01*
X86589973Y-85293493D01*
X86553038Y-85306054D01*
X86348544Y-85349600D01*
X86235212Y-85324673D01*
X86232770Y-85321215D01*
X86262350Y-85235864D01*
X86399068Y-85137718D01*
X86585654Y-85054532D01*
X86764841Y-85014061D01*
X86848133Y-85022982D01*
G37*
G36*
X86851231Y-97339858D02*
G01*
X86963926Y-97506764D01*
X86976354Y-97606313D01*
X86893312Y-97703951D01*
X86878872Y-97717097D01*
X86743783Y-97825744D01*
X86645128Y-97828890D01*
X86517350Y-97717893D01*
X86464923Y-97662518D01*
X86285662Y-97471704D01*
X86479356Y-97285280D01*
X86673051Y-97098856D01*
X86851231Y-97339858D01*
G37*
G36*
X89788497Y-77105276D02*
G01*
X89861276Y-77180238D01*
X89954729Y-77307915D01*
X89921390Y-77405163D01*
X89846428Y-77477942D01*
X89718751Y-77571395D01*
X89621503Y-77538056D01*
X89548724Y-77463094D01*
X89455271Y-77335417D01*
X89488610Y-77238169D01*
X89563572Y-77165390D01*
X89691249Y-77071937D01*
X89788497Y-77105276D01*
G37*
G36*
X57722225Y-84176507D02*
G01*
X57828685Y-84264953D01*
X57942652Y-84387820D01*
X57931227Y-84485008D01*
X57857896Y-84574409D01*
X57728948Y-84693679D01*
X57658667Y-84730000D01*
X57563244Y-84674045D01*
X57459437Y-84574409D01*
X57368773Y-84450405D01*
X57398525Y-84353446D01*
X57488648Y-84264953D01*
X57621978Y-84161705D01*
X57722225Y-84176507D01*
G37*
G36*
X59196673Y-75228654D02*
G01*
X59374625Y-75424781D01*
X59388675Y-75447046D01*
X59425210Y-75574029D01*
X59338846Y-75697828D01*
X59267333Y-75757005D01*
X59089032Y-75884314D01*
X58973259Y-75902621D01*
X58849610Y-75807820D01*
X58773617Y-75728204D01*
X58589050Y-75531742D01*
X58804997Y-75328871D01*
X59012368Y-75197811D01*
X59196673Y-75228654D01*
G37*
G36*
X60297564Y-79716191D02*
G01*
X60474701Y-79912680D01*
X60489341Y-79936129D01*
X60526562Y-80067488D01*
X60438957Y-80196504D01*
X60379787Y-80247971D01*
X60199814Y-80378329D01*
X60073448Y-80388633D01*
X59930515Y-80274381D01*
X59874284Y-80215537D01*
X59689717Y-80019075D01*
X59905664Y-79816204D01*
X60113262Y-79685137D01*
X60297564Y-79716191D01*
G37*
G36*
X65257558Y-88494507D02*
G01*
X65364019Y-88582953D01*
X65477985Y-88705820D01*
X65466560Y-88803008D01*
X65393230Y-88892409D01*
X65264282Y-89011679D01*
X65194000Y-89048000D01*
X65098577Y-88992045D01*
X64994770Y-88892409D01*
X64904107Y-88768405D01*
X64933859Y-88671446D01*
X65023981Y-88582953D01*
X65157311Y-88479705D01*
X65257558Y-88494507D01*
G37*
G36*
X65458279Y-98493648D02*
G01*
X65625463Y-98591107D01*
X65701559Y-98657191D01*
X65702000Y-98659840D01*
X65626108Y-98683461D01*
X65433443Y-98697897D01*
X65307878Y-98700000D01*
X65072717Y-98696120D01*
X64979211Y-98671902D01*
X64999687Y-98608476D01*
X65064157Y-98533808D01*
X65183769Y-98426476D01*
X65302332Y-98422821D01*
X65458279Y-98493648D01*
G37*
G36*
X76643989Y-74557164D02*
G01*
X76760346Y-74626243D01*
X76916591Y-74745267D01*
X76943386Y-74851388D01*
X76848424Y-75007573D01*
X76812617Y-75054057D01*
X76666333Y-75241782D01*
X76464764Y-75030622D01*
X76335395Y-74881055D01*
X76317611Y-74782159D01*
X76401652Y-74666500D01*
X76410610Y-74656570D01*
X76531115Y-74548800D01*
X76643989Y-74557164D01*
G37*
G36*
X83512099Y-98302094D02*
G01*
X83663738Y-98436692D01*
X83692580Y-98523352D01*
X83618935Y-98607088D01*
X83504551Y-98673286D01*
X83439450Y-98601945D01*
X83430781Y-98580374D01*
X83360960Y-98489808D01*
X83256857Y-98541850D01*
X83120021Y-98601904D01*
X83049444Y-98540378D01*
X83067600Y-98399271D01*
X83126738Y-98298708D01*
X83270333Y-98109084D01*
X83512099Y-98302094D01*
G37*
G36*
X85977126Y-85403222D02*
G01*
X85998332Y-85492201D01*
X85984663Y-85502583D01*
X85873833Y-85526750D01*
X85757297Y-85574802D01*
X85624971Y-85643395D01*
X85458033Y-85697384D01*
X85389767Y-85665810D01*
X85414218Y-85569833D01*
X85511628Y-85493269D01*
X85643364Y-85442834D01*
X85683333Y-85457054D01*
X85735284Y-85459808D01*
X85802795Y-85413589D01*
X85928752Y-85362409D01*
X85977126Y-85403222D01*
G37*
G36*
X92464915Y-82761159D02*
G01*
X92534131Y-82824465D01*
X92541333Y-82876650D01*
X92473214Y-82953029D01*
X92302447Y-83050980D01*
X92079419Y-83150290D01*
X91854517Y-83230746D01*
X91678126Y-83272134D01*
X91600634Y-83254243D01*
X91600592Y-83254038D01*
X91572531Y-83011865D01*
X91629933Y-82874407D01*
X91804539Y-82802814D01*
X91993150Y-82773533D01*
X92295454Y-82746226D01*
X92464915Y-82761159D01*
G37*
G36*
X88922954Y-91662554D02*
G01*
X88977525Y-91768153D01*
X88885657Y-91873672D01*
X88883145Y-91875535D01*
X88785698Y-91971522D01*
X88824524Y-92065942D01*
X88871996Y-92115710D01*
X88948981Y-92262519D01*
X88921551Y-92391390D01*
X88826925Y-92434666D01*
X88739136Y-92373057D01*
X88606224Y-92221681D01*
X88582865Y-92190781D01*
X88402553Y-91946895D01*
X88610398Y-91751635D01*
X88769325Y-91627733D01*
X88876104Y-91625203D01*
X88922954Y-91662554D01*
G37*
G36*
X91399484Y-83207861D02*
G01*
X91402786Y-83343351D01*
X91282097Y-83457055D01*
X91176566Y-83491106D01*
X91012441Y-83545772D01*
X90878057Y-83610459D01*
X90717744Y-83666214D01*
X90604296Y-83599038D01*
X90593688Y-83586624D01*
X90547813Y-83487913D01*
X90631884Y-83412882D01*
X90723540Y-83374367D01*
X90903289Y-83324740D01*
X91001038Y-83330815D01*
X91089343Y-83316898D01*
X91192557Y-83243002D01*
X91326345Y-83162304D01*
X91399484Y-83207861D01*
G37*
G36*
X84626299Y-79906101D02*
G01*
X84610948Y-80027952D01*
X84484132Y-80208211D01*
X84434436Y-80260641D01*
X84270794Y-80400055D01*
X84157593Y-80452260D01*
X84136172Y-80442153D01*
X84158434Y-80339169D01*
X84192187Y-80285000D01*
X84244000Y-80285000D01*
X84286333Y-80327333D01*
X84328667Y-80285000D01*
X84286333Y-80242666D01*
X84244000Y-80285000D01*
X84192187Y-80285000D01*
X84266646Y-80165502D01*
X84328035Y-80087614D01*
X84502447Y-79912281D01*
X84608267Y-79886724D01*
X84626299Y-79906101D01*
G37*
G36*
X70103301Y-92708431D02*
G01*
X70226057Y-92817882D01*
X70456840Y-93031765D01*
X70259587Y-93239753D01*
X70064562Y-93407680D01*
X69914356Y-93427117D01*
X69772301Y-93298011D01*
X69731452Y-93239000D01*
X69641869Y-93073290D01*
X69642272Y-93069666D01*
X69935333Y-93069666D01*
X69977667Y-93112000D01*
X70020000Y-93069666D01*
X69977667Y-93027333D01*
X69935333Y-93069666D01*
X69642272Y-93069666D01*
X69656358Y-92942995D01*
X69731452Y-92815666D01*
X69852076Y-92657220D01*
X69959372Y-92621400D01*
X70103301Y-92708431D01*
G37*
G36*
X67702360Y-92439052D02*
G01*
X67775320Y-92493756D01*
X67953659Y-92657344D01*
X68007653Y-92780504D01*
X67980206Y-92872562D01*
X67823113Y-93062466D01*
X67642502Y-93135119D01*
X67484368Y-93073668D01*
X67471203Y-93059067D01*
X67303351Y-92922129D01*
X67160885Y-92849338D01*
X67030211Y-92764665D01*
X67014235Y-92688825D01*
X67144911Y-92611244D01*
X67319153Y-92623836D01*
X67443326Y-92717526D01*
X67449382Y-92731000D01*
X67546771Y-92846101D01*
X67652111Y-92828457D01*
X67697714Y-92698285D01*
X67655615Y-92584303D01*
X67597421Y-92577058D01*
X67474932Y-92557281D01*
X67414997Y-92443616D01*
X67437510Y-92350252D01*
X67529769Y-92344238D01*
X67702360Y-92439052D01*
G37*
G36*
X82527721Y-91939775D02*
G01*
X82536814Y-92022375D01*
X82486536Y-92165601D01*
X82367128Y-92401061D01*
X82236775Y-92638424D01*
X81814082Y-93225533D01*
X81250796Y-93718630D01*
X80633674Y-94077356D01*
X80314330Y-94205806D01*
X79985230Y-94298735D01*
X79689638Y-94348428D01*
X79470820Y-94347172D01*
X79378079Y-94301236D01*
X79408327Y-94218476D01*
X79547196Y-94128836D01*
X79737867Y-94061548D01*
X79879374Y-94043333D01*
X80001429Y-94007253D01*
X80232495Y-93910832D01*
X80531323Y-93771795D01*
X80668880Y-93704072D01*
X81243323Y-93365405D01*
X81686554Y-92978598D01*
X82036267Y-92507514D01*
X82169714Y-92265239D01*
X82299952Y-92041802D01*
X82412503Y-91906591D01*
X82469014Y-91886196D01*
X82527721Y-91939775D01*
G37*
G36*
X81743727Y-87435116D02*
G01*
X81710128Y-87523142D01*
X81554087Y-87641917D01*
X81314320Y-87770204D01*
X81029541Y-87886765D01*
X80788995Y-87958843D01*
X80482729Y-88044468D01*
X80342363Y-88114921D01*
X80365506Y-88173799D01*
X80549768Y-88224694D01*
X80605833Y-88234245D01*
X80874860Y-88299849D01*
X81157088Y-88403200D01*
X81405726Y-88522516D01*
X81573986Y-88636015D01*
X81619333Y-88706057D01*
X81562018Y-88817999D01*
X81417058Y-88812703D01*
X81311955Y-88755585D01*
X81142271Y-88670142D01*
X80874389Y-88568949D01*
X80641990Y-88496167D01*
X80247512Y-88357888D01*
X80015741Y-88217262D01*
X79947780Y-88080034D01*
X80044734Y-87951949D01*
X80307708Y-87838751D01*
X80505975Y-87788631D01*
X80842133Y-87697887D01*
X81199566Y-87574579D01*
X81302299Y-87532873D01*
X81535314Y-87449243D01*
X81699409Y-87420509D01*
X81743727Y-87435116D01*
G37*
G36*
X79480127Y-91242319D02*
G01*
X79533628Y-91255302D01*
X79886224Y-91397370D01*
X80146964Y-91607957D01*
X80288953Y-91857915D01*
X80295777Y-92081313D01*
X80189526Y-92375317D01*
X80006056Y-92740119D01*
X79778457Y-93118041D01*
X79539823Y-93451409D01*
X79446086Y-93562252D01*
X79286663Y-93768459D01*
X79200409Y-93940052D01*
X79196343Y-94005497D01*
X79191318Y-94138579D01*
X79160302Y-94172618D01*
X79078457Y-94202127D01*
X79072278Y-94196496D01*
X79053138Y-93851820D01*
X79194434Y-93520467D01*
X79244568Y-93450666D01*
X79429606Y-93187866D01*
X79624342Y-92880348D01*
X79686775Y-92773333D01*
X79895171Y-92345013D01*
X79974658Y-92014800D01*
X79923480Y-91768973D01*
X79739885Y-91593814D01*
X79524483Y-91503682D01*
X79287002Y-91430190D01*
X79107997Y-91374054D01*
X79086342Y-91367126D01*
X79016083Y-91300385D01*
X79052622Y-91242177D01*
X79198618Y-91201236D01*
X79480127Y-91242319D01*
G37*
G36*
X90381161Y-84050770D02*
G01*
X90392054Y-84107943D01*
X90345938Y-84174586D01*
X90226900Y-84258872D01*
X90019025Y-84368973D01*
X89706401Y-84513064D01*
X89273113Y-84699316D01*
X88703247Y-84935904D01*
X88477333Y-85028534D01*
X88054813Y-85199940D01*
X87645091Y-85363601D01*
X87297784Y-85499843D01*
X87080333Y-85582481D01*
X86425572Y-85822724D01*
X85911579Y-86009644D01*
X85520309Y-86148669D01*
X85233718Y-86245227D01*
X85033760Y-86304749D01*
X84902389Y-86332662D01*
X84821561Y-86334395D01*
X84773229Y-86315378D01*
X84743114Y-86285626D01*
X84702533Y-86181377D01*
X84805964Y-86114749D01*
X84938096Y-86064995D01*
X85195687Y-85966122D01*
X85546454Y-85830584D01*
X85958114Y-85670838D01*
X86149000Y-85596564D01*
X87127721Y-85216425D01*
X87958322Y-84896112D01*
X88649812Y-84632334D01*
X89211200Y-84421801D01*
X89651497Y-84261221D01*
X89979713Y-84147304D01*
X90204856Y-84076759D01*
X90335938Y-84046295D01*
X90381161Y-84050770D01*
G37*
G36*
X89860558Y-83351769D02*
G01*
X89924176Y-83379352D01*
X90035128Y-83489660D01*
X90029785Y-83570081D01*
X90015598Y-83622605D01*
X90100847Y-83564789D01*
X90227645Y-83501544D01*
X90328032Y-83572579D01*
X90379120Y-83699969D01*
X90360432Y-83750423D01*
X90233946Y-83832906D01*
X90039036Y-83921425D01*
X89840133Y-83991362D01*
X89701667Y-84018103D01*
X89677704Y-84011259D01*
X89590781Y-84027050D01*
X89479037Y-84107937D01*
X89363813Y-84190313D01*
X89324000Y-84182421D01*
X89272917Y-84169852D01*
X89210857Y-84210499D01*
X89048076Y-84307882D01*
X88823891Y-84400267D01*
X88595078Y-84469739D01*
X88418411Y-84498380D01*
X88353462Y-84481062D01*
X88369735Y-84374896D01*
X88414765Y-84325062D01*
X88546771Y-84254147D01*
X88744950Y-84181903D01*
X88950879Y-84124920D01*
X89106137Y-84099789D01*
X89154667Y-84114947D01*
X89206837Y-84104040D01*
X89309704Y-84023270D01*
X89439765Y-83929901D01*
X89501469Y-83919691D01*
X89585371Y-83899253D01*
X89738607Y-83799579D01*
X89748598Y-83791837D01*
X89884826Y-83672853D01*
X89894292Y-83601092D01*
X89809052Y-83538424D01*
X89702475Y-83428979D01*
X89730877Y-83351239D01*
X89860558Y-83351769D01*
G37*
G36*
X63571778Y-82814650D02*
G01*
X63681327Y-82821009D01*
X64674251Y-82929584D01*
X65592138Y-83127309D01*
X66398176Y-83405977D01*
X66492090Y-83447388D01*
X66700029Y-83548003D01*
X67013171Y-83707483D01*
X67404778Y-83911460D01*
X67848115Y-84145567D01*
X68316447Y-84395436D01*
X68783038Y-84646701D01*
X69221151Y-84884993D01*
X69604052Y-85095946D01*
X69905005Y-85265191D01*
X70097273Y-85378362D01*
X70147000Y-85411492D01*
X70272170Y-85479573D01*
X70295167Y-85484800D01*
X70365186Y-85549934D01*
X70331867Y-85631688D01*
X70259193Y-85615059D01*
X70239808Y-85589840D01*
X70123279Y-85530431D01*
X70040830Y-85531000D01*
X69854575Y-85507570D01*
X69787167Y-85470759D01*
X69696013Y-85421674D01*
X69681333Y-85434023D01*
X69611304Y-85426654D01*
X69418561Y-85350782D01*
X69129123Y-85218853D01*
X68769010Y-85043311D01*
X68364240Y-84836602D01*
X67940831Y-84611171D01*
X67802205Y-84535208D01*
X66925861Y-84077345D01*
X66140598Y-83726927D01*
X65415125Y-83474360D01*
X64718152Y-83310048D01*
X64018388Y-83224394D01*
X63467783Y-83206000D01*
X62994022Y-83195257D01*
X62680414Y-83161052D01*
X62519019Y-83100416D01*
X62501903Y-83010379D01*
X62619898Y-82888906D01*
X62731308Y-82833546D01*
X62905221Y-82804115D01*
X63174442Y-82798516D01*
X63571778Y-82814650D01*
G37*
G36*
X64873465Y-85934747D02*
G01*
X65084779Y-86101655D01*
X65180537Y-86188290D01*
X65485598Y-86435182D01*
X65928428Y-86740395D01*
X66492184Y-87093192D01*
X67160024Y-87482833D01*
X67564667Y-87708437D01*
X67795191Y-87860603D01*
X67909637Y-87992541D01*
X67915440Y-88038345D01*
X67866200Y-88285094D01*
X67836582Y-88529408D01*
X67830958Y-88717096D01*
X67853699Y-88793965D01*
X67854493Y-88794000D01*
X67955319Y-88762991D01*
X68168474Y-88681050D01*
X68451014Y-88564805D01*
X68499825Y-88544119D01*
X68834219Y-88412126D01*
X69065330Y-88351320D01*
X69238768Y-88352234D01*
X69320684Y-88373748D01*
X69517386Y-88426176D01*
X69820343Y-88490985D01*
X70168381Y-88555222D01*
X70213618Y-88562834D01*
X70571682Y-88633720D01*
X70773841Y-88697821D01*
X70833487Y-88751930D01*
X70764011Y-88792841D01*
X70578802Y-88817348D01*
X70291254Y-88822245D01*
X69914755Y-88804326D01*
X69462698Y-88760386D01*
X69413510Y-88754395D01*
X69075402Y-88731394D01*
X68803802Y-88770881D01*
X68534914Y-88871456D01*
X68165770Y-89007461D01*
X67895558Y-89036008D01*
X67692605Y-88957418D01*
X67608955Y-88880827D01*
X67510034Y-88714313D01*
X67496877Y-88490941D01*
X67512510Y-88370685D01*
X67535017Y-88140289D01*
X67497509Y-88021208D01*
X67417843Y-87972374D01*
X67281456Y-87904307D01*
X67044139Y-87769468D01*
X66747818Y-87592005D01*
X66613092Y-87508849D01*
X66316197Y-87328661D01*
X66071742Y-87189131D01*
X65916167Y-87110658D01*
X65883877Y-87100666D01*
X65794636Y-87045067D01*
X65616650Y-86895930D01*
X65380619Y-86679746D01*
X65244046Y-86548565D01*
X64988126Y-86280808D01*
X64820564Y-86071111D01*
X64743903Y-85933911D01*
X64760688Y-85883644D01*
X64873465Y-85934747D01*
G37*
G36*
X65259210Y-83732597D02*
G01*
X65598401Y-83835274D01*
X65822712Y-83913239D01*
X66152356Y-84052776D01*
X66316807Y-84177723D01*
X66338138Y-84236442D01*
X66416615Y-84348769D01*
X66644092Y-84512807D01*
X67010699Y-84721667D01*
X67100138Y-84768360D01*
X67545194Y-85009392D01*
X67896278Y-85222627D01*
X68143103Y-85399001D01*
X68275386Y-85529448D01*
X68282839Y-85604905D01*
X68155179Y-85616308D01*
X68038601Y-85595411D01*
X67884636Y-85537625D01*
X67637896Y-85421425D01*
X67361267Y-85277034D01*
X66823708Y-84998573D01*
X66371069Y-84806642D01*
X65952108Y-84687101D01*
X65515587Y-84625810D01*
X65010264Y-84608628D01*
X64940000Y-84608876D01*
X64430086Y-84624085D01*
X64054349Y-84664705D01*
X63778971Y-84734892D01*
X63718510Y-84758986D01*
X63454759Y-84845528D01*
X63307091Y-84823516D01*
X63299410Y-84816609D01*
X63255246Y-84727964D01*
X63320556Y-84639688D01*
X63513140Y-84539375D01*
X63850805Y-84414620D01*
X63900162Y-84398005D01*
X64118807Y-84349000D01*
X66125333Y-84349000D01*
X66167667Y-84391333D01*
X66210000Y-84349000D01*
X66167667Y-84306666D01*
X66125333Y-84349000D01*
X64118807Y-84349000D01*
X64398001Y-84286424D01*
X65738721Y-84286424D01*
X65821944Y-84299982D01*
X65931758Y-84284415D01*
X65933069Y-84255513D01*
X65819752Y-84235302D01*
X65770792Y-84248829D01*
X65738721Y-84286424D01*
X64398001Y-84286424D01*
X64541368Y-84254291D01*
X65036107Y-84222000D01*
X65377501Y-84215998D01*
X65559827Y-84199883D01*
X65580515Y-84176484D01*
X65436995Y-84148635D01*
X65129242Y-84119354D01*
X64885460Y-84087383D01*
X64733387Y-84040575D01*
X64705908Y-84006463D01*
X64792757Y-83948756D01*
X64838984Y-83952225D01*
X64920695Y-83910314D01*
X64923651Y-83824651D01*
X64940370Y-83729112D01*
X65046044Y-83697818D01*
X65259210Y-83732597D01*
G37*
G36*
X76820115Y-79556092D02*
G01*
X77008658Y-79704672D01*
X77133709Y-79994919D01*
X77138193Y-80011273D01*
X77201493Y-80489427D01*
X77159073Y-80998443D01*
X77024426Y-81492935D01*
X76811044Y-81927517D01*
X76532420Y-82256803D01*
X76452239Y-82318681D01*
X76009486Y-82542038D01*
X75479182Y-82682633D01*
X74926699Y-82730431D01*
X74417406Y-82675392D01*
X74313217Y-82647121D01*
X73962547Y-82489081D01*
X73648853Y-82258716D01*
X73393382Y-81985205D01*
X73217381Y-81697731D01*
X73142099Y-81425475D01*
X73159655Y-81339791D01*
X73401418Y-81339791D01*
X73574309Y-81678684D01*
X73780501Y-81984121D01*
X74050278Y-82188055D01*
X74411775Y-82302623D01*
X74893126Y-82339962D01*
X75100000Y-82336875D01*
X75502264Y-82308831D01*
X75842004Y-82257224D01*
X76066592Y-82190116D01*
X76070506Y-82188195D01*
X76365492Y-81954132D01*
X76603698Y-81596765D01*
X76769035Y-81157162D01*
X76845414Y-80676390D01*
X76827054Y-80257082D01*
X76770738Y-79881540D01*
X76041202Y-79935104D01*
X75591598Y-79967775D01*
X75074641Y-80004831D01*
X74591912Y-80038998D01*
X74528500Y-80043440D01*
X73745333Y-80098212D01*
X73745333Y-80336638D01*
X73796175Y-80654437D01*
X73929345Y-81033318D01*
X74115809Y-81406798D01*
X74326533Y-81708396D01*
X74360681Y-81745664D01*
X74530360Y-81958683D01*
X74552170Y-82090984D01*
X74541031Y-82105501D01*
X74425835Y-82101397D01*
X74199900Y-81970069D01*
X73928972Y-81764899D01*
X73401418Y-81339791D01*
X73159655Y-81339791D01*
X73188784Y-81197618D01*
X73223003Y-81149847D01*
X73363509Y-81047058D01*
X73457327Y-81038479D01*
X73518340Y-81025686D01*
X73506422Y-80894216D01*
X73483836Y-80809191D01*
X73413178Y-80421100D01*
X73435379Y-80104015D01*
X73547643Y-79894205D01*
X73554833Y-79887811D01*
X73697773Y-79832544D01*
X73992261Y-79773294D01*
X74420625Y-79712205D01*
X74965191Y-79651419D01*
X75608285Y-79593081D01*
X76332233Y-79539333D01*
X76539333Y-79525882D01*
X76820115Y-79556092D01*
G37*
G36*
X65185595Y-85054477D02*
G01*
X65481293Y-85108574D01*
X65832271Y-85208744D01*
X66207254Y-85341254D01*
X66574965Y-85492372D01*
X66904131Y-85648369D01*
X67163474Y-85795511D01*
X67321720Y-85920069D01*
X67350052Y-86004769D01*
X67372987Y-86072488D01*
X67438236Y-86084666D01*
X67623774Y-86123580D01*
X67745033Y-86175237D01*
X67858454Y-86267257D01*
X67824929Y-86373009D01*
X67813766Y-86386904D01*
X67645288Y-86470068D01*
X67336605Y-86498861D01*
X66907727Y-86473726D01*
X66378664Y-86395104D01*
X66149638Y-86350070D01*
X65729950Y-86238410D01*
X65396956Y-86102738D01*
X65282567Y-86028222D01*
X66407555Y-86028222D01*
X66419178Y-86078556D01*
X66464000Y-86084666D01*
X66533690Y-86053688D01*
X66520444Y-86028222D01*
X66419965Y-86018089D01*
X66407555Y-86028222D01*
X65282567Y-86028222D01*
X65208169Y-85979757D01*
X65992721Y-85979757D01*
X66075944Y-85993315D01*
X66185758Y-85977749D01*
X66187069Y-85948847D01*
X66073752Y-85928635D01*
X66024792Y-85942163D01*
X65992721Y-85979757D01*
X65208169Y-85979757D01*
X65171933Y-85956152D01*
X65107421Y-85858888D01*
X65730222Y-85858888D01*
X65741844Y-85909223D01*
X65786667Y-85915333D01*
X65856357Y-85884355D01*
X65843111Y-85858888D01*
X65742631Y-85848755D01*
X65730222Y-85858888D01*
X65107421Y-85858888D01*
X65076158Y-85811754D01*
X65106086Y-85707579D01*
X65106898Y-85698863D01*
X65305855Y-85698863D01*
X65363333Y-85746000D01*
X65517682Y-85817643D01*
X65575000Y-85828073D01*
X65590145Y-85793136D01*
X65532667Y-85746000D01*
X65378318Y-85674356D01*
X65321000Y-85663926D01*
X65305855Y-85698863D01*
X65106898Y-85698863D01*
X65116854Y-85592049D01*
X65033940Y-85517439D01*
X65033067Y-85516269D01*
X65800314Y-85516269D01*
X65820915Y-85563584D01*
X65906165Y-85654478D01*
X65955176Y-85635832D01*
X65956000Y-85623996D01*
X65895863Y-85552384D01*
X65858251Y-85526248D01*
X65800314Y-85516269D01*
X65033067Y-85516269D01*
X64972821Y-85435555D01*
X65476222Y-85435555D01*
X65487844Y-85485889D01*
X65532667Y-85492000D01*
X65602357Y-85461021D01*
X65589111Y-85435555D01*
X65488631Y-85425422D01*
X65476222Y-85435555D01*
X64972821Y-85435555D01*
X64917711Y-85361721D01*
X64916087Y-85350888D01*
X65222222Y-85350888D01*
X65233844Y-85401223D01*
X65278667Y-85407333D01*
X65348357Y-85376355D01*
X65335111Y-85350888D01*
X65234631Y-85340755D01*
X65222222Y-85350888D01*
X64916087Y-85350888D01*
X64905510Y-85280333D01*
X65024667Y-85280333D01*
X65067000Y-85322666D01*
X65109333Y-85280333D01*
X65067000Y-85238000D01*
X65024667Y-85280333D01*
X64905510Y-85280333D01*
X64897154Y-85224595D01*
X64931838Y-85089499D01*
X65042765Y-85046874D01*
X65185595Y-85054477D01*
G37*
G36*
X65159521Y-79485222D02*
G01*
X65185146Y-79505679D01*
X65265419Y-79551934D01*
X65278667Y-79529566D01*
X65329860Y-79514595D01*
X65395866Y-79557199D01*
X65449269Y-79632010D01*
X65455173Y-79755730D01*
X65409509Y-79966009D01*
X65319302Y-80265606D01*
X65218183Y-80620802D01*
X65181309Y-80881474D01*
X65223548Y-81054123D01*
X65359766Y-81145252D01*
X65604828Y-81161359D01*
X65913035Y-81117555D01*
X67169555Y-81117555D01*
X67181178Y-81167889D01*
X67226000Y-81174000D01*
X67295690Y-81143021D01*
X67282444Y-81117555D01*
X67181965Y-81107422D01*
X67169555Y-81117555D01*
X65913035Y-81117555D01*
X65973601Y-81108947D01*
X66310822Y-81032888D01*
X67508222Y-81032888D01*
X67519844Y-81083223D01*
X67564667Y-81089333D01*
X67634357Y-81058355D01*
X67621111Y-81032888D01*
X67520631Y-81022755D01*
X67508222Y-81032888D01*
X66310822Y-81032888D01*
X66480951Y-80994516D01*
X66663963Y-80948222D01*
X67846889Y-80948222D01*
X67858511Y-80998556D01*
X67903333Y-81004666D01*
X67973023Y-80973688D01*
X67959778Y-80948222D01*
X67859298Y-80938089D01*
X67846889Y-80948222D01*
X66663963Y-80948222D01*
X66801011Y-80913555D01*
X67350249Y-80782471D01*
X67764354Y-80706882D01*
X68036805Y-80687417D01*
X68161080Y-80724699D01*
X68157333Y-80783301D01*
X68193320Y-80863620D01*
X68319852Y-80934048D01*
X68449497Y-81020293D01*
X68416914Y-81117586D01*
X68228352Y-81219975D01*
X67921144Y-81313889D01*
X67597091Y-81403762D01*
X67276911Y-81506386D01*
X67197775Y-81534878D01*
X67073699Y-81584864D01*
X67031028Y-81617330D01*
X67088189Y-81634458D01*
X67263609Y-81638426D01*
X67575716Y-81631414D01*
X67917441Y-81620022D01*
X68576083Y-81610989D01*
X69079364Y-81635066D01*
X69424242Y-81691844D01*
X69607678Y-81780916D01*
X69639000Y-81851532D01*
X69576839Y-81932650D01*
X69377192Y-81978023D01*
X69215667Y-81989489D01*
X68491855Y-82021790D01*
X67909366Y-82051031D01*
X67440294Y-82080165D01*
X67056736Y-82112147D01*
X66730786Y-82149930D01*
X66434541Y-82196469D01*
X66140096Y-82254718D01*
X65819546Y-82327631D01*
X65659667Y-82365935D01*
X65065144Y-82485566D01*
X64445687Y-82568342D01*
X63847852Y-82610957D01*
X63318193Y-82610110D01*
X62903268Y-82562496D01*
X62899880Y-82561778D01*
X62562827Y-82479408D01*
X62230757Y-82381993D01*
X62103055Y-82338112D01*
X61821390Y-82210716D01*
X61518806Y-82038813D01*
X61239638Y-81851923D01*
X61028223Y-81679562D01*
X60931149Y-81557866D01*
X60920992Y-81420966D01*
X61019068Y-81389173D01*
X61200337Y-81463131D01*
X61324663Y-81547770D01*
X61833958Y-81855754D01*
X62434943Y-82089369D01*
X62888539Y-82195587D01*
X63147377Y-82222134D01*
X63475690Y-82232725D01*
X63833800Y-82229180D01*
X64182028Y-82213319D01*
X64480697Y-82186960D01*
X64690128Y-82151924D01*
X64770643Y-82110030D01*
X64770667Y-82109280D01*
X64703565Y-82037305D01*
X64533802Y-81921350D01*
X64433047Y-81862095D01*
X64257872Y-81736354D01*
X64228473Y-81710668D01*
X64867466Y-81710668D01*
X64926122Y-81788165D01*
X64996195Y-81935578D01*
X64987725Y-82011942D01*
X65030842Y-82044977D01*
X65178019Y-82051062D01*
X65366941Y-82034761D01*
X65535293Y-82000637D01*
X65610278Y-81966349D01*
X65566572Y-81943628D01*
X65438616Y-81936000D01*
X65344509Y-81915757D01*
X65738721Y-81915757D01*
X65821944Y-81929315D01*
X65931758Y-81913749D01*
X65933069Y-81884847D01*
X65819752Y-81864635D01*
X65770792Y-81878163D01*
X65738721Y-81915757D01*
X65344509Y-81915757D01*
X65214428Y-81887776D01*
X65028378Y-81794888D01*
X66238222Y-81794888D01*
X66249844Y-81845223D01*
X66294667Y-81851333D01*
X66364357Y-81820355D01*
X66351111Y-81794888D01*
X66250631Y-81784755D01*
X66238222Y-81794888D01*
X65028378Y-81794888D01*
X65022339Y-81791873D01*
X64953133Y-81746424D01*
X66585388Y-81746424D01*
X66668611Y-81759982D01*
X66778425Y-81744415D01*
X66779736Y-81715513D01*
X66666419Y-81695302D01*
X66617458Y-81708829D01*
X66585388Y-81746424D01*
X64953133Y-81746424D01*
X64885560Y-81702047D01*
X64867466Y-81710668D01*
X64228473Y-81710668D01*
X64025619Y-81533431D01*
X63766390Y-81284450D01*
X63510285Y-81020533D01*
X63287406Y-80772805D01*
X63127852Y-80572388D01*
X63061726Y-80450407D01*
X63061404Y-80443859D01*
X63095650Y-80366024D01*
X63195760Y-80381105D01*
X63374632Y-80497172D01*
X63645164Y-80722299D01*
X63953039Y-81001926D01*
X64271232Y-81291617D01*
X64518831Y-81505898D01*
X64685666Y-81638020D01*
X64761564Y-81681234D01*
X64736354Y-81628792D01*
X64599865Y-81473945D01*
X64486719Y-81356017D01*
X64299199Y-81146380D01*
X64270497Y-81091661D01*
X64856630Y-81091661D01*
X64929997Y-81320445D01*
X65152279Y-81484338D01*
X65196390Y-81503082D01*
X65397900Y-81569440D01*
X65522560Y-81587000D01*
X65542457Y-81559606D01*
X65429678Y-81491104D01*
X65421654Y-81487496D01*
X65839530Y-81487496D01*
X65956000Y-81499298D01*
X66076195Y-81485992D01*
X66061833Y-81456593D01*
X65888491Y-81445410D01*
X65850167Y-81456593D01*
X65839530Y-81487496D01*
X65421654Y-81487496D01*
X65395363Y-81475674D01*
X65225859Y-81371555D01*
X66322889Y-81371555D01*
X66334511Y-81421889D01*
X66379333Y-81428000D01*
X66449023Y-81397021D01*
X66435778Y-81371555D01*
X66335298Y-81361422D01*
X66322889Y-81371555D01*
X65225859Y-81371555D01*
X65165288Y-81334349D01*
X65117393Y-81286888D01*
X66661555Y-81286888D01*
X66673178Y-81337223D01*
X66718000Y-81343333D01*
X66787690Y-81312355D01*
X66774444Y-81286888D01*
X66673965Y-81276755D01*
X66661555Y-81286888D01*
X65117393Y-81286888D01*
X65031954Y-81202222D01*
X66915555Y-81202222D01*
X66927178Y-81252556D01*
X66972000Y-81258666D01*
X67041690Y-81227688D01*
X67028444Y-81202222D01*
X66927965Y-81192089D01*
X66915555Y-81202222D01*
X65031954Y-81202222D01*
X64993196Y-81163815D01*
X64892893Y-81051552D01*
X64856633Y-81087522D01*
X64856630Y-81091661D01*
X64270497Y-81091661D01*
X64217408Y-80990450D01*
X64216678Y-80833910D01*
X64217437Y-80830336D01*
X64770667Y-80830336D01*
X64832127Y-80916554D01*
X64855333Y-80920000D01*
X64937799Y-80891113D01*
X64940000Y-80882663D01*
X64880671Y-80810377D01*
X64855333Y-80793000D01*
X64777314Y-80799712D01*
X64770667Y-80830336D01*
X64217437Y-80830336D01*
X64227172Y-80784517D01*
X64314666Y-80576437D01*
X64341888Y-80531944D01*
X64862017Y-80531944D01*
X64877584Y-80641758D01*
X64906486Y-80643069D01*
X64926697Y-80529752D01*
X64913170Y-80480791D01*
X64875575Y-80448721D01*
X64862017Y-80531944D01*
X64341888Y-80531944D01*
X64446423Y-80361089D01*
X64973867Y-80361089D01*
X65120726Y-80028225D01*
X65205180Y-79819950D01*
X65244185Y-79689139D01*
X65242910Y-79670688D01*
X65154804Y-79674175D01*
X65096051Y-79692900D01*
X65005952Y-79812122D01*
X64973867Y-80050438D01*
X64973867Y-80361089D01*
X64446423Y-80361089D01*
X64472541Y-80318401D01*
X64576304Y-80179166D01*
X64671665Y-80050438D01*
X64721254Y-79983498D01*
X64793273Y-79852810D01*
X64786702Y-79819333D01*
X64671154Y-79877485D01*
X64602107Y-79945401D01*
X64481052Y-80028081D01*
X64418295Y-80022530D01*
X64392865Y-79929871D01*
X64510468Y-79787274D01*
X64757787Y-79609823D01*
X64810860Y-79577814D01*
X65027501Y-79475857D01*
X65159521Y-79485222D01*
G37*
G36*
X82995201Y-73373833D02*
G01*
X83017028Y-73532833D01*
X82982866Y-73695176D01*
X82916128Y-73747456D01*
X82843388Y-73809383D01*
X82779955Y-73985817D01*
X82768306Y-74043789D01*
X82717954Y-74326461D01*
X82669768Y-74582176D01*
X82667512Y-74593586D01*
X82655382Y-74753358D01*
X82691575Y-74805252D01*
X82761546Y-74844431D01*
X82764835Y-74866333D01*
X82703753Y-74928762D01*
X82659002Y-74926121D01*
X82559835Y-74967000D01*
X82549010Y-75010788D01*
X82517426Y-75128481D01*
X82432749Y-75366953D01*
X82308028Y-75691097D01*
X82162163Y-76051666D01*
X81988495Y-76482940D01*
X81820845Y-76919026D01*
X81681228Y-77301633D01*
X81607918Y-77519181D01*
X81547013Y-77713720D01*
X81506751Y-77875034D01*
X81493144Y-78028310D01*
X81512206Y-78198736D01*
X81569948Y-78411501D01*
X81672384Y-78691792D01*
X81825525Y-79064797D01*
X82035385Y-79555704D01*
X82167088Y-79861666D01*
X82344634Y-80274648D01*
X82503293Y-80644287D01*
X82628449Y-80936490D01*
X82705487Y-81117165D01*
X82716754Y-81143863D01*
X82757853Y-81224443D01*
X82816721Y-81258384D01*
X82924260Y-81238198D01*
X83111371Y-81156398D01*
X83408954Y-81005496D01*
X83515296Y-80950351D01*
X83832663Y-80779841D01*
X84091028Y-80630263D01*
X84254297Y-80523066D01*
X84290736Y-80489543D01*
X84389167Y-80456939D01*
X84462202Y-80502090D01*
X84567084Y-80547945D01*
X84630886Y-80442702D01*
X84747667Y-80135388D01*
X84849767Y-79962314D01*
X84921541Y-79926665D01*
X84947346Y-80031628D01*
X84911539Y-80280388D01*
X84884466Y-80391057D01*
X84776167Y-80736257D01*
X84653929Y-81025183D01*
X84534669Y-81225461D01*
X84435305Y-81304715D01*
X84410038Y-81298963D01*
X84386774Y-81194128D01*
X84455977Y-81004066D01*
X84557109Y-80789412D01*
X84561930Y-80710054D01*
X84462968Y-80761275D01*
X84294060Y-80901858D01*
X84034320Y-81082651D01*
X83712593Y-81245731D01*
X83575389Y-81298102D01*
X83324351Y-81392914D01*
X83145570Y-81481608D01*
X83094458Y-81523251D01*
X82996970Y-81550923D01*
X82925368Y-81507439D01*
X82863858Y-81475166D01*
X82858457Y-81543591D01*
X82909977Y-81738262D01*
X82935323Y-81820828D01*
X83090097Y-82363770D01*
X83234160Y-82952411D01*
X83353480Y-83523678D01*
X83434025Y-84014496D01*
X83446710Y-84119555D01*
X83504639Y-84652111D01*
X83884849Y-84077222D01*
X84361815Y-83428278D01*
X84835027Y-82936294D01*
X85318772Y-82589863D01*
X85827338Y-82377575D01*
X86085860Y-82319741D01*
X86293409Y-82268516D01*
X86398272Y-82209109D01*
X86400196Y-82185462D01*
X86415953Y-82077292D01*
X86507923Y-81886726D01*
X86576414Y-81775686D01*
X86774036Y-81361309D01*
X86848973Y-80929205D01*
X86803548Y-80518433D01*
X86640088Y-80168053D01*
X86470119Y-79989990D01*
X86272892Y-79878283D01*
X86068533Y-79824347D01*
X85910691Y-79835160D01*
X85852667Y-79909705D01*
X85918117Y-79961910D01*
X86013491Y-79949033D01*
X86180214Y-79966015D01*
X86360180Y-80133546D01*
X86360402Y-80133828D01*
X86502077Y-80436750D01*
X86507704Y-80777698D01*
X86395969Y-81125910D01*
X86185558Y-81450626D01*
X85895156Y-81721086D01*
X85543450Y-81906530D01*
X85243825Y-81971929D01*
X84984960Y-82003774D01*
X84784540Y-82044761D01*
X84746974Y-82057250D01*
X84587335Y-82093199D01*
X84333203Y-82122960D01*
X84196640Y-82132208D01*
X83931943Y-82156510D01*
X83732802Y-82194318D01*
X83678350Y-82215391D01*
X83555552Y-82218931D01*
X83521705Y-82185748D01*
X83510615Y-82057779D01*
X83658636Y-81976702D01*
X83716558Y-81964988D01*
X84081030Y-81896993D01*
X84491356Y-81807581D01*
X84903078Y-81707925D01*
X85271740Y-81609199D01*
X85552883Y-81522575D01*
X85681973Y-81471036D01*
X85939225Y-81260781D01*
X86114422Y-80968543D01*
X86172534Y-80657485D01*
X86166767Y-80596878D01*
X86142134Y-80452147D01*
X86129362Y-80464138D01*
X86119352Y-80628224D01*
X86028828Y-80902606D01*
X85806963Y-81172586D01*
X85489244Y-81404752D01*
X85129325Y-81560342D01*
X84825433Y-81632939D01*
X84667312Y-81630998D01*
X84654442Y-81565257D01*
X84786301Y-81446454D01*
X85062368Y-81285328D01*
X85144673Y-81244160D01*
X85493339Y-81051849D01*
X85694699Y-80869467D01*
X85764970Y-80662958D01*
X85720367Y-80398267D01*
X85644229Y-80195001D01*
X85602021Y-80081917D01*
X85961318Y-80081917D01*
X85979083Y-80166755D01*
X85985110Y-80182818D01*
X86052182Y-80286496D01*
X86090315Y-80287240D01*
X86080818Y-80197675D01*
X86032506Y-80135422D01*
X85961318Y-80081917D01*
X85602021Y-80081917D01*
X85565533Y-79984160D01*
X85565214Y-79853022D01*
X85651573Y-79727132D01*
X85702574Y-79671852D01*
X85940820Y-79523014D01*
X86219677Y-79536431D01*
X86534249Y-79711255D01*
X86685935Y-79842151D01*
X87016080Y-80250580D01*
X87179716Y-80688642D01*
X87176496Y-81154673D01*
X87044375Y-81567021D01*
X86885135Y-81917708D01*
X87236734Y-82070443D01*
X87509013Y-82200618D01*
X87751638Y-82335613D01*
X87801398Y-82367611D01*
X87937587Y-82434995D01*
X88131078Y-82478744D01*
X88416086Y-82503145D01*
X88826829Y-82512486D01*
X88961715Y-82512979D01*
X89437055Y-82518300D01*
X89762904Y-82535770D01*
X89958907Y-82569304D01*
X90044706Y-82622814D01*
X90039944Y-82700214D01*
X90026119Y-82725016D01*
X89965748Y-82874898D01*
X89961238Y-82909666D01*
X89894340Y-82991945D01*
X89874333Y-82994333D01*
X89805275Y-82928140D01*
X89802887Y-82879732D01*
X89777066Y-82829488D01*
X89669165Y-82798991D01*
X89454589Y-82786021D01*
X89108744Y-82788364D01*
X88863535Y-82795065D01*
X88369563Y-82802146D01*
X88030410Y-82786611D01*
X87832961Y-82747574D01*
X87787107Y-82722321D01*
X87619979Y-82615422D01*
X87373060Y-82490015D01*
X87108229Y-82373901D01*
X86887367Y-82294878D01*
X86794800Y-82276526D01*
X86723209Y-82301936D01*
X86777744Y-82394128D01*
X86830208Y-82472950D01*
X86814889Y-82531239D01*
X86705800Y-82582579D01*
X86476955Y-82640549D01*
X86191333Y-82700592D01*
X85716440Y-82833591D01*
X85298301Y-83037418D01*
X84908960Y-83333708D01*
X84520463Y-83744097D01*
X84104855Y-84290218D01*
X84066174Y-84345323D01*
X83829392Y-84667358D01*
X83662634Y-84851882D01*
X83554916Y-84910081D01*
X83523199Y-84898392D01*
X83423632Y-84887114D01*
X83325512Y-85031952D01*
X83176451Y-85227330D01*
X82916597Y-85384040D01*
X82531261Y-85506899D01*
X82005753Y-85600727D01*
X81396497Y-85664684D01*
X80979022Y-85700549D01*
X80619959Y-85734739D01*
X80354553Y-85763660D01*
X80218047Y-85783718D01*
X80211484Y-85785528D01*
X80073290Y-85762262D01*
X80024572Y-85726038D01*
X79901498Y-85681905D01*
X79817565Y-85730592D01*
X79686136Y-85772492D01*
X79418898Y-85810064D01*
X79048224Y-85842401D01*
X78606490Y-85868600D01*
X78126072Y-85887755D01*
X77639345Y-85898962D01*
X77178683Y-85901316D01*
X76776463Y-85893911D01*
X76465059Y-85875844D01*
X76276847Y-85846209D01*
X76242798Y-85830499D01*
X76105550Y-85764486D01*
X76010812Y-85817321D01*
X75891699Y-85851966D01*
X75630138Y-85877839D01*
X75252789Y-85894851D01*
X74786313Y-85902912D01*
X74257372Y-85901934D01*
X73692628Y-85891826D01*
X73118741Y-85872499D01*
X72562373Y-85843864D01*
X72348333Y-85829614D01*
X71800502Y-85786657D01*
X71392807Y-85742797D01*
X71096171Y-85690772D01*
X70881518Y-85623320D01*
X70719770Y-85533178D01*
X70581849Y-85413086D01*
X70550590Y-85380622D01*
X70362626Y-85136229D01*
X70219780Y-84873826D01*
X70200688Y-84823199D01*
X70128895Y-84457528D01*
X70116996Y-84179666D01*
X70468106Y-84179666D01*
X70532425Y-84649975D01*
X70654230Y-84981590D01*
X70857346Y-85201774D01*
X71165599Y-85337788D01*
X71542982Y-85409532D01*
X71798892Y-85444263D01*
X71971002Y-85470836D01*
X72015833Y-85480898D01*
X71999164Y-85411275D01*
X71949450Y-85216964D01*
X71876711Y-84937046D01*
X71861312Y-84878166D01*
X71782261Y-84524248D01*
X71739486Y-84176667D01*
X71728241Y-83774771D01*
X71740446Y-83333000D01*
X71788032Y-82733260D01*
X71884580Y-82163879D01*
X72041337Y-81585446D01*
X72269548Y-80958556D01*
X72580461Y-80243801D01*
X72687294Y-80015319D01*
X72967994Y-79446996D01*
X73212571Y-79012180D01*
X73439495Y-78684086D01*
X73667239Y-78435929D01*
X73908015Y-78245160D01*
X74207975Y-78041333D01*
X73805205Y-78041333D01*
X73483143Y-78010892D01*
X73117897Y-77933499D01*
X72946450Y-77881067D01*
X72490463Y-77720800D01*
X72577384Y-77970141D01*
X72606146Y-78257356D01*
X72512273Y-78617840D01*
X72291685Y-79063368D01*
X72083381Y-79396688D01*
X71875719Y-79735583D01*
X71672562Y-80109030D01*
X71567366Y-80327333D01*
X71432839Y-80630092D01*
X71308402Y-80910574D01*
X71247998Y-81047000D01*
X70870381Y-81990226D01*
X70614063Y-82835380D01*
X70480385Y-83577074D01*
X70468106Y-84179666D01*
X70116996Y-84179666D01*
X70108646Y-83984694D01*
X70138128Y-83458239D01*
X70215526Y-82931707D01*
X70273338Y-82678587D01*
X70434116Y-82155873D01*
X70660072Y-81543742D01*
X70928153Y-80895997D01*
X71215306Y-80266439D01*
X71498478Y-79708868D01*
X71683180Y-79388282D01*
X71879255Y-79055286D01*
X72052313Y-78732376D01*
X72171390Y-78478077D01*
X72189057Y-78432191D01*
X72247731Y-78244312D01*
X72254575Y-78095371D01*
X72198763Y-77927068D01*
X72069465Y-77681100D01*
X72063848Y-77671062D01*
X73329055Y-77671062D01*
X73374381Y-77692851D01*
X73545503Y-77702194D01*
X73799477Y-77700759D01*
X74093354Y-77690213D01*
X74384189Y-77672224D01*
X74506709Y-77660333D01*
X75608000Y-77660333D01*
X75650333Y-77702666D01*
X75692667Y-77660333D01*
X75650333Y-77618000D01*
X75608000Y-77660333D01*
X74506709Y-77660333D01*
X74629034Y-77648461D01*
X74784943Y-77620590D01*
X74803667Y-77613793D01*
X74810251Y-77591871D01*
X75801287Y-77591871D01*
X75888731Y-77608154D01*
X75946667Y-77606686D01*
X76190324Y-77578400D01*
X76412333Y-77533333D01*
X76562389Y-77492058D01*
X76570948Y-77471888D01*
X76426346Y-77462714D01*
X76327667Y-77459980D01*
X76077634Y-77474033D01*
X75887780Y-77519830D01*
X75862000Y-77533333D01*
X75801287Y-77591871D01*
X74810251Y-77591871D01*
X74813327Y-77581631D01*
X74663957Y-77569250D01*
X74364741Y-77577020D01*
X74168667Y-77588139D01*
X73818251Y-77613385D01*
X73537156Y-77639081D01*
X73364249Y-77661387D01*
X73329055Y-77671062D01*
X72063848Y-77671062D01*
X72039672Y-77627858D01*
X71628780Y-76876377D01*
X71290171Y-76216782D01*
X71029927Y-75661875D01*
X70854132Y-75224458D01*
X70780572Y-74977691D01*
X70749100Y-74813690D01*
X71206366Y-74813690D01*
X71254172Y-75130131D01*
X71372357Y-75508170D01*
X71567474Y-75976351D01*
X71808931Y-76487452D01*
X71982514Y-76832486D01*
X72118303Y-77061118D01*
X72248355Y-77211205D01*
X72404724Y-77320602D01*
X72595114Y-77415863D01*
X72839775Y-77525951D01*
X73018160Y-77599123D01*
X73077390Y-77617172D01*
X73071599Y-77544265D01*
X73014546Y-77347100D01*
X72916622Y-77059129D01*
X72834371Y-76834833D01*
X72643402Y-76257930D01*
X72534097Y-75738622D01*
X72496524Y-75368840D01*
X72479344Y-75016971D01*
X72488095Y-74778544D01*
X72532354Y-74598459D01*
X72621699Y-74421615D01*
X72676711Y-74332298D01*
X72900002Y-73978582D01*
X72418841Y-74286377D01*
X71937679Y-74594172D01*
X71661859Y-74293201D01*
X71386039Y-73992229D01*
X71295686Y-74251415D01*
X71222388Y-74530299D01*
X71206366Y-74813690D01*
X70749100Y-74813690D01*
X70725063Y-74688430D01*
X70722190Y-74488515D01*
X70776876Y-74304820D01*
X70834100Y-74182537D01*
X71006128Y-73922783D01*
X71238838Y-73670141D01*
X71308459Y-73610324D01*
X71514710Y-73461777D01*
X71646694Y-73418134D01*
X71749365Y-73464103D01*
X71838040Y-73645337D01*
X71826156Y-73815384D01*
X71825397Y-73995039D01*
X71922493Y-74060483D01*
X72124599Y-74010964D01*
X72438871Y-73845727D01*
X72621641Y-73731577D01*
X72891845Y-73562672D01*
X73061347Y-73478894D01*
X73168291Y-73468439D01*
X73250822Y-73519504D01*
X73264399Y-73532685D01*
X73323417Y-73613047D01*
X73331012Y-73715619D01*
X73278418Y-73878052D01*
X73156868Y-74137993D01*
X73094285Y-74263199D01*
X72941110Y-74580595D01*
X72855471Y-74815012D01*
X72823120Y-75031748D01*
X72829811Y-75296097D01*
X72840093Y-75428183D01*
X72880349Y-75707291D01*
X72954177Y-76054495D01*
X73049063Y-76425165D01*
X73152492Y-76774671D01*
X73251949Y-77058382D01*
X73334918Y-77231669D01*
X73351677Y-77252566D01*
X73444298Y-77258137D01*
X73680725Y-77250955D01*
X74036024Y-77232392D01*
X74485257Y-77203819D01*
X75003489Y-77166609D01*
X75228081Y-77149334D01*
X75922248Y-77098234D01*
X76493592Y-77065260D01*
X76987568Y-77049689D01*
X77449633Y-77050793D01*
X77925243Y-77067846D01*
X78431419Y-77098187D01*
X78917694Y-77134964D01*
X79364212Y-77175740D01*
X79734727Y-77216682D01*
X79992991Y-77253960D01*
X80075800Y-77272017D01*
X80265144Y-77311579D01*
X80303888Y-77275048D01*
X80299763Y-77267623D01*
X80312792Y-77151265D01*
X80415575Y-76997898D01*
X80640611Y-76679618D01*
X80858229Y-76238967D01*
X81045871Y-75722229D01*
X81059660Y-75676466D01*
X81118731Y-75406478D01*
X81161891Y-75072446D01*
X81188139Y-74713417D01*
X81196471Y-74368440D01*
X81185885Y-74076563D01*
X81155379Y-73876833D01*
X81107622Y-73807999D01*
X81041289Y-73871196D01*
X81043547Y-73913833D01*
X81015443Y-74010723D01*
X80983759Y-74019666D01*
X80920421Y-73966740D01*
X80923804Y-73947254D01*
X80897663Y-73827098D01*
X80856193Y-73764292D01*
X80821955Y-73642127D01*
X80902420Y-73573106D01*
X81035737Y-73601939D01*
X81093414Y-73595234D01*
X81072365Y-73479936D01*
X81058779Y-73340814D01*
X81164549Y-73300290D01*
X81183728Y-73300000D01*
X81334269Y-73378554D01*
X81452959Y-73594058D01*
X81534817Y-73916274D01*
X81574863Y-74314965D01*
X81568114Y-74759891D01*
X81509591Y-75220815D01*
X81504516Y-75247333D01*
X81419005Y-75594268D01*
X81296394Y-75977698D01*
X81152973Y-76357555D01*
X81005034Y-76693772D01*
X80868867Y-76946282D01*
X80761607Y-77074501D01*
X80760408Y-77151512D01*
X80894341Y-77272994D01*
X80939306Y-77302768D01*
X81209522Y-77473856D01*
X80973576Y-77661993D01*
X80765645Y-77788976D01*
X80568177Y-77798350D01*
X80494798Y-77780487D01*
X80305657Y-77740472D01*
X79999355Y-77690805D01*
X79627147Y-77639420D01*
X79420318Y-77614160D01*
X78890589Y-77576375D01*
X78320944Y-77585547D01*
X77684337Y-77644535D01*
X76953724Y-77756193D01*
X76102059Y-77923379D01*
X75735000Y-78003414D01*
X75112680Y-78145927D01*
X74628806Y-78274284D01*
X74255976Y-78408528D01*
X73966793Y-78568703D01*
X73733856Y-78774851D01*
X73529767Y-79047015D01*
X73327127Y-79405238D01*
X73098535Y-79869564D01*
X73052714Y-79965545D01*
X72856973Y-80384019D01*
X72677695Y-80781417D01*
X72533438Y-81115669D01*
X72442758Y-81344705D01*
X72436553Y-81362545D01*
X72199197Y-82246983D01*
X72075989Y-83142843D01*
X72069603Y-84009104D01*
X72182714Y-84804742D01*
X72205943Y-84899333D01*
X72348333Y-85449666D01*
X73068000Y-85515218D01*
X73461802Y-85540453D01*
X73952603Y-85556460D01*
X74468235Y-85561480D01*
X74803667Y-85557552D01*
X75819667Y-85534333D01*
X75824870Y-85485287D01*
X76479531Y-85485287D01*
X76510624Y-85523075D01*
X76601984Y-85546434D01*
X76775848Y-85556811D01*
X77054450Y-85555653D01*
X77460022Y-85544406D01*
X77950803Y-85526897D01*
X78437909Y-85507335D01*
X78765547Y-85492000D01*
X79841333Y-85492000D01*
X79872311Y-85561690D01*
X79897778Y-85548444D01*
X79907911Y-85447964D01*
X79897778Y-85435555D01*
X79847443Y-85447177D01*
X79841333Y-85492000D01*
X78765547Y-85492000D01*
X78863294Y-85487425D01*
X79199357Y-85468688D01*
X79418497Y-85452649D01*
X79492896Y-85441821D01*
X79489846Y-85351317D01*
X79437352Y-85177214D01*
X79429044Y-85153333D01*
X79756667Y-85153333D01*
X79787645Y-85223023D01*
X79813111Y-85209777D01*
X79823244Y-85109298D01*
X79813111Y-85096888D01*
X79762777Y-85108511D01*
X79756667Y-85153333D01*
X79429044Y-85153333D01*
X79372273Y-84990147D01*
X79342310Y-84899333D01*
X79672000Y-84899333D01*
X79702978Y-84969023D01*
X79728444Y-84955777D01*
X79738577Y-84855298D01*
X79728444Y-84842888D01*
X79678110Y-84854511D01*
X79672000Y-84899333D01*
X79342310Y-84899333D01*
X79274614Y-84694156D01*
X79243117Y-84595944D01*
X79594017Y-84595944D01*
X79609584Y-84705758D01*
X79638486Y-84707069D01*
X79658697Y-84593752D01*
X79645170Y-84544791D01*
X79607575Y-84512721D01*
X79594017Y-84595944D01*
X79243117Y-84595944D01*
X79161717Y-84342127D01*
X79150550Y-84306666D01*
X79502667Y-84306666D01*
X79533645Y-84376356D01*
X79559111Y-84363111D01*
X79569244Y-84262631D01*
X79559111Y-84250222D01*
X79508777Y-84261844D01*
X79502667Y-84306666D01*
X79150550Y-84306666D01*
X79118400Y-84204573D01*
X79067439Y-84052666D01*
X79418000Y-84052666D01*
X79448978Y-84122356D01*
X79474444Y-84109111D01*
X79484577Y-84008631D01*
X79474444Y-83996222D01*
X79424110Y-84007844D01*
X79418000Y-84052666D01*
X79067439Y-84052666D01*
X79010729Y-83883619D01*
X78914443Y-83637419D01*
X78843930Y-83500973D01*
X78822578Y-83484907D01*
X78749548Y-83438472D01*
X78744007Y-83417666D01*
X78646852Y-83239335D01*
X78453953Y-83070874D01*
X78233367Y-82965088D01*
X78143825Y-82952000D01*
X77737234Y-82988216D01*
X77446709Y-83107723D01*
X77232802Y-83326808D01*
X77231520Y-83328674D01*
X77023690Y-83707032D01*
X76824463Y-84210220D01*
X76651110Y-84793955D01*
X76635386Y-84857000D01*
X76566242Y-85132941D01*
X76507094Y-85358365D01*
X76486474Y-85431624D01*
X76479531Y-85485287D01*
X75824870Y-85485287D01*
X75846612Y-85280333D01*
X75890713Y-85045705D01*
X75895654Y-85026333D01*
X76200667Y-85026333D01*
X76243000Y-85068666D01*
X76285333Y-85026333D01*
X76243000Y-84984000D01*
X76200667Y-85026333D01*
X75895654Y-85026333D01*
X75977984Y-84703522D01*
X75982561Y-84687666D01*
X76285333Y-84687666D01*
X76327667Y-84730000D01*
X76370000Y-84687666D01*
X76327667Y-84645333D01*
X76285333Y-84687666D01*
X75982561Y-84687666D01*
X76080312Y-84349000D01*
X76370000Y-84349000D01*
X76412333Y-84391333D01*
X76454667Y-84349000D01*
X76412333Y-84306666D01*
X76370000Y-84349000D01*
X76080312Y-84349000D01*
X76092985Y-84305095D01*
X76159287Y-84095000D01*
X76454667Y-84095000D01*
X76497000Y-84137333D01*
X76539333Y-84095000D01*
X76497000Y-84052666D01*
X76454667Y-84095000D01*
X76159287Y-84095000D01*
X76220277Y-83901735D01*
X76241398Y-83841000D01*
X76539333Y-83841000D01*
X76581667Y-83883333D01*
X76624000Y-83841000D01*
X76581667Y-83798666D01*
X76539333Y-83841000D01*
X76241398Y-83841000D01*
X76300286Y-83671666D01*
X76624000Y-83671666D01*
X76666333Y-83714000D01*
X76708667Y-83671666D01*
X76666333Y-83629333D01*
X76624000Y-83671666D01*
X76300286Y-83671666D01*
X76344422Y-83544754D01*
X76440973Y-83304937D01*
X76470929Y-83248333D01*
X76793333Y-83248333D01*
X76835667Y-83290666D01*
X76878000Y-83248333D01*
X76835667Y-83206000D01*
X76793333Y-83248333D01*
X76470929Y-83248333D01*
X76538966Y-83119772D01*
X76897423Y-83119772D01*
X76904857Y-83121333D01*
X76975425Y-83066240D01*
X77111734Y-82931020D01*
X77136416Y-82904965D01*
X77236726Y-82778221D01*
X77233580Y-82731941D01*
X77212853Y-82737267D01*
X77112225Y-82810661D01*
X76997632Y-82934390D01*
X76911791Y-83055183D01*
X76897423Y-83119772D01*
X76538966Y-83119772D01*
X76662000Y-82887289D01*
X76854511Y-82655666D01*
X77640000Y-82655666D01*
X77682333Y-82698000D01*
X77724667Y-82655666D01*
X77692792Y-82623792D01*
X78580977Y-82623792D01*
X78625995Y-82712717D01*
X78789636Y-82903794D01*
X78830190Y-82946889D01*
X79035759Y-83201391D01*
X79199210Y-83470767D01*
X79248852Y-83587562D01*
X79322177Y-83773172D01*
X79379737Y-83856539D01*
X79389995Y-83854893D01*
X79381155Y-83762086D01*
X79316695Y-83564203D01*
X79242794Y-83380446D01*
X79097712Y-83101931D01*
X78932435Y-82867836D01*
X78844485Y-82779558D01*
X78654000Y-82643808D01*
X78580977Y-82623792D01*
X77692792Y-82623792D01*
X77682333Y-82613333D01*
X77640000Y-82655666D01*
X76854511Y-82655666D01*
X76895259Y-82606640D01*
X77173106Y-82431855D01*
X77432289Y-82351047D01*
X77789037Y-82300092D01*
X78185997Y-82284408D01*
X78353260Y-82291783D01*
X78659429Y-82333016D01*
X78877888Y-82418584D01*
X79090086Y-82585123D01*
X79165513Y-82657144D01*
X79330059Y-82844432D01*
X79477746Y-83078417D01*
X79619097Y-83384273D01*
X79764637Y-83787177D01*
X79924890Y-84312304D01*
X80059518Y-84795796D01*
X80142865Y-85074823D01*
X80219024Y-85281560D01*
X80268143Y-85367148D01*
X80383109Y-85379964D01*
X80627629Y-85374526D01*
X80963326Y-85354344D01*
X81351826Y-85322928D01*
X81754754Y-85283787D01*
X82133732Y-85240431D01*
X82450387Y-85196369D01*
X82666343Y-85155113D01*
X82704084Y-85144362D01*
X82953704Y-84998909D01*
X83066330Y-84836842D01*
X83100455Y-84607220D01*
X83088476Y-84246294D01*
X83034303Y-83784537D01*
X82941843Y-83252425D01*
X82815005Y-82680433D01*
X82763991Y-82479416D01*
X82677150Y-82174723D01*
X82562590Y-81809554D01*
X82431415Y-81415026D01*
X82294730Y-81022261D01*
X82163639Y-80662378D01*
X82049245Y-80366497D01*
X81962654Y-80165739D01*
X81914970Y-80091222D01*
X81912250Y-80092385D01*
X81895333Y-80182513D01*
X81874693Y-80390208D01*
X81860746Y-80580939D01*
X81850118Y-80848757D01*
X81870194Y-80988583D01*
X81932695Y-81040690D01*
X81996290Y-81046605D01*
X82158189Y-81110275D01*
X82219062Y-81279466D01*
X82177776Y-81522970D01*
X82033198Y-81809580D01*
X82024460Y-81822672D01*
X81688949Y-82193551D01*
X81266247Y-82470940D01*
X80798931Y-82637084D01*
X80329580Y-82674230D01*
X80082682Y-82632333D01*
X79867460Y-82590524D01*
X79746175Y-82626758D01*
X79694639Y-82687521D01*
X79622914Y-82763991D01*
X79562800Y-82707356D01*
X79515569Y-82597847D01*
X79384578Y-82389525D01*
X79188885Y-82195175D01*
X79177503Y-82186596D01*
X78910328Y-81904838D01*
X78680368Y-81503979D01*
X78510437Y-81033636D01*
X78423632Y-80546978D01*
X78405950Y-80243164D01*
X78739779Y-80243164D01*
X78752238Y-80553718D01*
X78831030Y-80917587D01*
X78964341Y-81289696D01*
X79140359Y-81624972D01*
X79268448Y-81797667D01*
X79651183Y-82115513D01*
X80103213Y-82287890D01*
X80601049Y-82310982D01*
X81121203Y-82180970D01*
X81258310Y-82121089D01*
X81546838Y-81898761D01*
X81722199Y-81641194D01*
X81893135Y-81301000D01*
X81636114Y-81543082D01*
X81428938Y-81701753D01*
X81299754Y-81728947D01*
X81265181Y-81631369D01*
X81338245Y-81422879D01*
X81407846Y-81201657D01*
X81459420Y-80885842D01*
X81479546Y-80598133D01*
X81492333Y-80031000D01*
X80180000Y-79988666D01*
X79631933Y-79976614D01*
X79211825Y-79979387D01*
X78932916Y-79996577D01*
X78808450Y-80027778D01*
X78805463Y-80031000D01*
X78739779Y-80243164D01*
X78405950Y-80243164D01*
X78405858Y-80241583D01*
X78421574Y-80048991D01*
X78482782Y-79914042D01*
X78587078Y-79795891D01*
X78774798Y-79655259D01*
X79003509Y-79603043D01*
X79169594Y-79602262D01*
X79408072Y-79609217D01*
X79763931Y-79617636D01*
X80185239Y-79626361D01*
X80539833Y-79632872D01*
X80976374Y-79643673D01*
X81277099Y-79661898D01*
X81475510Y-79692914D01*
X81605113Y-79742088D01*
X81699411Y-79814784D01*
X81704000Y-79819333D01*
X81824457Y-79927171D01*
X81873333Y-79946449D01*
X81840377Y-79856432D01*
X81751482Y-79647248D01*
X81621607Y-79353507D01*
X81516527Y-79120949D01*
X81295968Y-78585322D01*
X81181838Y-78180255D01*
X81164354Y-77997193D01*
X81201851Y-77765184D01*
X81304919Y-77404452D01*
X81465942Y-76938974D01*
X81661925Y-76430860D01*
X81918798Y-75774466D01*
X82109821Y-75240104D01*
X82243210Y-74797528D01*
X82327179Y-74416491D01*
X82369942Y-74066748D01*
X82380011Y-73786833D01*
X82387531Y-73510285D01*
X82417371Y-73363458D01*
X82483344Y-73306955D01*
X82550667Y-73300000D01*
X82691385Y-73359037D01*
X82720000Y-73474330D01*
X82753770Y-73593044D01*
X82810439Y-73592766D01*
X82866146Y-73477109D01*
X82855429Y-73418435D01*
X82870390Y-73315364D01*
X82917091Y-73300000D01*
X82995201Y-73373833D01*
G37*
%TO.C,SW2*%
D15*
X71825000Y-102495000D02*
X85795000Y-102495000D01*
X71825000Y-116465000D02*
X71825000Y-102495000D01*
X85795000Y-102495000D02*
X85795000Y-116465000D01*
X85795000Y-116465000D02*
X71825000Y-116465000D01*
%TO.C,SW6*%
X33725000Y-102495000D02*
X47695000Y-102495000D01*
X33725000Y-116465000D02*
X33725000Y-102495000D01*
X47695000Y-102495000D02*
X47695000Y-116465000D01*
X47695000Y-116465000D02*
X33725000Y-116465000D01*
%TO.C,SW1*%
X71825000Y-121545000D02*
X85795000Y-121545000D01*
X71825000Y-135515000D02*
X71825000Y-121545000D01*
X85795000Y-121545000D02*
X85795000Y-135515000D01*
X85795000Y-135515000D02*
X71825000Y-135515000D01*
%TO.C,SW5*%
X33725000Y-121545000D02*
X47695000Y-121545000D01*
X33725000Y-135515000D02*
X33725000Y-121545000D01*
X47695000Y-121545000D02*
X47695000Y-135515000D01*
X47695000Y-135515000D02*
X33725000Y-135515000D01*
%TD*%
M02*
