%TF.GenerationSoftware,KiCad,Pcbnew,10.0.6*%
%TF.CreationDate,2026-10-06T18:22:55-06:00*%
%TF.ProjectId,Hackpad,4861636b-7061-4642-9e6b-696361645f70,rev?*%
%TF.SameCoordinates,Original*%
%TF.FileFunction,Soldermask,Bot*%
%TF.FilePolarity,Negative*%
%FSLAX46Y46*%
G04 Gerber Fmt 4.6, Leading zero omitted, Abs format (unit mm)*
G04 Created by KiCad (PCBNEW 10.0.6) date 2026-10-06 18:22:55*
%MOMM*%
%LPD*%
G01*
G04 APERTURE LIST*
%ADD10R,3.500000X1.700000*%
%ADD11O,3.600000X1.700000*%
%ADD12O,3.700000X1.700000*%
%ADD13C,1.700000*%
%ADD14C,4.000000*%
%ADD15C,2.200000*%
%ADD16R,2.000000X2.000000*%
%ADD17C,2.000000*%
%ADD18R,3.200000X2.000000*%
G04 APERTURE END LIST*
D10*
%TO.C,U1*%
X41950000Y-79960000D03*
D11*
X41950000Y-82500000D03*
X41950000Y-85040000D03*
X41950000Y-87580000D03*
X41950000Y-90120000D03*
X41950000Y-92660000D03*
X41950000Y-95200000D03*
X59200000Y-95200000D03*
X59200000Y-92660000D03*
X59200000Y-90120000D03*
D12*
X59200000Y-87580000D03*
X59200000Y-85040000D03*
X59200000Y-82500000D03*
X59200000Y-79960000D03*
%TD*%
D13*
%TO.C,SW4*%
X54680000Y-109480000D03*
D14*
X59760000Y-109480000D03*
D13*
X64840000Y-109480000D03*
D15*
X62300000Y-104400000D03*
X55950000Y-106940000D03*
%TD*%
D16*
%TO.C,SW7*%
X82150000Y-92200000D03*
D17*
X82150000Y-87200000D03*
X82150000Y-89700000D03*
D18*
X74650000Y-95300000D03*
X74650000Y-84100000D03*
D17*
X67650000Y-87200000D03*
X67650000Y-92200000D03*
%TD*%
D13*
%TO.C,SW3*%
X54680000Y-128530000D03*
D14*
X59760000Y-128530000D03*
D13*
X64840000Y-128530000D03*
D15*
X62300000Y-123450000D03*
X55950000Y-125990000D03*
%TD*%
D13*
%TO.C,SW2*%
X73730000Y-109480000D03*
D14*
X78810000Y-109480000D03*
D13*
X83890000Y-109480000D03*
D15*
X81350000Y-104400000D03*
X75000000Y-106940000D03*
%TD*%
D13*
%TO.C,SW6*%
X35630000Y-109480000D03*
D14*
X40710000Y-109480000D03*
D13*
X45790000Y-109480000D03*
D15*
X43250000Y-104400000D03*
X36900000Y-106940000D03*
%TD*%
D13*
%TO.C,SW1*%
X73730000Y-128530000D03*
D14*
X78810000Y-128530000D03*
D13*
X83890000Y-128530000D03*
D15*
X81350000Y-123450000D03*
X75000000Y-125990000D03*
%TD*%
D13*
%TO.C,SW5*%
X35630000Y-128530000D03*
D14*
X40710000Y-128530000D03*
D13*
X45790000Y-128530000D03*
D15*
X43250000Y-123450000D03*
X36900000Y-125990000D03*
%TD*%
M02*
